<?xml version="1.0" encoding="UTF-8" standalone="no"?>
<!-- Created with Inkscape (http://www.inkscape.org/) -->

<svg
   width="210mm"
   height="210mm"
   viewBox="0 0 210 210"
   version="1.1"
   id="svg1"
   inkscape:version="1.3.2 (091e20ef0f, 2023-11-25, custom)"
   sodipodi:docname="buggy.svg"
   xmlns:inkscape="http://www.inkscape.org/namespaces/inkscape"
   xmlns:sodipodi="http://sodipodi.sourceforge.net/DTD/sodipodi-0.dtd"
   xmlns="http://www.w3.org/2000/svg"
   xmlns:svg="http://www.w3.org/2000/svg">
  <sodipodi:namedview
     id="namedview1"
     pagecolor="#505050"
     bordercolor="#eeeeee"
     borderopacity="1"
     inkscape:showpageshadow="0"
     inkscape:pageopacity="0"
     inkscape:pagecheckerboard="0"
     inkscape:deskcolor="#505050"
     inkscape:document-units="mm"
     inkscape:zoom="0.86060785"
     inkscape:cx="239.94668"
     inkscape:cy="431.09065"
     inkscape:window-width="1876"
     inkscape:window-height="998"
     inkscape:window-x="0"
     inkscape:window-y="0"
     inkscape:window-maximized="1"
     inkscape:current-layer="layer1" />
  <defs
     id="defs1" />
  <g
     inkscape:label="Layer 1"
     inkscape:groupmode="layer"
     id="layer1">
    <path
       style="fill:#ffffff;fill-opacity:0.99532;stroke:#ffffff;stroke-width:1.3983"
       id="path5"
       d="m 41.624789,74.988249 c 1.24944,-0.290059 1.860472,-0.445416 3.315783,-0.679428 5.867768,-0.943525 11.802661,-1.386839 17.711063,-1.981162 3.02092,-0.303876 6.039741,-0.6283 9.059612,-0.942446 8.629963,-0.91507 17.214547,-2.186193 25.796242,-3.462901 1.546216,-0.230046 1.22088,-2.416726 -0.325334,-2.18668 v 0 c -8.549574,1.272096 -17.101996,2.53885 -25.699661,3.450698 -3.014452,0.313604 -6.027853,0.637469 -9.043352,0.940815 -5.978017,0.601364 -11.981568,1.052015 -17.917784,2.011039 -1.489087,0.240568 -2.118598,0.399914 -3.390627,0.695231 -1.523701,0.349355 -1.029638,2.504188 0.494058,2.154834 z" />
    <path
       style="fill:#ffffff;fill-opacity:0.99532;stroke:#ffffff;stroke-width:1.3983"
       id="path6"
       d="m 40.430523,76.974118 c -0.117339,3.624665 -0.152285,7.256682 0.0072,10.880956 0.152452,3.466088 0.39537,5.922276 0.687722,9.401359 0.404893,4.448267 0.901431,8.887397 1.434355,13.321907 0.292666,2.43528 0.600656,4.86219 0.99176,7.28337 0.281861,1.40944 0.611784,3.13679 2.327077,3.4463 0.865999,0.15627 2.43733,-0.12438 3.262259,-0.23363 6.512897,-1.0631 13.005676,-2.24372 19.527559,-3.2534 6.219008,-0.96279 8.823401,-1.2986 15.036045,-2.15928 8.353818,-1.09756 4.380996,-0.5795 11.918183,-1.55631 1.550271,-0.20092 1.266136,-2.39333 -0.284134,-2.19242 v 0 c -7.546181,0.97798 -3.566939,0.45907 -11.937437,1.5589 -6.239394,0.86447 -8.838791,1.19954 -15.085646,2.16673 -6.502501,1.00676 -12.976291,2.18219 -19.469412,3.24477 -0.507354,0.0694 -1.015064,0.13637 -1.52206,0.20842 -0.252626,0.0359 -0.508076,0.0582 -0.756746,0.11546 -0.125414,0.0288 -0.176922,0.23534 -0.327445,0.008 -0.296418,-0.44725 -0.405527,-1.26058 -0.505863,-1.70679 -0.387087,-2.38957 -0.689667,-4.78531 -0.978571,-7.18898 -0.530064,-4.41008 -1.024038,-8.82476 -1.426948,-13.248519 -0.285833,-3.396841 -0.531028,-5.885637 -0.680594,-9.269426 -0.157468,-3.56261 -0.12328,-7.132733 -0.01039,-10.695821 0.09322,-1.560453 -2.113601,-1.692276 -2.206815,-0.131821 z" />
    <path
       style="fill:#ffffff;fill-opacity:0.99532;stroke:#ffffff;stroke-width:1.3983"
       id="path7"
       d="m 97.309868,68.171707 c -0.02399,0.414147 -0.06023,0.827763 -0.07195,1.242438 -0.05799,2.050848 -0.02545,3.737981 0.04738,5.839761 0.158404,4.572211 0.525124,9.123182 0.911243,13.680467 0.567532,6.94117 1.327656,13.863507 2.072409,20.787137 0.0783,0.678 0.15658,1.35601 0.23487,2.03401 0.17934,1.55291 2.3755,1.29928 2.19615,-0.25363 v 0 c -0.0777,-0.67228 -0.15531,-1.34454 -0.23295,-2.01682 -0.74299,-6.90707 -1.50149,-13.812833 -2.06763,-20.737409 -0.38254,-4.511418 -0.745713,-9.016457 -0.903884,-13.542608 -0.07243,-2.072897 -0.102998,-3.656073 -0.05038,-5.66586 0.0098,-0.375546 0.04146,-0.750204 0.06219,-1.125306 0.171245,-1.553827 -2.026198,-1.796006 -2.197443,-0.24218 z" />
    <path
       style="fill:#ffffff;fill-opacity:0.99532;stroke:#ffffff;stroke-width:1.3983"
       id="path8"
       d="m 38.202711,74.101877 c -1.338126,0.626548 -2.468256,1.636843 -3.582905,2.58944 -2.134014,1.909106 -3.896392,4.178685 -5.666708,6.416265 -1.208261,1.502539 -2.415527,3.004731 -3.543626,4.568697 -0.464742,0.669926 -0.901946,1.364258 -1.247042,2.104146 -0.02553,0.06083 -0.05107,0.121651 -0.0766,0.182474 -0.597906,1.444373 1.444745,2.289941 2.042652,0.845569 v 0 c 0.01303,-0.03233 0.02605,-0.06467 0.03909,-0.097 0.283366,-0.613991 0.653833,-1.185246 1.035035,-1.742094 1.108553,-1.53758 2.29736,-3.012579 3.48427,-4.490137 1.681757,-2.125822 3.350552,-4.286891 5.370487,-6.108386 0.927993,-0.795598 1.866784,-1.6394 2.953623,-2.211285 1.455011,-0.57153 0.646745,-2.629227 -0.808268,-2.057695 z" />
    <path
       style="fill:#ffffff;fill-opacity:0.99532;stroke:#ffffff;stroke-width:1.3983"
       id="path9"
       d="m 42.527646,120.58817 c -1.159227,-1.3221 -2.399834,-2.56733 -3.62306,-3.8293 -1.904982,-2.07916 -3.774592,-4.18788 -5.770395,-6.18117 -0.974568,-0.92284 -1.909543,-1.88634 -2.876553,-2.81683 -1.126813,-1.08351 -2.659129,0.51005 -1.532315,1.59356 v 0 c 0.957718,0.92022 1.881609,1.87536 2.84698,2.78785 1.988182,1.9838 3.844854,4.08809 5.744907,6.15531 1.198785,1.23665 2.415445,2.45608 3.55142,3.75176 1.033219,1.1731 2.692233,-0.28808 1.659016,-1.46118 z" />
    <path
       style="fill:#ffffff;fill-opacity:0.99532;stroke:#ffffff;stroke-width:1.3983"
       id="path10"
       d="m 24.520198,88.801436 c -0.9107,0.274752 -1.814977,0.563928 -2.738835,0.795127 -1.330385,0.319584 -2.663267,0.629916 -4.01758,0.829028 -0.474736,0.06444 -0.95229,0.103541 -1.430268,0.133373 -0.251845,0.01574 -0.473432,0.01039 -0.720025,0.09035 -0.157063,0.05091 -0.301423,0.134856 -0.452134,0.202282 -0.180977,0.242997 -0.423868,0.450383 -0.542933,0.728992 -0.138859,0.324927 -0.08408,1.275969 -0.07662,1.590579 0.02991,1.26176 0.0919,2.518613 0.171306,3.778161 0.186632,2.190502 0.563028,4.357912 0.850306,6.536212 0.135893,0.82516 0.158054,1.66082 0.22883,2.49182 0.04797,0.61943 0.160828,1.23048 0.23667,1.84663 0.104524,0.55876 0.173877,1.12216 0.213421,1.68896 0.0087,0.69821 0.174167,1.34187 0.829812,1.72826 0.181029,0.10667 0.398375,0.13384 0.597564,0.20075 0.190364,0.0229 0.379953,0.0536 0.571095,0.0689 0.455367,0.0362 1.008788,0.0349 1.461933,0.0481 0.748514,0.0217 1.492732,0.0778 2.239268,0.13375 1.26849,0.14266 2.538911,0.25841 3.813391,0.32997 0.67313,0.0282 1.347572,0.0713 2.020527,0.0268 0.341745,-0.0416 0.179275,-0.0206 0.4875,-0.0624 1.548947,-0.21087 1.250733,-2.40141 -0.298215,-2.19054 v 0 c -0.252576,0.0345 -0.131512,0.0181 -0.363178,0.0491 -0.570324,0.0619 -1.151674,-0.0321 -1.723,-0.0301 -1.260742,-0.0704 -2.517044,-0.18811 -3.772019,-0.32727 -1.305368,-0.0976 -2.610648,-0.15005 -3.918451,-0.19509 0.160946,0.23863 0.240785,0.26652 0.307063,0.54818 0.0034,0.0145 -0.01493,-0.0265 -0.01718,-0.0412 -0.01512,-0.0995 -0.02661,-0.36542 -0.03088,-0.4431 -0.04336,-0.60491 -0.110483,-1.20785 -0.224593,-1.80397 -0.07326,-0.59066 -0.180401,-1.17635 -0.228544,-1.76988 -0.07979,-0.86181 -0.09331,-1.73064 -0.239254,-2.58655 -0.280908,-2.12861 -0.647096,-4.246698 -0.83572,-6.386534 -0.07821,-1.233881 -0.09322,-1.335726 -0.137296,-2.568337 -0.01332,-0.37266 -0.02044,-0.745513 -0.03012,-1.118287 -0.0061,-0.233748 0.0087,-0.468889 -0.01715,-0.701275 -0.0025,-0.02217 -0.0423,-0.01418 -0.06345,-0.02129 -0.131872,0.120068 -0.263745,0.240136 -0.395618,0.360204 -0.06229,0.01582 -0.123427,0.03715 -0.186862,0.04744 -0.01608,0.0027 0.02638,-0.02226 0.04258,-0.02404 0.117136,-0.01295 0.235387,-0.01228 0.353003,-0.01974 0.535766,-0.03396 1.070992,-0.07892 1.603028,-0.15205 1.426057,-0.212445 2.831285,-0.53207 4.232008,-0.871705 0.946858,-0.238314 1.874191,-0.532591 2.807963,-0.813671 1.503088,-0.429453 0.895749,-2.555141 -0.607339,-2.125687 z" />
    <path
       style="fill:#ffffff;fill-opacity:0.99532;stroke:#ffffff;stroke-width:1.3983"
       id="path11"
       d="m 26.648467,112.41096 c 0.0017,1.02552 -0.01105,2.05091 0.02089,3.07602 0.05937,1.38742 0.17467,2.77227 0.306417,4.15454 0.07057,0.52652 0.128753,1.05529 0.20953,1.58045 0.04691,0.30497 0.109974,0.59914 0.124198,0.90737 -0.04681,0.0611 -0.07229,0.10224 0.0027,-0.16529 0.0189,-0.0675 0.07622,-0.12229 0.08672,-0.1916 0.0031,-0.0208 -0.0409,0.01 -0.06038,0.0177 -0.487853,0.19489 0.251011,-0.0825 -0.29236,0.11862 -0.672137,0.21463 -1.170394,0.66495 -1.605268,1.20174 -0.477436,0.59628 -0.768146,1.29034 -1.00431,2.00885 -0.265591,0.88934 -0.413975,1.80133 -0.498328,2.72364 -0.06992,0.83053 -0.09963,1.67324 0.158662,2.47789 0.055,0.17134 0.131429,0.33505 0.197143,0.50257 0.507826,1.04799 1.220742,1.45797 2.290358,1.79458 1.100671,0.25939 2.236093,0.2684 3.360481,0.28579 1.380117,-0.0354 2.759178,-0.0999 4.139343,-0.1358 1.364811,-0.0377 2.714992,-0.25774 4.058792,-0.4832 1.520913,-0.30019 3.039091,-0.61524 4.568257,-0.87141 1.832025,-0.35952 3.656114,-0.75268 5.493628,-1.0881 2.115792,-0.35815 4.236759,-0.677 6.366362,-0.93948 2.194134,-0.2461 4.374099,-0.59891 6.565799,-0.8652 2.016173,-0.24177 4.015384,-0.6145 6.010243,-0.99056 2.200025,-0.42118 4.403194,-0.82225 6.59177,-1.30046 1.802449,-0.40753 3.606254,-0.81982 5.385018,-1.32244 1.408119,-0.42858 2.753225,-1.03152 4.044867,-1.73244 0.870059,-0.44261 1.608869,-1.07898 2.331131,-1.72533 0.596015,-0.50477 1.107967,-1.0858 1.534922,-1.73799 0.30155,-0.52871 0.524595,-1.09707 0.709204,-1.67571 0.09246,-0.34795 0.05195,-0.16451 0.117149,-0.55125 0.227049,-1.54665 -1.96026,-1.86775 -2.187306,-0.32109 v 0 c -0.0056,0.11571 0.0021,0.0452 -0.0388,0.20923 -0.121697,0.39619 -0.27684,0.78189 -0.464877,1.15115 -0.297926,0.49551 -0.71529,0.89784 -1.145381,1.27899 -0.594398,0.53306 -1.193991,1.06831 -1.912993,1.43028 -1.145772,0.62592 -2.341425,1.16055 -3.590292,1.54707 -1.735084,0.49253 -3.4966,0.89014 -5.254847,1.28981 -2.1677,0.47425 -4.350308,0.86986 -6.529335,1.28773 -1.947395,0.36753 -3.89913,0.7319 -5.867325,0.96842 -2.192851,0.26686 -4.374165,0.61863 -6.569397,0.86564 -2.172018,0.26773 -4.335245,0.59304 -6.493079,0.95885 -1.82698,0.3338 -3.641199,0.72265 -5.462252,1.0826 -1.529105,0.2569 -3.048053,0.5684 -4.56849,0.87145 -1.241758,0.2086 -2.489095,0.41645 -3.750245,0.45343 -1.349748,0.0351 -2.698493,0.0955 -4.048049,0.13532 -0.919825,-0.0139 -1.84675,-0.0169 -2.753627,-0.19117 -0.353276,-0.0995 -0.707579,-0.17344 -0.888146,-0.52372 -0.285992,-0.61898 -0.266904,-1.26856 -0.196815,-1.93757 0.06659,-0.75719 0.186286,-1.50467 0.398305,-2.23623 0.150553,-0.46666 0.318815,-0.92235 0.627762,-1.31185 0.201134,-0.25566 0.362399,-0.44699 0.699406,-0.53076 0.917016,-0.37849 1.65442,-0.86628 1.65008,-1.9751 -0.0634,-0.85701 -0.261034,-1.69888 -0.339115,-2.55522 -0.127398,-1.33597 -0.239293,-2.6744 -0.297566,-4.01532 -0.03294,-1.00151 -0.01636,-2.00348 -0.01976,-3.00543 0,-1.56323 -2.210748,-1.56323 -2.210748,0 z" />
    <path
       style="fill:#ffffff;fill-opacity:0.99532;stroke:#ffffff;stroke-width:1.3983"
       id="path29"
       d="m 47.788197,79.050276 c -0.3487,0.469971 -0.538918,1.036711 -0.690622,1.595857 -0.224289,0.826684 -0.248526,1.075067 -0.40903,1.955046 -0.05425,0.373008 -0.118816,0.744659 -0.162755,1.119021 -0.148297,1.263475 -0.236397,2.597849 0.04004,3.851772 0.0532,0.241344 0.140043,0.474025 0.210066,0.711034 0.10165,0.207629 0.181424,0.427482 0.304957,0.622886 0.398552,0.630426 1.22897,1.299402 1.960559,1.494375 0.18276,0.0487 0.374889,0.05053 0.562335,0.07579 0.212559,-0.05667 0.447038,-0.06025 0.637676,-0.170033 0.477754,-0.275111 0.797936,-0.771721 1.031399,-1.248621 0.421551,-0.861109 0.572603,-1.800013 0.734946,-2.733223 0.172235,-1.494299 0.320315,-3.006903 0.23922,-4.513188 -0.01278,-0.237369 -0.03949,-0.473779 -0.05925,-0.710668 -0.131892,-0.9246 -0.315278,-1.890251 -0.873085,-2.665534 -0.07503,-0.104292 -0.165915,-0.196223 -0.248875,-0.294336 -0.364179,-0.329925 -0.844161,-0.6168 -1.359424,-0.522301 -0.109034,0.02001 -0.210881,0.06842 -0.316322,0.102634 -0.324995,0.155125 -0.573261,0.412883 -0.833702,0.652898 -0.07009,0.06459 -0.297099,0.260907 -0.363697,0.318791 -0.278659,0.23837 -0.553598,0.484253 -0.764482,0.786903 -0.121796,0.174797 -0.147957,0.243719 -0.239694,0.428807 -0.02433,0.06168 -0.04866,0.123367 -0.07299,0.185048 -0.27966,0.729875 0.752541,1.125374 1.032197,0.395498 v 0 c 0.01208,-0.03332 0.02413,-0.06663 0.03621,-0.09994 0.169094,-0.367571 0.421786,-0.607776 0.733979,-0.862112 0.29688,-0.258154 0.577393,-0.53448 0.884463,-0.780287 0.04677,-0.160732 0.3748,0.07594 0.43148,0.121838 0.04919,0.05296 0.103751,0.101396 0.147568,0.158869 0.470355,0.61699 0.58534,1.424344 0.704934,2.166441 0.01857,0.215929 0.04366,0.431393 0.05572,0.647784 0.07987,1.433361 -0.06448,2.872943 -0.22362,4.295369 -0.137429,0.808071 -0.265682,1.609523 -0.601273,2.365266 -0.01969,0.04433 -0.337161,0.643601 -0.442242,0.761227 -0.04456,0.04988 -0.110762,0.075 -0.166144,0.112491 -0.08634,-8.78e-4 -0.174682,0.01594 -0.259005,-0.0027 -0.477959,-0.105132 -1.110213,-0.564666 -1.381961,-0.965005 -0.09423,-0.138826 -0.156017,-0.297104 -0.234027,-0.445658 -0.05873,-0.187821 -0.132084,-0.371678 -0.176177,-0.56346 -0.259865,-1.130331 -0.170749,-2.37997 -0.03787,-3.519996 0.04213,-0.361415 0.104292,-0.720212 0.156436,-1.080319 0.155114,-0.858539 0.166268,-1.028683 0.378006,-1.827681 0.110689,-0.417679 0.241722,-0.850414 0.483721,-1.213636 0.499957,-0.600808 -0.349711,-1.307853 -0.849668,-0.707048 z" />
    <path
       style="fill:#ffffff;fill-opacity:0.99532;stroke:#ffffff;stroke-width:1.3983"
       id="path30"
       d="m 54.674052,79.21006 c -0.255019,0.927028 -0.431758,1.884701 -0.487486,2.845885 -0.02059,0.355183 -0.01588,0.711376 -0.02383,1.067065 0.07461,1.900978 0.376692,3.815024 1.062578,5.597806 0.09169,0.238337 0.205599,0.467523 0.3084,0.701284 0.115508,0.185287 0.207865,0.387201 0.346526,0.555861 0.442622,0.538394 1.055536,0.811792 1.750604,0.589566 0.594088,-0.18994 0.75434,-0.494966 1.156089,-0.941025 0.141818,-0.269631 0.313079,-0.525724 0.425449,-0.808895 0.305028,-0.768665 0.416334,-1.523943 0.472373,-2.348621 0.05889,-0.866736 0.01386,-1.978478 -0.05748,-2.842872 -0.03674,-0.445023 -0.09962,-0.887504 -0.149424,-1.331258 -0.207535,-1.465711 -0.443023,-2.963017 -1.091625,-4.309966 -0.07418,-0.154055 -0.163016,-0.300621 -0.244523,-0.45093 -0.271232,-0.406553 -0.607731,-0.856269 -1.123748,-0.955797 -0.318744,-0.06148 -0.452716,-0.009 -0.75247,0.0487 -0.579403,0.167338 -1.09396,0.480412 -1.474845,0.953185 -0.09033,0.11213 -0.16558,0.235617 -0.248372,0.353428 -0.310353,0.501297 -0.551413,1.042124 -0.698984,1.612816 -0.03695,0.15424 -0.04959,0.311857 -0.06042,0.469478 -0.04995,0.780017 1.053164,0.850656 1.103114,0.07063 v 0 c 0.0051,-0.08989 0.01039,-0.179909 0.02875,-0.268361 0.109774,-0.445835 0.305975,-0.86487 0.539001,-1.259203 0.298599,-0.451434 0.524423,-0.67764 1.047332,-0.852001 0.0488,-0.01357 0.09946,-0.02173 0.146417,-0.04073 0.05587,-0.0226 0.01693,-0.06125 0.0968,-0.03717 0.198873,0.05994 0.311463,0.29072 0.428018,0.43616 0.06694,0.120629 0.140213,0.237957 0.200814,0.361894 0.608161,1.243748 0.808525,2.637381 1.00635,3.991903 0.04805,0.422846 0.108415,0.844477 0.144144,1.268543 0.06804,0.807618 0.111467,1.836034 0.0638,2.648618 -0.04188,0.713985 -0.123326,1.316457 -0.361751,1.983344 -0.07367,0.206082 -0.188188,0.395194 -0.282283,0.592792 -0.136628,0.179321 -0.5415,0.794793 -0.881006,0.654919 -0.272075,-0.112095 -0.366439,-0.361163 -0.518025,-0.592762 -0.09106,-0.203806 -0.192456,-0.403304 -0.273194,-0.611416 -0.644169,-1.660397 -0.92625,-3.445396 -1.003273,-5.217068 0.0062,-0.326224 2.69e-4,-0.652901 0.01845,-0.978676 0.04981,-0.892055 0.211697,-1.781607 0.447282,-2.642168 0.222702,-0.749222 -0.836852,-1.06417 -1.059558,-0.314952 z" />
    <path
       style="fill:#ffffff;fill-opacity:0.99532;stroke:#ffffff;stroke-width:1.3983"
       id="path32"
       d="m 62.635788,77.324817 c -0.07254,1.076927 -0.114028,2.154346 -0.122404,3.233724 0.03958,1.642188 0.181951,3.281262 0.374997,4.912066 0.06073,0.644624 0.190042,1.279116 0.284315,1.918742 0.04333,0.135799 0.07418,0.630583 0.153863,0.728647 0.09714,0.119556 0.219172,0.216519 0.328758,0.324781 0.719855,0.304521 1.150513,-0.713506 0.430658,-1.018031 v 0 c 0.09144,0.100578 0.186314,0.198135 0.274302,0.301743 0.0053,0.0062 0.0046,0.03219 0.0027,0.02431 -0.04567,-0.171345 -0.05749,-0.350734 -0.09674,-0.523478 -0.09363,-0.628899 -0.219588,-1.252969 -0.280058,-1.88681 -0.188065,-1.584858 -0.326114,-3.177788 -0.367346,-4.773644 0.0078,-1.08225 0.05388,-2.162113 0.122437,-3.242049 0,-0.781618 -1.105374,-0.781618 -1.105374,0 z" />
    <path
       style="fill:#ffffff;fill-opacity:0.99532;stroke:#ffffff;stroke-width:1.3983"
       id="path33"
       d="m 66.703507,77.099643 c -0.01693,0.840021 0.01924,1.678396 0.06343,2.516956 0.06269,1.096686 0.213417,2.185742 0.36476,3.272952 0.102822,0.745226 0.235191,1.485973 0.342309,2.230562 0.04082,0.364067 0.08309,0.727938 0.121746,1.092245 0.02278,0.241163 0.02442,0.48231 0.0708,0.720573 0.15889,0.765298 1.241184,0.540595 1.082294,-0.224701 v 0 c -0.04953,-0.198983 -0.01638,-0.411604 -0.05395,-0.613129 -0.04049,-0.377746 -0.0834,-0.755156 -0.126803,-1.132583 -0.107122,-0.742826 -0.238504,-1.481948 -0.341575,-2.225367 -0.146991,-1.05596 -0.294317,-2.113613 -0.355735,-3.178734 -0.04319,-0.819193 -0.07895,-1.638138 -0.0619,-2.458774 0,-0.781617 -1.105375,-0.781617 -1.105375,0 z" />
    <path
       style="fill:#ffffff;fill-opacity:0.99532;stroke:#ffffff;stroke-width:1.3983"
       id="path34"
       d="m 70.492785,76.795069 c 0.01679,1.191883 0.124364,2.380791 0.19066,3.570744 0.07894,1.608216 0.187025,3.213969 0.324933,4.818121 0.08371,0.736238 0.09989,1.478455 0.169315,2.21561 0.0096,0.146601 0.03947,0.286219 0.07971,0.426655 0.262912,0.736072 1.303878,0.364254 1.040962,-0.371818 v 0 c 0.0036,0.01928 0.01333,0.07731 0.01105,0.05782 -0.0085,-0.07321 -0.03128,-0.144425 -0.03147,-0.218842 -0.0729,-0.732794 -0.08121,-1.472171 -0.168263,-2.204108 -0.136975,-1.593108 -0.24426,-3.1878 -0.322584,-4.78495 -0.06522,-1.169468 -0.170507,-2.337953 -0.188946,-3.50923 0,-0.781618 -1.105376,-0.781618 -1.105376,0 z" />
    <path
       style="fill:#ffffff;fill-opacity:0.99532;stroke:#ffffff;stroke-width:1.3983"
       id="path35"
       d="m 75.470424,76.472098 c -0.203018,0.77207 -0.354205,1.56106 -0.429,2.356465 -0.02374,0.252594 -0.03493,0.506213 -0.05241,0.759316 -0.06221,1.335179 0.03766,2.677058 0.290411,3.98962 0.04302,0.223421 0.09809,0.444354 0.147136,0.666529 0.196994,0.700872 0.417413,1.464661 0.991762,1.958738 0.08167,0.07025 0.175583,0.124832 0.263374,0.187249 0.46337,0.260147 0.974448,0.301931 1.457581,0.06138 0.09513,-0.04736 0.18128,-0.110943 0.271917,-0.166414 0.706947,-0.560547 0.914803,-1.271956 1.122639,-2.113754 0.213662,-1.03502 0.278347,-2.091621 0.315098,-3.145293 0.03024,-0.916401 -0.05731,-1.826521 -0.171691,-2.733976 -0.100257,-0.640475 -0.205643,-1.279798 -0.398832,-1.899575 -0.102513,-0.38568 -0.340467,-0.684324 -0.645298,-0.929037 -0.334538,-0.225908 -0.722216,-0.298643 -1.115883,-0.337655 -0.326705,-0.02653 -0.663003,-0.03587 -0.97346,0.08847 -0.07939,0.03179 -0.152688,0.07707 -0.229033,0.115595 -0.434268,0.286665 -0.705779,0.714124 -0.906368,1.182986 -0.08417,0.215942 -0.124479,0.443221 -0.163237,0.670353 -0.128327,0.771013 0.962048,0.952493 1.090375,0.181483 v 0 c 0.02328,-0.145006 0.04566,-0.290659 0.09453,-0.429901 0.09286,-0.240806 0.224498,-0.461271 0.417306,-0.636324 0.161015,-0.125084 0.374633,-0.0813 0.565066,-0.07228 0.191262,0.01717 0.383708,0.03647 0.558607,0.122408 0.140295,0.0601 0.212721,0.246052 0.253119,0.376103 0.177459,0.555268 0.260729,1.131963 0.356411,1.705635 0.107067,0.848929 0.191885,1.699939 0.163674,2.557395 -0.03374,0.978894 -0.09155,1.960536 -0.28462,2.923066 -0.122235,0.515367 -0.245265,1.07125 -0.648924,1.446265 -0.191897,0.141485 -0.276889,0.21534 -0.51358,0.114838 -0.510358,-0.291808 -0.629704,-0.951606 -0.791407,-1.467201 -0.04541,-0.203532 -0.09649,-0.405882 -0.136232,-0.610595 -0.238259,-1.227276 -0.334149,-2.482302 -0.277616,-3.731183 0.01559,-0.233271 0.02524,-0.467011 0.04675,-0.699812 0.06856,-0.742572 0.208962,-1.479342 0.398256,-2.200061 0.205657,-0.754076 -0.860767,-1.04492 -1.066425,-0.290843 z" />
    <path
       style="fill:#ffffff;fill-opacity:0.99532;stroke:#ffffff;stroke-width:1.3983"
       id="path36"
       d="m 81.587162,75.338624 c 0.05212,0.882968 0.107841,1.765542 0.150096,2.649109 0.06798,1.704177 0.09494,3.409659 0.113441,5.114983 -0.01006,0.739017 0.03083,1.475941 0.123306,2.208793 0.03745,0.265709 0.06374,0.532749 0.08713,0.799996 0.0046,0.05244 0.02465,0.35134 0.04658,0.411871 0.03903,0.107796 0.102004,0.205364 0.152999,0.308049 0.318961,-0.05623 0.637919,-0.112464 0.956879,-0.168693 0.37383,-0.686424 -0.596917,-1.215101 -0.97075,-0.528677 v 0 c 0.289202,-0.0014 0.578402,-0.0032 0.867601,-0.0048 0.02861,0.07546 0.04391,0.15745 0.08586,0.226401 0.02053,0.03376 -0.01491,-0.0777 -0.01928,-0.116974 -0.03952,-0.355035 -0.05291,-0.713259 -0.110438,-1.066421 -0.08826,-0.690553 -0.123949,-1.38514 -0.11457,-2.081574 -0.01866,-1.71895 -0.0459,-3.438056 -0.114643,-5.155841 -0.04149,-0.865947 -0.09328,-1.731144 -0.148832,-2.596258 0,-0.781618 -1.105372,-0.781618 -1.105372,0 z" />
    <path
       style="fill:#ffffff;fill-opacity:0.99532;stroke:#ffffff;stroke-width:1.3983"
       id="path37"
       d="m 86.51399,74.734695 c -0.414427,0.834091 -0.50359,1.767205 -0.572384,2.681973 -0.04676,1.246421 0.142337,2.481633 0.410558,3.694406 0.138648,0.562186 0.306475,1.122694 0.586185,1.632848 0.125803,0.229452 0.183108,0.29532 0.331229,0.497981 0.312243,0.393855 0.725947,0.647926 1.187303,0.82823 0.355914,0.114151 0.731759,0.198767 1.108197,0.162911 0.10018,-0.0095 0.198472,-0.03337 0.297708,-0.05005 0.666021,-0.193499 1.070748,-0.653518 1.330221,-1.284006 0.05769,-0.140163 0.09746,-0.287044 0.146193,-0.430568 0.232193,-0.915589 0.332286,-1.858088 0.402811,-2.797973 0.04119,-0.641998 0.0481,-1.289021 -0.01679,-1.929917 -0.03728,-0.368361 -0.07499,-0.539841 -0.139669,-0.899887 -0.127736,-0.574527 -0.254964,-1.171331 -0.578543,-1.67404 -0.05579,-0.08666 -0.123331,-0.165172 -0.184998,-0.247761 -0.318926,-0.376781 -0.759267,-0.567977 -1.21704,-0.715805 -0.354395,-0.110858 -0.720852,-0.130851 -1.088704,-0.108117 -0.397803,0.03496 -0.710737,0.176165 -1.009656,0.435735 -0.104015,0.09826 -0.05266,0.04917 -0.154095,0.147224 -0.561794,0.543426 0.206728,1.337924 0.768524,0.794494 v 0 c 0.08878,-0.08594 0.04403,-0.04311 0.134256,-0.128499 0.07974,-0.1028 0.210766,-0.126499 0.333314,-0.145952 0.230245,-0.01635 0.459318,-0.0099 0.682233,0.05878 0.242692,0.07482 0.493889,0.157452 0.678097,0.340077 0.339548,0.403614 0.434879,0.939934 0.548905,1.440705 0.05415,0.29681 0.09354,0.480746 0.124835,0.782115 0.061,0.587187 0.05467,1.180269 0.01702,1.76858 -0.06315,0.850941 -0.153594,1.703196 -0.350565,2.534963 -0.116415,0.371347 -0.239603,0.810527 -0.631336,0.97365 -0.285888,0.06688 -0.527554,0.03016 -0.805158,-0.05875 -0.266513,-0.09914 -0.508854,-0.232123 -0.69498,-0.454281 -0.381563,-0.50443 -0.584878,-1.099275 -0.726325,-1.711924 -0.246176,-1.107581 -0.423224,-2.235393 -0.387336,-3.37408 0.05526,-0.770661 0.115976,-1.562775 0.458664,-2.268718 0.349551,-0.6991 -0.639126,-1.193438 -0.988675,-0.494337 z" />
    <path
       style="fill:#ffffff;fill-opacity:0.99532;stroke:#ffffff;stroke-width:1.3983"
       id="path38"
       d="m 49.384735,98.293696 c -0.255224,1.22088 -0.247913,2.483294 -0.268335,3.725434 0.0031,0.92939 0.05546,1.86458 0.270005,2.77191 0.114643,0.48483 0.154602,0.55264 0.321344,1.00175 0.308119,0.67387 0.702925,1.10281 1.429872,1.30662 0.10532,0.0295 0.214174,0.0445 0.321262,0.0669 0.486777,0.0626 0.956617,0.0283 1.381125,-0.24426 0.297485,-0.19103 0.414921,-0.36433 0.643031,-0.627 0.554031,-0.77305 0.782217,-1.69969 0.872403,-2.63485 0.02214,-0.22964 0.02621,-0.46068 0.0393,-0.69102 0.02027,-1.08035 -0.06266,-2.17643 -0.427383,-3.201984 -0.06302,-0.177207 -0.144325,-0.347368 -0.216487,-0.521053 -0.384209,-0.793609 -0.980469,-1.329119 -1.744086,-1.738699 -0.07214,-0.03076 -0.144278,-0.06154 -0.216418,-0.0923 -0.721999,-0.299441 -1.145431,0.721613 -0.423435,1.021026 v 0 c 0.04131,0.01626 0.0826,0.03255 0.123905,0.04882 0.527347,0.271699 0.972793,0.650416 1.241386,1.190324 0.05947,0.138713 0.126525,0.27441 0.178393,0.416136 0.329477,0.90026 0.393518,1.86768 0.38037,2.81787 -0.04763,0.93089 -0.125523,1.87354 -0.65272,2.67281 -0.09737,0.1208 -0.286826,0.38205 -0.437581,0.45601 -0.161946,0.0795 -0.358663,0.047 -0.53001,0.0432 -0.50337,-0.0872 -0.696173,-0.18978 -0.928278,-0.67767 -0.04721,-0.12361 -0.100424,-0.24509 -0.14162,-0.37082 -0.316027,-0.96474 -0.371759,-1.98816 -0.379153,-2.99572 0.0129,-0.79348 0.02545,-1.58531 0.0867,-2.376906 0.02085,-0.269476 0.05395,-0.627534 0.10385,-0.905991 0.01333,-0.07441 0.0344,-0.147226 0.0516,-0.220836 0.169559,-0.763006 -0.909494,-1.002797 -1.07905,-0.239792 z" />
    <path
       style="fill:#ffffff;fill-opacity:0.99532;stroke:#ffffff;stroke-width:1.3983"
       id="path39"
       d="m 57.441159,97.047078 c -0.03313,0.795174 -0.03961,1.593366 0.0239,2.387357 0.04792,0.599225 0.08097,0.749715 0.169912,1.341315 0.227507,1.1859 0.564291,2.35096 1.018484,3.46974 0.17976,0.40194 0.387739,0.82831 0.763994,1.08492 0.06828,0.0465 0.143169,0.0826 0.214753,0.1239 0.454927,0.18636 0.873951,0.13946 1.256467,-0.19444 0.25822,-0.2254 0.329765,-0.40795 0.49694,-0.69989 0.454246,-1.0053 0.51716,-2.11696 0.578461,-3.20222 0.02547,-1.29526 -0.122168,-2.585161 -0.329042,-3.861437 -0.15002,-0.683812 -0.23265,-1.409856 -0.540601,-2.048298 -0.04727,-0.098 -0.106625,-0.18971 -0.15994,-0.284561 -0.265487,-0.391433 -0.550832,-0.64998 -1.052023,-0.669856 -0.261261,-0.01039 -0.441363,0.07143 -0.681099,0.150128 -0.65838,0.261248 -1.014418,0.706904 -1.363454,1.298418 -0.140107,0.296447 -0.321683,0.599266 -0.363427,0.931754 -0.01137,0.09071 -0.0059,0.182737 -0.0087,0.274105 0.02209,0.781308 1.127005,0.75009 1.104933,-0.03122 v 0 c -0.07834,-0.02349 0.193877,-0.559506 0.222597,-0.618563 0.193063,-0.338108 0.400862,-0.660809 0.77719,-0.812551 0.04672,-0.0193 0.09326,-0.03906 0.14016,-0.05793 0.02784,-0.0112 0.06389,-0.0099 0.08401,-0.03227 0.01039,-0.01155 -0.01951,-0.02951 -0.01473,-0.04436 0.02568,-0.08026 0.209747,0.198203 0.19836,0.166731 0.357742,0.585436 0.419861,1.298684 0.565768,1.955736 0.195001,1.197234 0.334813,2.407084 0.316472,3.622244 -0.05133,0.92128 -0.09179,1.86839 -0.444518,2.73352 -0.03665,0.0729 -0.07084,0.14706 -0.109974,0.21866 -0.02372,0.0434 -0.05258,0.0838 -0.07838,0.12597 -0.01199,0.0196 -0.03408,0.0365 -0.03501,0.0595 -5.85e-4,0.0149 0.03081,0.0172 0.0313,0.0322 8.78e-4,0.0274 -0.09277,0.007 -0.08179,0.008 -0.207093,-0.0261 -0.396794,-0.5051 -0.464913,-0.64508 -0.423998,-1.03691 -0.732523,-2.11928 -0.949242,-3.21802 -0.08277,-0.54377 -0.114353,-0.688114 -0.159268,-1.238865 -0.06159,-0.755245 -0.05468,-1.514647 -0.0234,-2.271081 0.03778,-0.780705 -1.066305,-0.83413 -1.104082,-0.05342 z" />
    <path
       style="fill:#ffffff;fill-opacity:0.99532;stroke:#ffffff;stroke-width:1.3983"
       id="path40"
       d="m 65.176233,94.753494 c -0.09979,1.719739 0.08942,3.438998 0.263866,5.147497 0.195003,1.668329 0.386786,3.337989 0.626738,5.000649 0.0477,0.27728 0.02193,0.15493 0.07185,0.36819 0.18495,0.75941 1.258933,0.49786 1.073982,-0.26157 v 0 c -0.03421,-0.12964 -0.0131,-0.0423 -0.05181,-0.26461 -0.238071,-1.64744 -0.427418,-3.30197 -0.621117,-4.955017 -0.167819,-1.641233 -0.352389,-3.292491 -0.261845,-4.944718 0.06394,-0.778997 -1.037731,-0.869418 -1.101669,-0.09042 z" />
    <path
       style="fill:#ffffff;fill-opacity:0.99532;stroke:#ffffff;stroke-width:1.3983"
       id="path41"
       d="m 69.20778,93.652735 c 0.201038,1.139847 0.349627,2.287474 0.499124,3.434981 0.164355,1.408461 0.314204,2.818685 0.454324,4.229764 0.06032,0.48952 0.07082,0.98281 0.107011,1.47403 0.0207,0.22897 0.0099,0.12007 0.03184,0.32676 0.08273,0.77723 1.181892,0.66024 1.099166,-0.11699 v 0 c -0.01969,-0.18416 -0.0099,-0.0864 -0.02878,-0.29326 -0.03915,-0.49955 -0.04575,-1.00192 -0.109266,-1.49978 -0.141278,-1.422287 -0.292207,-2.843724 -0.458176,-4.263336 -0.152108,-1.167389 -0.303776,-2.334828 -0.508516,-3.494391 -0.142991,-0.768427 -1.22971,-0.566206 -1.086718,0.202222 z" />
    <path
       style="fill:#ffffff;fill-opacity:0.99532;stroke:#ffffff;stroke-width:1.3983"
       id="path43"
       d="m 75.179768,94.327126 c 0.01173,1.051436 -0.02214,2.103863 0.01214,3.155042 0.0096,0.293268 0.02861,0.58615 0.04291,0.879224 0.135805,1.414032 0.304571,2.849688 0.772147,4.199588 0.06046,0.17457 0.136849,0.3432 0.205271,0.5148 0.285243,0.56885 0.767612,1.31581 1.532826,1.13611 0.179309,-0.0421 0.329668,-0.16438 0.4945,-0.24656 0.120036,-0.11965 0.2507,-0.2295 0.360104,-0.35894 0.608612,-0.72004 0.824504,-1.65781 0.997877,-2.55819 0.190005,-1.116837 0.154842,-2.250318 0.08937,-3.375867 -0.07082,-0.964149 -0.199928,-1.923076 -0.376617,-2.87325 -0.13553,-0.639626 -0.325526,-1.266361 -0.586009,-1.865997 -0.160691,-0.346188 -0.377577,-0.703076 -0.764201,-0.827171 -0.07887,-0.02532 -0.162725,-0.03105 -0.244088,-0.04658 -0.455682,0.005 -0.84455,0.250272 -1.223419,0.476879 -0.259246,0.148422 -0.478587,0.338164 -0.668563,0.567092 -0.492941,0.606575 0.364883,1.303704 0.857828,0.697129 v 0 c 0.107111,-0.137772 0.227189,-0.226639 0.37934,-0.316309 0.135308,-0.08144 0.271459,-0.165262 0.412345,-0.236866 0.03724,-0.01892 0.07673,-0.03316 0.114259,-0.05153 0.01349,-0.0066 0.03243,-0.0096 0.03853,-0.02331 0.0035,-0.0078 -0.0148,-0.009 -0.0222,-0.01336 -0.01875,-0.0092 -0.03903,-0.01567 -0.05623,-0.02746 -0.01313,-0.009 -0.0339,-0.04854 -0.01866,-0.04395 0.09711,0.02925 0.127365,0.230792 0.182082,0.287919 0.229385,0.521656 0.390571,1.069569 0.512291,1.625975 0.168807,0.904532 0.291224,1.817573 0.359813,2.735394 0.06094,1.034833 0.09823,2.077212 -0.0718,3.104812 -0.146402,0.78136 -0.321737,1.58546 -0.870097,2.19399 -0.0027,0.0254 -0.0051,0.051 -0.0076,0.0764 0.01489,0.0203 0.04234,0.0358 0.04469,0.0609 0.0049,0.0523 -0.107254,-0.0258 -0.144462,-0.0628 -0.151362,-0.15066 -0.185083,-0.24995 -0.296678,-0.44767 -0.05788,-0.14181 -0.122964,-0.28088 -0.173633,-0.42541 -0.442351,-1.26182 -0.593227,-2.607751 -0.724994,-3.930086 -0.01389,-0.280532 -0.03248,-0.560867 -0.04169,-0.841592 -0.03436,-1.045618 -9.1e-5,-2.092515 -0.01202,-3.138393 0,-0.781618 -1.105376,-0.781618 -1.105376,0 z" />
    <path
       style="fill:#ffffff;fill-opacity:0.99532;stroke:#ffffff;stroke-width:1.3983"
       id="path44"
       d="m 80.945486,92.421679 c 0.05594,0.63333 0.0319,1.270377 0.06956,1.904617 0.01708,0.287635 0.04617,0.574433 0.06925,0.86165 0.192877,1.771318 0.57489,3.514368 0.988222,5.245194 0.226379,0.89816 0.430946,1.81078 0.814207,2.65787 0.200452,0.37813 0.470235,0.68635 0.887917,0.82619 0.292083,0.0978 0.403664,0.0643 0.709479,0.0521 0.134451,-0.0437 0.27543,-0.0708 0.403353,-0.13105 0.580848,-0.2732 0.976501,-0.84618 1.246121,-1.40693 0.0766,-0.15933 0.135062,-0.32676 0.202592,-0.49013 0.40639,-1.12487 0.460692,-2.319762 0.481968,-3.502789 -0.0191,-0.750804 -0.06079,-1.508047 -0.212521,-2.245737 -0.08311,-0.404076 -0.146583,-0.580169 -0.265914,-0.971383 -0.242737,-0.753661 -0.603326,-1.397482 -1.115684,-1.996245 -0.383377,-0.410233 -0.817714,-0.769378 -1.249917,-1.126499 -0.384572,-0.307514 -0.826215,-0.495165 -1.303609,-0.598092 -0.268681,-0.03794 -0.674749,-0.07798 -0.926922,0.05138 -0.09686,0.0497 -0.182176,0.119246 -0.273264,0.178871 -0.237074,0.248274 -0.343195,0.567305 -0.46273,0.880052 -0.278995,0.730126 0.753559,1.124689 1.032558,0.394562 v 0 c 0.04,-0.104712 0.07794,-0.21022 0.119615,-0.314275 0.01445,-0.03607 0.03788,-0.06911 0.04598,-0.1071 0.0018,-0.0076 -0.01407,-0.0064 -0.02111,-0.0097 -0.03131,0.009 -0.06193,0.02094 -0.09394,0.02703 -0.06119,0.01164 0.04729,-0.02293 0.06704,-0.02544 0.09627,-0.01237 0.193711,-0.01161 0.288974,0.0071 0.302855,0.05798 0.578102,0.177333 0.823374,0.367773 0.384996,0.318034 0.772363,0.637051 1.118328,0.997921 0.409881,0.465599 0.702254,1.006259 0.894587,1.596977 0.09806,0.317302 0.164622,0.506394 0.232821,0.831849 0.140445,0.670227 0.17697,1.359107 0.197138,2.041526 -0.01796,1.047152 -0.0539,2.107139 -0.401172,3.106939 -0.199556,0.50526 -0.428441,1.05371 -0.918909,1.34178 -0.296774,0.0688 -0.337227,0.0247 -0.501855,-0.23844 -0.364623,-0.77522 -0.520735,-1.63128 -0.743378,-2.45291 -0.400497,-1.675757 -0.771467,-3.363143 -0.961589,-5.077728 -0.02209,-0.269519 -0.05011,-0.538618 -0.06623,-0.808559 -0.0399,-0.667791 -0.01196,-1.338972 -0.0775,-2.005438 -0.09695,-0.775581 -1.193788,-0.638477 -1.096842,0.137104 z" />
    <path
       style="fill:#ffffff;fill-opacity:0.99532;stroke:#ffffff;stroke-width:1.3983"
       id="path45"
       d="m 88.045785,92.054766 c 0.318745,0.981555 0.508779,1.992508 0.666112,3.01024 0.168761,1.254423 0.318412,2.511774 0.529254,3.760148 0.117939,0.698302 0.186631,1.017827 0.321061,1.689366 0.05747,0.2637 0.14689,0.68678 0.216713,0.96906 0.01623,0.0656 0.02776,0.13309 0.0541,0.19528 0.03345,0.0789 0.08271,0.15027 0.12408,0.22541 0.490008,0.60894 1.351191,-0.084 0.861183,-0.69298 v 0 c 0.02641,0.0565 0.02548,0.1379 0.0792,0.16963 0.04403,0.026 -0.02961,-0.0979 -0.04188,-0.14759 -0.0683,-0.27631 -0.15282,-0.676 -0.209538,-0.9359 -0.13007,-0.648984 -0.199024,-0.970194 -0.312935,-1.64389 -0.210949,-1.247586 -0.359424,-2.504322 -0.528901,-3.757874 -0.165753,-1.066353 -0.365725,-2.125774 -0.698526,-3.154652 -0.221856,-0.74947 -1.281768,-0.435718 -1.059911,0.313752 z" />
    <path
       style="fill:#ffffff;fill-opacity:0.99532;stroke:#ffffff;stroke-width:1.3983"
       id="path46"
       d="m 92.51686,91.186111 c 0.364188,0.998567 0.542383,2.055662 0.71964,3.100254 0.210228,1.305719 0.359355,2.620437 0.492478,3.935963 0.06461,0.78194 0.189625,1.561853 0.213213,2.346952 -0.0032,0.012 -0.0064,0.0239 -0.0096,0.0359 -0.08518,0.77696 1.013608,0.89743 1.098792,0.12047 v 0 c 0.0052,-0.0646 0.01039,-0.12912 0.01556,-0.19368 -0.02963,-0.809842 -0.145535,-1.614591 -0.218207,-2.421032 -0.135834,-1.340247 -0.287761,-2.679687 -0.502497,-4.009881 -0.196029,-1.150598 -0.390585,-2.319329 -0.820845,-3.409602 -0.349764,-0.698993 -1.338288,-0.20435 -0.988524,0.494641 z" />
    <path
       style="fill:#ffffff;fill-opacity:0.99532;stroke:#ffffff;stroke-width:1.3983"
       id="path47"
       d="m 129.49226,73.777983 c 2.68062,2.018767 5.16775,4.278183 7.66007,6.520925 2.32393,2.108242 4.65227,4.212325 6.77401,6.526522 0.80946,0.960906 1.7012,1.834778 2.66293,2.639308 0.0239,0.02062 0.34743,0.29141 0.39028,0.356981 0.009,0.01272 -0.0369,0.0072 -0.0399,0.02209 -0.0123,0.06184 -0.003,0.126078 -0.002,0.189092 0.0342,1.402045 0.0123,-0.45638 0.0263,1.364822 -0.0737,0.784326 0.002,1.684129 -0.38531,2.406155 -0.0842,0.157102 -0.22845,0.258815 -0.35907,0.37142 -0.94406,0.564673 -2.03807,0.412982 -3.07627,0.289465 -1.47439,-0.2994 -2.97132,-0.688084 -4.31652,-1.383502 -0.23939,-0.123762 -0.46387,-0.274465 -0.69581,-0.411697 -1.55055,-1.071003 -2.59548,-2.65283 -3.47964,-4.282782 -0.86838,-1.680469 -1.31279,-3.518108 -1.63235,-5.369407 -0.27524,-1.703501 -0.29226,-3.433223 -0.31438,-5.154345 6e-5,-0.866228 -0.0292,-1.732832 0.0172,-2.59813 0.0789,-1.561244 -2.12905,-1.672804 -2.20793,-0.11156 v 0 c -0.0439,0.912273 -0.0258,1.825084 -0.0199,2.738243 0.0239,1.838654 0.0479,3.685924 0.34695,5.505019 0.36646,2.088564 0.87946,4.158358 1.87012,6.049893 1.08856,1.981323 2.38816,3.869916 4.30862,5.134233 0.30112,0.172715 0.59409,0.360502 0.90336,0.518143 1.55063,0.790357 3.27005,1.237744 4.96917,1.56234 1.84228,0.203511 3.38008,0.258992 4.91048,-0.942876 0.16275,-0.178204 0.34495,-0.340416 0.48824,-0.534611 0.80197,-1.086904 0.82064,-2.518995 0.88362,-3.807306 -0.0167,-1.473648 0.0959,-2.626566 -1.16719,-3.607489 -0.88716,-0.74184 -1.70733,-1.549372 -2.45208,-2.437897 -2.1706,-2.365236 -4.54629,-4.521739 -6.92443,-6.675507 -2.57138,-2.313639 -5.1372,-4.64692 -7.9125,-6.716991 -1.3007,-0.867129 -2.527,0.972327 -1.22631,1.839452 z" />
    <path
       style="fill:#ffffff;fill-opacity:0.99532;stroke:#ffffff;stroke-width:1.3983"
       id="path48"
       d="m 161.1667,90.752727 c 2.46024,-0.726339 4.69913,-2.042372 6.95706,-3.229559 3.39656,-1.723663 6.69015,-3.632833 9.92158,-5.64605 1.28267,-0.786362 2.54072,-1.613141 3.84891,-2.356873 0.44507,-0.302554 0.93246,-0.511163 1.43745,-0.687053 0.28346,-0.0188 0.733,-0.357478 0.99651,-0.290007 -0.99041,0.01802 -1.20021,-0.760739 -0.94596,-1.543035 0.0149,-0.04588 -0.0817,0.05164 -0.11977,0.08123 -0.34644,0.235064 -0.67883,0.494562 -1.00131,0.762353 -0.84777,0.8795 -0.54552,1.864918 -0.18901,2.882354 0.37429,0.966379 0.70318,1.947221 1.04148,2.926488 0.37343,0.995002 0.58312,2.019423 0.69554,3.072418 0.0996,1.261214 0.10169,2.527361 0.10611,3.791682 0.0709,0.98118 -0.12745,1.884307 -0.53188,2.76984 -0.39463,0.84525 -0.93445,1.614595 -1.70645,2.148222 -0.78638,0.479809 -1.63341,0.843093 -2.49011,1.175048 -0.89968,0.348657 -1.85734,0.406363 -2.80991,0.451066 -1.23233,0.04146 -2.46404,0.07013 -3.69154,-0.05842 -1.12685,-0.163643 -2.21659,-0.514596 -3.2847,-0.900086 -0.88744,-0.363196 -1.73966,-0.806556 -2.56499,-1.293151 -0.82597,-0.492655 -1.536,-1.143659 -2.2342,-1.798069 -0.55813,-0.536229 -1.13851,-1.067562 -1.55302,-1.727428 -0.23003,-0.385908 -0.43714,-0.782298 -0.68415,-1.158284 -0.86469,-1.302311 -2.70644,-0.07945 -1.84175,1.222858 v 0 c 0.24784,0.366985 0.4318,0.769743 0.67288,1.141116 0.52959,0.798081 1.19009,1.488748 1.89483,2.135324 0.81784,0.765404 1.65614,1.517698 2.62511,2.090351 0.94468,0.553867 1.91846,1.061874 2.93694,1.467518 1.23808,0.44412 2.50153,0.844837 3.8095,1.019267 1.33766,0.132548 2.67831,0.119862 4.02089,0.06722 1.19032,-0.05806 2.38245,-0.157982 3.5036,-0.598161 1.03545,-0.402043 2.0594,-0.847369 2.9956,-1.451675 1.10517,-0.833431 1.84296,-1.774482 2.4227,-3.037167 0.51915,-1.196878 0.79944,-2.357543 0.72139,-3.673129 -0.004,-1.341423 -0.008,-2.684898 -0.11897,-4.022672 -0.1341,-1.21676 -0.3763,-2.404917 -0.80392,-3.555904 -0.34208,-0.989115 -0.67504,-1.979971 -1.0521,-2.956523 -0.18208,-0.477287 -0.0541,-0.108559 -0.18822,-0.589216 -0.0127,-0.04553 -1.1e-4,-0.117347 -0.0441,-0.134802 -0.0219,-0.0087 -0.14265,0.316221 -0.23617,0.287158 0.30201,-0.258523 0.62402,-0.49469 0.95034,-0.720843 0.19972,-0.159299 0.58222,-0.41421 0.64913,-0.672064 0.28543,-1.100011 0.0921,-1.713632 -1.15054,-1.802866 -0.53204,0.06462 -1.02738,0.239885 -1.53431,0.406829 -0.62678,0.222562 -1.23872,0.481409 -1.79585,0.850514 -1.33367,0.758767 -2.61794,1.599132 -3.92505,2.40222 -3.18558,1.984923 -6.4325,3.867034 -9.78136,5.565652 -2.10236,1.105459 -4.18435,2.335677 -6.46439,3.041565 -1.51656,0.379141 -0.98038,2.523882 0.53618,2.144741 z" />
    <path
       style="fill:#ffffff;fill-opacity:0.99532;stroke:#ffffff;stroke-width:1.3983"
       id="path49"
       d="m 141.92155,104.7605 c 0.30687,2.51098 0.91983,5.00401 1.79459,7.37915 0.19539,0.5305 0.42984,1.0458 0.64474,1.5687 0.73746,1.39598 1.59939,3.68345 3.35646,4.1043 1.51711,0.36338 2.10688,-0.1669 3.44792,-0.75155 2.7233,-1.79611 4.63049,-4.45193 6.67899,-6.92585 -0.97248,0.697 0.71867,-0.7774 0.63648,-0.51676 -0.0333,0.10545 -0.21121,0.11798 -0.24574,0.22309 -0.026,0.0789 0.0501,0.16109 0.0969,0.22971 0.15664,0.22918 0.34001,0.43889 0.51002,0.65834 0.21795,0.3268 0.43592,0.65358 0.65389,0.98037 1.24827,1.96213 2.21614,4.08809 3.59556,5.96555 0.28516,0.20333 0.52222,0.50229 0.85546,0.61 1.83352,0.59261 3.20317,-0.87044 4.36131,-2.02901 1.25627,-1.25675 2.50601,-2.78359 3.65168,-4.12924 2.32707,-2.85028 1.21267,-1.45684 3.34815,-4.17638 0.96533,-1.22956 -0.77353,-2.59476 -1.73887,-1.3652 v 0 c -2.09981,2.675 -1.00377,1.30406 -3.29298,4.10892 -1.33065,1.56472 -2.0728,2.49165 -3.47278,3.94233 -0.3788,0.39254 -0.7804,0.76259 -1.18026,1.13366 -0.15572,0.1445 -0.34533,0.25314 -0.48584,0.41248 -0.0468,0.0529 0.001,0.16493 -0.0577,0.20392 -0.059,0.0391 -0.14054,-0.0175 -0.21081,-0.0262 -1.37281,-1.84069 -2.27621,-3.97307 -3.53943,-5.88606 -0.62656,-0.92227 -1.51638,-2.49469 -2.70154,-2.80879 -1.14462,-0.30336 -1.80828,0.3013 -2.48679,1.05982 -1.84551,2.23155 -3.56037,4.62333 -5.93278,6.34238 -0.0502,0.0281 -1.20788,0.73496 -1.52505,0.75585 -0.54023,0.0356 -0.81513,-0.42667 -1.08509,-0.80402 -0.49308,-0.68927 -0.81163,-1.40006 -1.19395,-2.15574 -0.19599,-0.47182 -0.4107,-0.93629 -0.58798,-1.41546 -0.81509,-2.20309 -1.39052,-4.51527 -1.68935,-6.84378 -0.10988,-1.55936 -2.3152,-1.40392 -2.20528,0.15544 z" />
  </g>
</svg>
