<?xml version="1.0" encoding="UTF-8" standalone="no"?>
<!-- Created with Inkscape (http://www.inkscape.org/) -->

<svg
   width="210mm"
   height="210mm"
   viewBox="0 0 210 210"
   version="1.1"
   id="svg1"
   sodipodi:docname="noisy.svg"
   inkscape:version="1.3.2 (091e20ef0f, 2023-11-25, custom)"
   xmlns:inkscape="http://www.inkscape.org/namespaces/inkscape"
   xmlns:sodipodi="http://sodipodi.sourceforge.net/DTD/sodipodi-0.dtd"
   xmlns="http://www.w3.org/2000/svg"
   xmlns:svg="http://www.w3.org/2000/svg">
  <sodipodi:namedview
     id="namedview1"
     pagecolor="#505050"
     bordercolor="#eeeeee"
     borderopacity="1"
     inkscape:showpageshadow="0"
     inkscape:pageopacity="0"
     inkscape:pagecheckerboard="0"
     inkscape:deskcolor="#505050"
     inkscape:document-units="mm"
     inkscape:zoom="0.86060788"
     inkscape:cx="364.2774"
     inkscape:cy="422.95685"
     inkscape:window-width="1876"
     inkscape:window-height="998"
     inkscape:window-x="0"
     inkscape:window-y="0"
     inkscape:window-maximized="1"
     inkscape:current-layer="layer1" />
  <defs
     id="defs1" />
  <g
     inkscape:label="Layer 1"
     inkscape:groupmode="layer"
     id="layer1">
    <path
       style="fill:#ffffff;fill-opacity:0.99532;stroke:#ffffff;stroke-width:1.265"
       id="path4"
       d="m 61.212171,100.35248 c 0.685038,0.0324 0.443066,0.0248 1.411555,0.0396 0.46161,0.007 0.923655,-0.003 1.384892,0.0167 1.911647,0.0825 3.545832,0.24865 5.482048,0.43273 1.303853,0.12396 2.606871,0.25654 3.910306,0.38481 4.203928,0.45195 8.422087,0.74407 12.638984,1.04038 1.410737,0.0991 1.550901,-1.89597 0.140163,-1.99508 v 0 C 81.981801,99.976726 77.782207,99.686153 73.59683,99.235941 70.415281,98.922896 67.228661,98.546606 64.032672,98.40893 c -0.456314,-0.01966 -0.913424,-0.0097 -1.370111,-0.01646 -0.90842,-0.01349 -0.679489,-0.0064 -1.298993,-0.03425 -1.410157,-0.107056 -1.561552,1.88721 -0.151397,1.99426 z" />
    <path
       style="fill:#ffffff;fill-opacity:0.99532;stroke:#ffffff;stroke-width:1.265"
       id="path5"
       d="m 109.45271,103.90612 c 3.09537,-0.0368 6.18775,-0.20291 9.28268,-0.2706 1.34606,-0.0294 2.69241,-0.0431 4.03861,-0.0646 6.25841,-0.0554 12.51649,0.0703 18.7735,0.18717 1.41396,0.0264 1.45131,-1.97324 0.0374,-1.99965 v 0 c -6.28013,-0.11731 -12.56135,-0.24325 -18.84289,-0.18726 -1.35469,0.0217 -2.70953,0.0355 -4.06407,0.0652 -3.07577,0.0673 -6.14902,0.23176 -9.22518,0.26977 -1.41422,0 -1.41422,2 0,2 z" />
    <path
       style="fill:#ffffff;fill-opacity:0.99532;stroke:#ffffff;stroke-width:1.265"
       id="path6"
       d="m 82.300441,115.1497 c 0.514803,1.00957 0.874178,2.08067 1.199968,3.16271 0.448318,1.42966 0.782595,2.90576 1.348182,4.29719 0.07714,0.18978 0.170574,0.37254 0.255862,0.55881 0.127857,0.17095 0.220004,0.37568 0.383572,0.51285 0.553098,0.46385 0.948124,0.53783 1.66533,0.32642 0.615452,-0.18141 1.358495,-1.0297 1.791438,-1.47613 1.334643,-1.47331 2.787137,-2.83204 4.262501,-4.16197 0.111003,-0.0965 0.702,-0.6235 0.88388,-0.74057 0.04,-0.0258 0.178856,-0.0584 0.13898,-0.0325 -0.09088,0.0592 -0.194471,0.0969 -0.296095,0.13472 -0.04633,0.0173 -0.1286,-0.0169 -0.145327,0.0296 -0.02127,0.0591 0.04803,0.11614 0.07205,0.17421 0.502891,0.9316 0.866029,1.9303 1.250802,2.91409 1.126805,2.881 -0.268793,-0.67406 0.840502,2.14911 0.350589,0.80299 0.622308,1.65017 1.059325,2.4142 0.178242,0.31162 0.504357,0.81313 0.866106,0.94732 0.31002,0.11499 0.656259,0.0817 0.98439,0.12252 0.303128,-0.17838 0.633918,-0.31646 0.909386,-0.53515 0.319797,-0.25388 1.080937,-1.21201 1.328097,-1.51972 0.79965,-0.99559 1.5729,-2.01055 2.34107,-3.03045 0.73439,-0.97598 1.441,-1.97211 2.14261,-2.97173 0.81244,-1.15756 -0.8246,-2.30652 -1.63704,-1.14896 v 0 c -0.68875,0.98136 -1.38224,1.95941 -2.10321,2.91755 -0.75288,0.99986 -1.51214,1.99339 -2.294258,2.97068 -0.190254,0.23773 -0.380278,0.47571 -0.575638,0.70925 -0.141581,0.16926 -0.322652,0.30908 -0.435033,0.49898 -0.02413,0.0408 0.0433,0.0843 0.06495,0.1264 0.129866,0.0667 0.271629,0.11418 0.389596,0.20022 0.02365,0.0172 0.02635,0.1078 0.0051,0.0877 -0.18157,-0.17204 -0.39434,-0.64531 -0.471646,-0.8129 -0.220353,-0.47773 -0.521878,-1.23851 -0.712354,-1.70731 -0.414541,-1.05498 -0.819462,-2.11398 -1.240525,-3.16638 -0.243118,-0.60764 -0.436219,-1.10095 -0.72702,-1.68043 -0.107836,-0.21489 -0.231362,-0.42154 -0.347046,-0.63231 -0.355528,-0.45296 -0.562382,-0.86265 -1.184714,-1.01997 -1.070967,-0.27075 -1.731325,0.50051 -2.446131,1.1164 -1.509668,1.36118 -2.995896,2.7519 -4.362625,4.25876 -0.157077,0.16382 -0.310861,0.33086 -0.471236,0.49144 -0.111321,0.11148 -0.234653,0.21072 -0.343606,0.3245 -0.03544,0.037 -0.119161,0.0855 -0.08789,0.12614 0.06129,0.0796 0.196429,0.0588 0.276781,0.11912 0.03369,0.0253 0.286975,0.35801 0.03817,0.12043 -0.06304,-0.13243 -0.133659,-0.26151 -0.189111,-0.39729 -0.12528,-0.30678 -0.377925,-1.06926 -0.468323,-1.35114 -0.301884,-0.94136 -0.567721,-1.89348 -0.845328,-2.84212 -0.360531,-1.18951 -0.758912,-2.36695 -1.324946,-3.47731 -0.631478,-1.2654 -2.421022,-0.37236 -1.789546,0.89304 z" />
    <path
       style="fill:#ffffff;fill-opacity:0.99532;stroke:#ffffff;stroke-width:1.265"
       id="path7"
       d="m 154.30742,88.973945 c -0.55551,0.80532 -1.03151,1.712682 -1.18787,2.690757 -0.0419,0.262133 -0.0427,0.529201 -0.0641,0.7938 0.0389,0.969584 0.21774,1.980719 0.82099,2.775083 0.3956,0.520932 0.57838,0.589457 1.09839,0.95106 0.22143,0.0979 0.43302,0.222041 0.66427,0.293698 0.96612,0.299366 2.05404,0.18763 2.94889,-0.278677 0.21133,-0.110128 0.39844,-0.261541 0.59766,-0.392311 0.16787,-0.175747 0.36332,-0.328777 0.5036,-0.527243 0.79749,-1.128292 0.80117,-2.605649 0.80169,-3.925189 -0.0435,-1.633175 -0.22703,-3.258249 -0.35473,-4.886087 -0.12713,-1.716633 -0.21611,-3.434699 -0.26766,-5.155179 -0.004,-0.665805 -0.0501,-1.332362 -0.03,-1.998395 0.003,-0.109813 0.007,-0.22026 0.0243,-0.328697 0.002,-0.01011 0.0341,-0.01527 0.0302,-0.0058 -0.0494,0.119113 -0.11442,0.231143 -0.17163,0.346716 0.22797,0.4368 -0.4398,0.07119 -0.45382,0.242062 -0.004,0.04768 1.29491,0.530426 1.37571,0.560993 0.97517,0.349589 1.97078,0.648793 2.98651,0.854512 1.05726,0.185594 2.13094,0.232693 3.20154,0.271108 1.14569,0.0195 2.28911,0.09941 3.43363,0.149947 0.76325,0.04973 1.5264,0.01643 2.2899,0.01071 0.20162,0.09155 -0.26441,-0.07236 -0.39198,-0.180591 -0.0704,-0.05976 -0.11659,-0.143782 -0.16654,-0.221485 -0.0229,-0.03569 -0.0114,-0.100981 -0.0508,-0.116687 -0.0298,-0.01185 -5.2e-4,0.06405 -7.9e-4,0.09608 -0.006,0.685535 -0.0151,1.371041 -0.0202,2.056595 -0.006,0.956437 -0.007,1.912895 -0.007,2.869348 -2.7e-4,0.754949 -2.4e-4,1.509895 -1.7e-4,2.264842 -0.0208,0.545732 0.009,1.085908 0.0766,1.627007 0.006,0.292899 0.12475,0.620001 0.0418,0.908061 -0.0565,0.189206 -0.0542,0.479525 -0.20527,0.632118 -0.008,0.0083 0.003,-0.02614 -0.005,-0.03478 -0.006,-0.0069 -0.0188,-0.0013 -0.0282,-0.0019 -0.33261,0.07182 -0.67217,0.09368 -1.01163,0.110043 -0.40742,-0.04243 -0.89747,0.01675 -1.26524,-0.200703 -0.17205,-0.273447 -0.24006,-0.591105 -0.29491,-0.908237 -0.0878,-0.607971 -0.10366,-1.222799 -0.10922,-1.836058 -2.2e-4,-0.252577 -0.006,-0.141573 0.0104,-0.333351 0.0959,-1.410957 -1.89946,-1.546635 -1.99539,-0.135678 v 0 c -0.0197,0.335179 -0.0153,0.172585 -0.015,0.487732 0.007,0.734711 0.0297,1.471444 0.14577,2.198407 0.20545,0.996352 0.52475,1.829306 1.45479,2.358692 0.12404,0.05017 0.24526,0.107992 0.37213,0.150498 0.57457,0.192489 1.20019,0.198892 1.79813,0.216117 0.75823,-0.04011 1.52524,-0.104543 2.16825,-0.552781 0.10229,-0.09099 0.21498,-0.171484 0.30687,-0.272973 0.4046,-0.446879 0.56231,-1.042681 0.65746,-1.622137 0.0453,-0.473527 0.0336,-0.939575 -0.0409,-1.410674 -0.0574,-0.459351 -0.082,-0.915749 -0.0612,-1.379659 -7e-5,-0.75443 -2e-4,-1.508863 1.6e-4,-2.263293 5.3e-4,-0.951931 0.001,-1.903868 0.007,-2.855783 0.005,-0.713798 0.0168,-1.427559 0.019,-2.141352 -0.0474,-0.945489 -0.40941,-1.449121 -1.4042,-1.507427 -0.72892,0.0059 -1.45736,0.03903 -2.18609,-0.0088 -1.15015,-0.05069 -2.29918,-0.131094 -3.4505,-0.15062 -0.96273,-0.03412 -1.92817,-0.07337 -2.87995,-0.233413 -0.90954,-0.179728 -1.79846,-0.456268 -2.67202,-0.764211 -0.18282,-0.06909 -0.62638,-0.23485 -0.82383,-0.31599 -0.45832,-0.188349 -0.96049,-0.472474 -1.48123,-0.383026 -0.22833,0.03922 -0.42881,0.175537 -0.64322,0.263305 -0.13986,0.188084 -0.31137,0.356344 -0.41958,0.564253 -0.11964,0.22986 -0.13692,0.672423 -0.14422,0.922187 -0.0201,0.687615 0.0265,1.375735 0.0308,2.063109 0.0527,1.75268 0.14329,3.502941 0.2729,5.251699 0.1239,1.577425 0.30059,3.152159 0.3486,4.734449 0.005,0.78573 -0.008,1.556485 -0.21354,2.319742 -0.0251,0.09295 -0.0443,0.189013 -0.0863,0.275622 -0.0379,0.07812 -0.10043,0.14169 -0.15065,0.212537 -0.081,0.06495 -0.1548,0.14007 -0.243,0.194845 -0.39183,0.243345 -0.93763,0.36663 -1.39453,0.267398 -0.11445,-0.02487 -0.22073,-0.07841 -0.3311,-0.117613 -0.17324,-0.09928 -0.3618,-0.187856 -0.49966,-0.339203 -0.38934,-0.427432 -0.46724,-1.044091 -0.52044,-1.592199 0.004,-0.148868 -0.007,-0.298921 0.012,-0.446606 0.0936,-0.721255 0.45474,-1.388486 0.85785,-1.979361 0.8351,-1.14132 -0.77896,-2.32233 -1.61406,-1.181011 z" />
    <path
       style="fill:#ffffff;fill-opacity:0.99532;stroke:#ffffff;stroke-width:1.265"
       id="path8"
       d="m 51.604081,82.657947 c 0.05332,-0.749414 -0.01413,-1.525548 -0.220562,-2.25048 -0.04144,-0.145518 -0.09886,-0.286001 -0.148288,-0.429001 -0.396769,-0.813104 -0.872215,-1.222515 -1.846789,-1.112083 -0.446011,0.05054 -0.732652,0.26566 -1.109789,0.479758 -0.71795,0.54369 -1.181698,1.29049 -1.342364,2.179992 -0.103058,0.570551 -0.05949,0.833112 -0.03321,1.402713 0.09645,0.808984 0.301043,1.606251 0.785929,2.275107 0.0999,0.137795 0.199895,0.281061 0.333171,0.386911 0.201526,0.160057 0.439648,0.267644 0.659472,0.401465 0.242048,0.05144 0.479314,0.136758 0.726141,0.154318 0.998093,0.071 2.183648,-0.383606 2.892676,-1.0834 0.226105,-0.22316 0.397243,-0.495882 0.595865,-0.74382 0.146101,-0.297696 0.318424,-0.583901 0.438299,-0.893091 0.281863,-0.726992 0.389567,-1.406117 0.50683,-2.174708 0.166611,-1.092028 0.242173,-2.193814 0.328025,-3.294152 0.159769,-2.178804 0.319006,-4.357762 0.442119,-6.538995 0.07376,-1.359474 0.110855,-2.720509 0.127656,-4.081766 0.006,-0.573982 0.004,-1.147998 0.0029,-1.721996 0.0049,-0.518205 -0.05512,-1.033894 -0.08194,-1.550913 -0.01532,-0.32243 -0.02291,-0.645139 -0.02736,-0.967875 -0.01958,-1.414079 -2.019401,-1.386372 -1.999808,0.02771 v 0 c 0.0049,0.348461 0.01318,0.696891 0.02992,1.045011 0.02564,0.483487 0.08053,0.965809 0.07919,1.450208 0.0011,0.564412 0.0031,1.12884 -0.0027,1.693233 -0.01635,1.331904 -0.05257,2.663595 -0.124635,3.993761 -0.122147,2.166969 -0.280699,4.331652 -0.439245,6.496211 -0.08102,1.040569 -0.156107,2.079808 -0.305631,3.113466 -0.08854,0.612053 -0.156342,1.089038 -0.349128,1.66824 -0.06156,0.184952 -0.151278,0.35931 -0.226917,0.538964 -0.08067,0.126053 -0.145582,0.263708 -0.242004,0.378159 -0.372237,0.441833 -0.949833,0.605586 -1.496634,0.692306 -0.08752,0.105333 -0.04136,0.0889 -0.193466,-0.08557 -0.311383,-0.357156 -0.38558,-0.844214 -0.462058,-1.295048 -0.04931,-0.635903 -0.07365,-1.291151 0.427487,-1.763335 0.0539,-0.04183 0.106159,-0.08587 0.161706,-0.125499 0.03522,-0.02514 0.123989,-0.02748 0.110233,-0.0685 -0.01942,-0.05789 -0.114083,-0.04771 -0.161933,-0.08565 -0.06512,-0.05162 -0.12169,-0.114168 -0.172781,-0.179702 -0.0058,-0.0075 0.02032,-0.01217 0.02778,-0.0063 0.02638,0.02085 0.04231,0.05224 0.06347,0.07837 0.22587,0.560954 0.292396,1.195226 0.258474,1.795714 -0.141597,1.407107 1.848356,1.607354 1.98995,0.200247 z" />
    <path
       style="fill:#ffffff;fill-opacity:0.99532;stroke:#ffffff;stroke-width:1.265"
       id="path19"
       d="m 54.182446,104.80898 c -0.861467,0.47104 -1.625021,1.14154 -2.205014,1.93626 -0.114204,0.15649 -0.209272,0.32609 -0.313909,0.48913 -0.07255,0.17615 -0.168082,0.34451 -0.217657,0.52846 -0.221568,0.82212 0.08646,1.60047 0.718185,2.14339 0.130799,0.11241 0.282863,0.1974 0.424296,0.2961 0.634394,0.3523 1.345301,0.55307 2.065803,0.32659 0.578403,-0.18181 0.681017,-0.34965 1.127583,-0.73462 0.613743,-0.71718 1.042517,-1.60846 0.998506,-2.57398 -0.0085,-0.18762 -0.05394,-0.37175 -0.0809,-0.55763 -0.20524,-0.65689 -0.560436,-1.38641 -1.231469,-1.68625 -0.162092,-0.0724 -0.34009,-0.10206 -0.510138,-0.1531 -0.19499,0.0152 -0.394779,-9e-5 -0.58497,0.0455 -0.940686,0.2255 -1.340527,1.16578 -1.597755,1.98952 -0.165066,0.65762 -0.262528,1.37182 0.02286,2.01337 0.05041,0.11332 0.123767,0.21496 0.18565,0.32244 0.609716,0.78047 0.420447,0.46581 1.488416,-1.27176 0.02701,-0.0439 -0.570391,-0.36373 -0.625176,-0.39185 -0.508622,-0.27019 -0.98856,-0.36069 -1.559856,-0.33975 -0.169913,0.0538 -0.348959,0.0846 -0.509741,0.1615 -0.737767,0.353 -1.197414,1.15397 -1.620017,1.81241 -0.765239,1.18731 -1.230175,2.53354 -1.665616,3.86805 -0.649504,1.84389 -0.981205,3.69738 -1.194752,5.63361 -0.02133,0.36553 -0.0589,0.73048 -0.06395,1.09659 -0.02072,1.50231 0.140761,3.25938 0.518377,4.71594 0.12686,0.48933 0.29455,0.96716 0.441825,1.45074 1.271865,3.3273 3.088153,6.42472 5.144823,9.32477 0.343508,0.48437 0.707861,0.95362 1.061788,1.43042 1.165554,1.52202 2.511955,2.88195 4.09425,3.96933 0.793607,0.54539 1.440143,0.89248 2.273237,1.36874 3.281823,1.87159 6.711286,3.4717 10.22409,4.85879 1.047919,0.41379 2.10726,0.79805 3.160889,1.19708 5.242751,1.94193 10.610324,3.51116 15.923533,5.24246 1.335936,0.44573 2.662869,0.92287 3.951052,1.4938 0.470582,0.20856 0.932698,0.4263 1.360548,0.71254 0.02532,0.022 0.05066,0.0439 0.076,0.0659 1.108395,0.87833 2.350537,-0.68918 1.242142,-1.56751 v 0 c -0.07637,-0.0586 -0.152752,-0.11726 -0.229126,-0.17589 -1.769206,-1.12763 -3.828995,-1.71353 -5.781014,-2.43043 -5.283541,-1.72143 -10.620943,-3.2822 -15.835029,-5.21131 -1.035592,-0.3919 -2.076733,-0.76944 -3.106777,-1.17569 -3.434215,-1.35447 -6.787065,-2.91724 -9.99495,-4.74675 -0.744657,-0.42423 -1.367412,-0.75934 -2.076551,-1.24062 -1.425535,-0.96748 -2.630283,-2.18833 -3.676925,-3.55324 -0.338103,-0.45457 -0.686242,-0.90184 -1.014304,-1.36371 -1.943428,-2.73607 -3.665514,-5.65478 -4.88629,-8.78742 -0.131115,-0.42022 -0.280842,-0.83509 -0.393346,-1.26067 -0.340148,-1.28672 -0.495136,-2.8737 -0.481489,-4.20328 0.0034,-0.33148 0.03689,-0.66197 0.05533,-0.99296 0.193715,-1.7846 0.505341,-3.53455 1.10843,-5.23223 0.380876,-1.17345 0.779658,-2.36343 1.448559,-3.40925 0.196419,-0.30823 0.223478,-0.35958 0.430435,-0.65089 0.05187,-0.073 0.104063,-0.1459 0.160158,-0.21571 0.04802,-0.0598 0.206311,-0.15866 0.134815,-0.1863 -0.0381,-0.0147 -0.08163,-0.003 -0.122449,-0.005 0.03193,-0.0786 0.464188,0.10644 0.520962,0.14153 0.05827,0.0237 0.07623,0.0281 0.131487,0.0635 0.02768,0.0177 0.05544,0.0791 0.08016,0.0574 0.288232,-0.25262 1.052293,-1.94529 1.49865,-1.33321 0.0033,0.004 -0.0098,-0.005 -0.01474,-0.008 -0.0024,0.0196 -0.004,0.0716 -0.01685,0.0567 -0.116925,-0.13647 0.03112,-0.59563 0.04819,-0.73619 0.09021,-0.34041 0.03062,-0.14942 0.140726,-0.44729 0.01355,-0.0366 0.03887,-0.0713 0.03936,-0.11034 0.0011,-0.0846 -0.320408,0.0119 -0.274979,-0.0778 -0.04445,-0.0281 -0.09328,-0.0502 -0.133342,-0.0842 -0.0062,-0.005 -0.0019,-0.0241 0.0063,-0.0237 0.01841,8e-4 0.03447,0.0144 0.04871,0.0261 0.09951,0.0817 0.156382,0.20102 0.212477,0.31347 0.151077,0.47013 -0.05066,0.93499 -0.325324,1.31966 -0.245978,0.33185 -0.308808,0.3837 -0.724196,0.18608 -0.07504,-0.0393 -0.242652,-0.1498 -0.27721,-0.12306 -0.02532,0.0196 -0.01945,0.0668 -0.04642,0.084 -0.05575,0.0356 -0.139393,-0.37726 0.003,-0.19835 0.398539,-0.67822 0.973341,-1.25358 1.647373,-1.66062 1.28774,-0.58457 0.461028,-2.40571 -0.826712,-1.82114 z" />
    <path
       style="fill:#ffffff;fill-opacity:0.99532;stroke:#ffffff;stroke-width:1.265"
       id="path20"
       d="m 151.98398,112.31642 c 0.0179,-0.0429 0.0265,-0.091 0.0537,-0.12872 0.0617,-0.0855 0.72702,-0.27907 0.77655,-0.29134 0.11435,-0.0284 0.23253,-0.0381 0.34879,-0.0571 0.34729,-0.01 0.45425,0.0279 0.60601,0.32208 0.16309,0.31615 0.10175,0.16968 0.20365,0.52838 0.088,0.58659 -0.15544,0.81386 -0.66527,1.02174 -0.0258,0.006 -0.24665,0.10032 -0.30591,0.0101 -0.0102,-0.0155 0.0563,-0.11456 0.0585,-0.12325 0.0214,-0.0833 0.008,-0.17186 0.009,-0.25785 0.004,-0.1078 0.12915,-0.72845 0.25421,-0.35109 0.0125,0.0153 0.0251,0.0306 0.0376,0.0459 0.024,0.0172 0.0531,0.0288 0.0719,0.0515 0.009,0.0108 0.0189,0.0394 0.005,0.0418 -0.0319,0.006 -0.068,-0.006 -0.0935,-0.0264 -0.12731,-0.0999 -0.12588,-0.15408 -0.17442,-0.2929 -0.0125,-0.0149 -0.0184,-0.0413 -0.0375,-0.0447 -0.0281,-0.005 -0.054,0.0231 -0.0826,0.0231 -0.0265,-4e-5 -0.0496,-0.0215 -0.076,-0.0233 -0.1316,-0.009 -0.24476,0.0438 -0.32834,-0.0809 -0.009,-0.0181 -0.0316,-0.0343 -0.0282,-0.0544 0.0113,-0.0659 0.1295,0.0627 0.15864,0.12287 0.12977,0.26817 0.0539,0.48667 -0.0885,0.72117 -0.2058,0.23132 -0.54602,0.2264 -0.80042,0.0802 -0.0115,-0.009 -0.0343,-0.0398 -0.0344,-0.0255 -2.5e-4,0.0416 0.0255,0.0793 0.0339,0.12001 0.0243,0.11794 0.0588,0.41789 0.0664,0.50414 0.0414,0.46917 0.0318,0.48126 0.0372,0.96792 0.0144,1.24651 -0.18627,2.48081 -0.39438,3.70569 -0.27483,1.65198 -0.90126,3.20782 -1.53908,4.74627 -0.5569,1.26921 -1.13529,2.54688 -1.92102,3.69489 -0.14398,0.21037 -0.30081,0.41166 -0.45121,0.61749 -1.12247,1.41435 -2.4283,2.67358 -3.83276,3.80406 -1.53829,1.18347 -3.28934,2.02411 -5.06023,2.79336 -2.56846,1.0376 -5.20028,1.90513 -7.8251,2.78636 -3.04689,1.00358 -6.06337,2.09594 -9.08231,3.17981 -2.00664,0.74558 -4.02456,1.46222 -6.00654,2.27179 -1.67522,0.71445 -3.34363,1.44277 -5.03105,2.12835 -1.24067,0.52769 -2.47088,1.09844 -3.63994,1.77284 -0.90063,0.51955 -1.26017,0.77873 -2.12194,1.35255 -1.12083,0.78483 -2.20767,1.62863 -3.07501,2.69562 -0.37268,0.45846 -0.56896,0.77897 -0.88996,1.26395 -0.38825,0.66148 -0.84516,1.30082 -1.11571,2.02479 -0.166016,0.44428 -0.187034,0.62333 -0.28298,1.07704 -0.062,0.40361 -0.114755,0.80826 -0.160126,1.21401 -0.155932,1.40559 1.831876,1.62611 1.987806,0.22052 v 0 c 0.038,-0.34562 0.0848,-0.68991 0.13189,-1.03442 0.0421,-0.21762 0.0805,-0.4619 0.15457,-0.67286 0.21861,-0.62253 0.63365,-1.1593 0.9544,-1.72836 0.3649,-0.55624 0.72999,-1.11606 1.19414,-1.59751 0.66087,-0.68553 1.44508,-1.23998 2.21048,-1.79874 0.77891,-0.52008 1.15397,-0.78858 1.96471,-1.25784 1.10442,-0.63925 2.26782,-1.17905 3.44053,-1.6787 1.68864,-0.68616 3.3587,-1.41413 5.03482,-2.12989 1.95494,-0.79944 3.94655,-1.50418 5.92572,-2.24078 3.0059,-1.07918 6.00929,-2.16701 9.04305,-3.16617 2.67945,-0.8996 5.36607,-1.78556 7.98654,-2.84846 1.93452,-0.84315 3.84351,-1.77031 5.51902,-3.07146 1.53683,-1.2454 2.97238,-2.62307 4.19377,-4.18395 0.17368,-0.24003 0.35466,-0.47493 0.52102,-0.72009 0.84628,-1.24712 1.48071,-2.62606 2.08127,-4.00303 0.69383,-1.67747 1.36637,-3.37616 1.66307,-5.17703 0.22771,-1.345 0.44122,-2.70043 0.42233,-4.06898 -0.0155,-0.91031 -0.0159,-1.86951 -0.46671,-2.6879 -0.0711,-0.0903 -0.13264,-0.18907 -0.21329,-0.27098 -0.584,-0.59315 -1.32866,-0.61068 -1.98213,-0.12566 -0.27537,0.32675 -0.42486,0.41435 -0.478,0.8825 -0.0907,0.79882 0.4885,1.35903 1.13888,1.68359 0.20035,0.0552 0.3953,0.13629 0.60104,0.1655 0.79658,0.11308 1.7112,-0.21043 2.20312,-0.85832 0.1303,-0.17161 0.20835,-0.37724 0.31252,-0.56587 0.0295,-0.23048 0.10953,-0.46003 0.0886,-0.69146 -0.075,-0.82765 -0.77412,-1.42367 -1.55426,-1.56748 -0.19871,-0.0366 -0.40304,-0.0297 -0.60455,-0.0445 -0.56063,0.12839 -0.74253,0.0979 -1.19575,0.49499 -0.6634,0.5812 -0.79337,1.47086 -0.71595,2.29777 0.17049,0.57359 0.17631,0.83952 0.61121,1.29308 0.52062,0.54296 1.22747,0.71856 1.95002,0.57465 0.19168,-0.0382 0.36987,-0.12645 0.5548,-0.18967 0.50496,-0.28874 0.7042,-0.34662 1.09538,-0.8087 0.64554,-0.76252 0.75574,-1.71925 0.51967,-2.65999 -0.20908,-0.5315 -0.25608,-0.78109 -0.63085,-1.22363 -0.66234,-0.78209 -1.45196,-1.0092 -2.44339,-0.91247 -0.21024,0.0446 -0.42427,0.0741 -0.63073,0.13387 -0.97154,0.28104 -1.84496,0.85031 -2.11766,1.87142 -0.30755,1.38037 1.64459,1.81531 1.95214,0.43494 z" />
    <path
       style="fill:#ffffff;fill-opacity:0.99532;stroke:#ffffff;stroke-width:1.265"
       id="path21"
       d="m 95.276648,156.67665 c -0.100584,1.60718 -0.0995,3.21708 -0.05267,4.82594 0.09893,1.30669 0.110487,2.63335 0.447665,3.90662 0.248978,0.62506 0.590423,0.99496 1.319638,1.06924 0.434393,0.0443 1.143738,-0.31978 1.546889,-0.48226 0.938038,-0.3453 1.87736,-0.68468 2.85285,-0.90726 0.6738,-0.15804 1.33837,-0.28484 1.74449,-0.9284 0.27575,-0.43698 0.27336,-0.96095 0.3232,-1.44813 0.0428,-1.71141 0.0711,-3.42808 -0.0556,-5.13654 -0.073,-0.68086 -0.1048,-1.46229 -0.67935,-1.94691 -0.43376,-0.36586 -0.74177,-0.34957 -1.25343,-0.42957 -1.16062,-0.028 -2.325989,-0.0114 -3.484933,0.0626 -0.641212,0.0587 -1.104241,0.17778 -1.492091,0.80191 -0.295489,0.47551 -0.301821,1.79568 -0.341625,2.35532 -0.102327,1.37789 -0.31015,2.744 -0.336338,4.12687 0.101102,0.89698 -0.0065,0.88737 2.054206,0.19634 0.192405,-0.0645 0.08004,-0.3979 0.118957,-0.59707 0.136708,-0.69966 0.277035,-1.39717 0.429482,-2.09362 0.04837,-0.21883 0.0942,-0.43824 0.1451,-0.65649 0.07193,-0.30847 0.153353,-0.64074 0.254598,-0.94349 0.03042,-0.091 0.0644,-0.18093 0.104056,-0.26825 0.06323,-0.13923 0.04804,-0.15397 0.08002,-0.1031 -0.431221,0.0838 -0.862439,0.16761 -1.293656,0.25142 -0.11792,-0.11732 -0.190397,-0.38335 -0.353754,-0.35197 -0.138218,0.0265 -0.0047,0.28149 -0.0113,0.42208 -0.0372,0.78924 -0.10364,1.57748 -0.160465,2.36545 -0.03863,0.64236 -0.112493,1.28783 -0.07782,1.93259 0.0077,0.1434 0.01069,0.28935 0.04725,0.42822 0.04532,0.17222 0.02686,0.44181 0.196204,0.4969 0.533061,0.17342 1.118595,0.0752 1.67789,0.1128 0.149957,-0.25888 0.322656,-0.50586 0.449868,-0.77664 0.152429,-0.32446 0.498261,-1.43329 0.593281,-1.743 0.23816,-0.77619 0.45501,-1.55601 0.71261,-2.32612 0.0536,-0.13648 0.0989,-0.27651 0.16076,-0.40943 0.009,-0.0186 0.0319,-0.0258 0.0479,-0.0386 -0.3744,0.14229 -0.72338,0.45032 -1.12322,0.42686 -0.259852,-0.0152 -0.335573,-0.42836 -0.576625,-0.52659 -0.08689,-0.0354 -0.01791,0.1868 -0.02838,0.28004 -0.01918,0.17098 -0.04038,0.34172 -0.06057,0.51258 -0.06422,0.55527 -0.162877,1.10637 -0.209484,1.66373 -0.01323,0.15804 -0.04186,0.61357 -0.01423,0.79145 0.02328,0.14987 0.07607,0.29364 0.114109,0.44046 0.551815,0.106 1.10162,0.41295 1.65545,0.31801 0.36417,-0.0624 0.55553,-1.69384 0.64553,-2.05031 -0.14841,0.63711 -0.042,0.32089 -1.713142,0.28153 -0.08786,-0.002 -0.05429,-0.19359 -0.136041,-0.22586 -0.05241,-0.0207 -0.0062,0.11252 -0.0084,0.16882 -0.0045,0.11226 -0.0079,0.22456 -0.01185,0.33684 -0.0058,0.1368 -0.01151,0.2736 -0.01728,0.4104 -0.02299,0.52077 -0.01156,0.27219 -0.03408,0.74574 -0.06717,1.41262 1.930573,1.50761 1.997743,0.095 v 0 c 0.0229,-0.48172 0.0113,-0.22948 0.0346,-0.75676 0.011,-0.26297 0.12009,-1.81688 -0.17086,-1.8989 -0.56673,-0.15977 -1.18721,-0.0408 -1.764953,0.0729 -0.104902,0.0206 -0.07937,0.19854 -0.119057,0.29782 -0.07812,0.32911 -0.133448,0.65807 -0.188304,0.99166 -0.01246,0.0758 -0.116281,0.21697 -0.04013,0.22682 0.09768,0.0127 0.142253,-0.13626 0.213381,-0.20439 0.504089,0.14753 1.008183,0.29506 1.512263,0.4426 0.01,0.077 0.004,0.15769 0.0296,0.23098 0.0195,0.0558 -0.0113,-0.11796 -0.0108,-0.1771 8e-4,-0.10812 0.006,-0.21626 0.0151,-0.32403 0.0451,-0.5531 0.14675,-1.0995 0.20805,-1.65069 0.0732,-0.66047 0.36284,-1.99809 -0.5576,-2.34106 -1.160769,-0.43253 -1.484114,0.54574 -1.746612,1.23667 -0.259427,0.7796 -0.481391,1.56767 -0.721447,2.35327 -0.08784,0.28746 -0.177949,0.57426 -0.272466,0.85959 -0.07008,0.21158 -0.162401,0.41601 -0.221279,0.63097 -0.01421,0.0519 0.0028,0.10759 0.0043,0.16139 2.622894,0.67376 1.100815,-0.16343 1.462739,0.61476 0.02873,0.0618 -0.02767,-0.13391 -0.03182,-0.20192 -0.03592,-0.58908 0.04111,-1.17917 0.07277,-1.76606 0.06004,-0.83266 0.145748,-1.66999 0.165639,-2.50488 0.01019,-0.42775 0.05335,-1.46158 -0.451905,-1.6871 -0.447059,-0.19955 -0.975477,0.0847 -1.463215,0.12702 -0.06762,0.0948 -0.143092,0.18442 -0.202845,0.28435 -0.449459,0.75161 -0.544727,1.66314 -0.760915,2.49373 -0.156234,0.71472 -0.307584,1.42983 -0.440828,2.14927 -0.02379,0.1284 -0.187262,0.3351 -0.067,0.38596 1.808374,0.76478 1.990394,-0.25747 1.858666,0.42217 0.02228,-1.34739 0.24148,-2.67767 0.331629,-4.02085 0.019,-0.26783 0.03733,-0.53571 0.05698,-0.8035 0.02373,-0.32347 0.102632,-0.65426 -0.02371,-0.61867 -0.138615,0.039 -0.256376,0.13146 -0.387364,0.19131 -0.01773,0.008 0.03096,-0.0237 0.04644,-0.0356 0.09224,-0.0122 0.184479,-0.0245 0.276718,-0.0368 1.040063,-0.0698 2.085335,-0.0726 3.127315,-0.0713 0.35932,-0.014 0.0234,-0.0442 5.2e-4,-0.35634 -0.004,-0.0496 0.0424,0.0904 0.0554,0.1384 0.0737,0.27276 0.0783,0.46248 0.1098,0.75773 0.12301,1.60121 0.0857,3.21052 0.0573,4.8148 -0.0338,0.58174 -0.11028,0.48974 0.27872,0.35228 0.0376,-0.0133 -0.0658,0.0468 -0.10329,0.0606 -0.14973,0.0549 -0.57516,0.15518 -0.70074,0.18641 -1.075697,0.25113 -2.116732,0.61283 -3.150284,1.00094 -0.15089,0.0608 -0.301953,0.12123 -0.452663,0.1825 -0.09539,0.0388 -0.202057,0.0575 -0.285628,0.11764 -0.02082,0.015 0.0428,0.0284 0.06512,0.0411 0.137882,0.0782 0.291089,0.1331 0.41542,0.23143 0.315547,0.24955 0.129495,0.18505 0.06768,0.1663 -0.322408,-1.11018 -0.253812,-2.29712 -0.377285,-3.43639 -0.0473,-1.58945 -0.04236,-3.17926 0.05353,-4.76712 0,-1.41421 -1.999998,-1.41421 -1.999998,0 z" />
    <path
       style="fill:#ffffff;fill-opacity:0.99532;stroke:#ffffff;stroke-width:1.265"
       id="path23"
       d="m 151.48145,65.2184 c -0.7943,0.648774 -1.41906,1.483159 -1.82246,2.426885 -0.0918,0.214715 -0.15826,0.439383 -0.2374,0.659077 -0.24391,0.907449 -0.19688,1.838658 0.38043,2.617634 0.35052,0.472956 0.53602,0.527545 1.0231,0.837015 0.23057,0.06949 0.45289,0.17763 0.69173,0.208473 1.02415,0.132252 1.7416,-0.304538 2.33946,-1.11964 0.47834,-0.65214 0.66475,-1.391179 0.92436,-2.140913 0.87378,-3.169838 1.02881,-6.478545 1.23876,-9.743472 0.13475,-2.242418 0.2217,-4.487341 0.28758,-6.732725 0.007,-0.06769 0.0522,-0.26411 0.0221,-0.203057 -0.39566,0.801621 0.53346,0.381553 -1.38984,0.708724 -0.0585,0.0099 -0.16128,-0.134956 -0.16132,-0.07558 -9e-5,0.140131 0.11231,0.256937 0.16113,0.388292 0.0789,0.212288 0.14787,0.428127 0.22181,0.642189 0.72082,2.196306 1.47743,4.380103 2.32329,6.531522 0.26204,0.700328 0.58354,1.373796 0.92325,2.038692 0.64561,1.258249 2.42504,0.345228 1.77944,-0.913022 v 0 c -0.31188,-0.604824 -0.60294,-1.219412 -0.84151,-1.857782 -0.83711,-2.127004 -1.58257,-4.287245 -2.29622,-6.458572 -0.0994,-0.282303 -0.59637,-1.846559 -0.95876,-1.931265 -1.32171,-0.308944 -1.70263,0.06455 -1.7825,1.071213 -0.0652,2.222151 -0.1511,4.443849 -0.28432,6.663071 -0.19867,3.091902 -0.33889,6.225159 -1.13822,9.233254 -0.44481,1.369642 -0.10615,0.448506 -0.56919,1.503553 -0.11244,0.256196 -0.1651,0.476303 -0.48996,0.455597 -0.53151,-0.215302 -0.63789,-0.490879 -0.51671,-1.062958 0.28086,-0.840031 0.67708,-1.576883 1.3736,-2.147425 1.13051,-0.849675 -0.0711,-2.448459 -1.20162,-1.598784 z" />
    <path
       style="fill:#ffffff;fill-opacity:0.99532;stroke:#ffffff;stroke-width:1.265"
       id="path24"
       d="m 45.238029,54.331518 c -0.633853,-0.139356 -1.330995,-0.278569 -1.935176,0.06025 -0.186593,0.104641 -0.334101,0.26729 -0.501151,0.400934 -0.501648,0.630193 -0.78967,1.40253 -0.758102,2.21434 0.0058,0.148072 0.03309,0.294513 0.04964,0.44177 0.179865,0.731438 0.581864,1.413946 1.218492,1.840481 0.12413,0.08317 0.262343,0.143092 0.393515,0.214638 0.172344,0.04146 0.33978,0.12618 0.517032,0.124386 1.347816,-0.01363 1.787473,-1.282504 2.196339,-2.327124 0.305478,-0.883203 0.660054,-1.757058 0.898496,-2.662283 0.17676,-0.67106 0.266512,-1.227806 0.393134,-1.910844 0.247793,-1.492435 0.391422,-2.999846 0.475292,-4.509677 0.03594,-0.726705 0.0283,-1.454529 0.02627,-2.181837 0.03722,-0.209809 -0.07611,-1.014293 0.04191,-1.174771 0.01228,-0.0167 0.01315,0.04365 0.0036,0.06203 -0.05308,0.102122 -0.124532,0.193596 -0.186796,0.290394 0.605023,0.49145 -0.474829,0.0581 -0.419899,0.203636 0.01614,0.04279 0.0857,0.03196 0.128699,0.04755 0.374041,0.135597 0.742598,0.238258 1.130157,0.330714 1.090459,0.198046 2.177301,0.40994 3.263365,0.631989 1.238031,0.255074 2.501427,0.335558 3.76119,0.395097 0.258924,0.02096 0.51903,0.01053 0.778187,0.02426 0.06412,0.0034 0.1284,0.0085 0.191577,0.02 0.01233,0.0021 0.04331,0.02463 0.03151,0.02043 -0.377102,-0.134546 -0.237146,-0.05628 -0.517731,-0.366059 -0.01416,-0.02297 -0.02233,-0.08681 -0.04248,-0.06888 -0.0016,0.0013 -0.0093,0.329507 -0.0094,0.33452 -0.01183,0.415772 -0.0231,0.83135 -0.03132,1.247225 -0.06991,1.754865 0.138686,3.498405 0.394877,5.230318 0.141586,1.13362 0.421648,2.244661 0.579879,3.375265 -0.0075,0.282229 -0.01042,0.0013 0.02484,-0.09655 0.04926,-0.136782 0.193622,-0.222208 -0.01106,-0.128386 -0.135578,0.04867 -0.272015,0.11317 -0.41561,0.136265 -0.01196,0.0019 -0.04721,-0.0063 -0.03531,-0.0087 0.06288,-0.01241 0.127066,-0.01775 0.191016,-0.02204 0.03342,-0.0024 0.06696,0.0016 0.100446,0.0024 -0.31098,-0.364553 -0.563282,-0.761544 -0.734168,-1.208762 0.0095,0.07491 -0.11149,-0.385585 -0.02418,-0.337568 0.0177,0.0097 0.0049,0.0452 0.02156,0.05662 0.05178,0.03548 0.03667,-0.110175 0.03583,0.03596 0.142108,-0.123775 0.310732,-0.196856 0.48078,-0.271571 1.28207,-0.596906 0.43792,-2.410026 -0.844151,-1.813121 v 0 c -0.321148,0.153818 -0.640696,0.311367 -0.913503,0.545346 -0.127381,0.123256 -0.269827,0.232643 -0.382143,0.369768 -0.507021,0.619025 -0.486256,1.443284 -0.231433,2.156661 0.329443,0.80413 0.789646,1.547487 1.458997,2.115198 0.166753,0.09236 0.319577,0.216329 0.500263,0.27707 0.583822,0.196259 1.152038,-0.01241 1.683168,-0.243301 0.835695,-0.429934 1.160627,-0.878059 1.074725,-1.846865 -0.163248,-1.134036 -0.43252,-2.25043 -0.581586,-3.387006 -0.240925,-1.6217 -0.440981,-3.254047 -0.373648,-4.897588 0.0082,-0.414594 0.02093,-0.828881 0.03124,-1.243399 0.0039,-0.155525 0.01386,-0.481179 -0.0064,-0.632973 -0.01945,-0.145256 -0.05933,-0.287033 -0.089,-0.430549 -0.113924,-0.175926 -0.191315,-0.381867 -0.341773,-0.527782 -0.504124,-0.488911 -1.269717,-0.373486 -1.899899,-0.41406 -1.156785,-0.05425 -2.317535,-0.123632 -3.454641,-0.356778 C 51.50483,44.25008 50.435593,44.039572 49.36202,43.8479 c -0.366379,-0.08179 -0.308107,-0.05866 -0.654426,-0.174289 -0.371401,-0.124005 -0.804926,-0.329824 -1.209429,-0.2676 -0.22217,0.03417 -0.42577,0.14432 -0.638656,0.21648 -0.140118,0.156032 -0.304959,0.292991 -0.420352,0.468103 -0.33452,0.50764 -0.201932,1.374373 -0.227303,1.951506 0.0019,0.688583 0.0097,1.377667 -0.02323,2.065718 -0.07854,1.425134 -0.213627,2.847973 -0.445095,4.257009 -0.0897,0.487828 -0.208586,1.191924 -0.336851,1.682305 -0.225253,0.861185 -0.563928,1.69191 -0.853215,2.532137 -0.172316,0.451728 -0.161345,0.449942 -0.3484,0.851196 -0.03081,0.06609 -0.114249,0.124264 -0.09831,0.195421 0.01022,0.04565 0.09334,-0.01183 0.140034,-0.0091 0.271192,0.01572 0.205193,-0.01537 0.340786,0.09222 -0.249958,-0.03719 -0.401112,-0.328827 -0.512253,-0.527627 -0.06623,-0.336994 -0.01495,-0.638691 0.121152,-0.95531 -0.004,-2.64e-4 -0.158343,-0.0059 -0.16021,-0.02793 -0.0075,-0.08854 0.695807,0.06996 0.753309,0.08238 1.378198,0.317129 1.826688,-1.631937 0.448489,-1.949067 z" />
    <path
       style="fill:#ffffff;fill-opacity:0.99532;stroke:#ffffff;stroke-width:1.265"
       id="path25"
       d="m 89.022443,54.287571 c 0.297836,-0.872241 0.629227,-1.733719 1.00739,-2.574276 0.402805,-0.840978 1.020458,-1.513465 1.762795,-2.063369 0.536493,-0.322009 0.973037,-0.600803 1.605311,-0.4161 0.57313,0.301226 0.906341,0.870619 1.208691,1.418368 0.398817,0.841745 0.548963,1.753835 0.642501,2.671442 0.04588,0.966195 -0.284827,1.844016 -0.690981,2.700311 -0.406474,0.827246 -0.901784,1.503085 -1.670319,2.018416 -0.861142,0.489974 -1.811034,0.7697 -2.777533,0.958051 -1.047205,0.129622 -1.96478,-0.363429 -2.847816,-0.862602 -1.06871,-0.622604 -1.7893,-1.352757 -2.505879,-2.345785 -0.354129,-0.550971 -0.694285,-1.124339 -0.873369,-1.759564 -0.101684,-0.360683 -0.107966,-0.506183 -0.161036,-0.885786 -0.105605,-0.896897 0.07296,-1.75492 0.443423,-2.568201 0.423567,-0.908693 1.06112,-1.680943 1.731122,-2.416146 0.980286,-0.989082 2.048425,-1.884384 3.152428,-2.730966 1.337072,-1.013267 2.683444,-2.015482 3.98309,-3.076689 1.115679,-0.913484 2.042187,-1.972995 2.78705,-3.203874 0.591912,-1.110051 0.733938,-2.345208 0.700047,-3.583027 -0.147814,-1.307317 -0.761521,-2.489242 -1.444373,-3.592422 -0.471533,-0.675804 -0.998781,-1.367041 -1.693069,-1.832912 -0.136755,-0.09177 -0.285334,-0.164547 -0.428003,-0.246819 -0.560163,-0.218628 -1.190718,-0.454239 -1.807647,-0.40105 -0.151423,0.01304 -0.299566,0.05157 -0.449349,0.07735 -0.991873,0.332742 -1.443731,1.038275 -1.867337,1.939374 -0.634854,1.513465 -0.806135,3.158763 -0.965457,4.776637 -0.234066,2.692244 -0.130733,5.397011 -0.09799,8.094819 0.05069,4.361386 0.08215,8.722955 0.100965,13.084587 0.0011,2.17328 0.03891,4.346649 -0.03267,6.51909 -0.07884,0.573908 0.01035,1.322112 -0.387379,1.805001 -0.158335,0.05628 -0.317442,0.110088 -0.480248,0.152085 -0.413057,0.102663 -0.829419,0.179189 -1.252601,0.223594 -0.416481,0.04312 -0.831075,0.04318 -1.246875,0.0024 -0.281422,-0.0439 -0.548617,-0.113559 -0.778878,-0.284133 -0.245803,-0.176356 -0.367964,-0.415518 -0.475702,-0.687988 -0.110234,-0.324557 -0.114351,-0.348279 0.04394,-0.607238 0.04728,0.03116 0.257315,-0.06004 0.14783,0.0047 -0.0099,0.0062 -0.02588,0.0075 -0.02985,0.01847 -0.0051,0.01405 0.466198,0.331179 0.507185,0.360011 0.238177,0.178059 0.555331,0.289221 0.687205,0.569389 0.0657,0.05762 0.04416,0.272568 0.02365,0.08928 -0.01328,-0.118708 0.0089,-0.143346 0.0442,-0.264724 0.140756,-0.223348 0.255479,-0.36236 0.459306,-0.370435 -7.93e-4,-0.02228 0.07459,0.01582 0.06124,2.65e-4 -0.02751,-0.0318 -0.216985,-0.191757 -0.23595,-0.208862 -1.05291,-0.944129 -2.388111,0.544912 -1.335199,1.48904 v 0 c 0.299186,0.265851 0.595058,0.534488 0.990433,0.650809 0.114872,0.02307 0.227984,0.05801 0.344612,0.06921 0.395589,0.03801 0.876956,-0.07134 1.180738,-0.338275 0.113165,-0.09944 0.196699,-0.228224 0.29505,-0.342336 0.04659,-0.109432 0.106502,-0.214107 0.139782,-0.328293 0.15309,-0.525311 -0.02021,-1.050075 -0.274032,-1.509231 -0.339058,-0.509307 -0.708795,-0.839253 -1.233747,-1.144148 -0.548153,-0.382556 -1.101891,-0.753464 -1.801542,-0.732435 -0.124084,0.0186 -0.249862,0.02815 -0.372253,0.05578 -0.593902,0.134081 -1.0751,0.549334 -1.39432,1.050949 -0.369477,0.803048 -0.415523,1.42671 -0.09317,2.26023 0.278207,0.645932 0.626927,1.172234 1.212249,1.580515 0.519229,0.333134 1.080754,0.541845 1.697085,0.610261 0.550095,0.05147 1.099892,0.05309 1.650156,-0.0048 0.531932,-0.05795 1.056564,-0.153096 1.575279,-0.285319 0.620705,-0.178853 1.205754,-0.425828 1.604378,-0.963388 0.18678,-0.293793 0.241853,-0.34943 0.37044,-0.685718 0.264007,-0.690427 0.312029,-1.439508 0.355897,-2.169205 0.07195,-2.197219 0.03586,-4.395313 0.03373,-6.593376 -0.01884,-4.366845 -0.05034,-8.733632 -0.101092,-13.100233 -0.03186,-2.624677 -0.134604,-5.25617 0.08862,-7.875701 0.135988,-1.398206 0.26742,-2.824694 0.794213,-4.140605 0.127709,-0.293952 0.262459,-0.60584 0.505913,-0.823357 -0.05068,-0.07138 0.175852,-0.02244 0.262445,-0.0096 0.197586,0.02931 0.392687,0.07461 0.580581,0.143018 0.597469,0.275482 1.003596,0.865905 1.379754,1.380734 0.503261,0.801124 0.974193,1.661715 1.142963,2.601785 0.03581,0.850122 -0.04035,1.71196 -0.41693,2.48833 -0.609897,1.032227 -1.411896,1.919433 -2.336742,2.682819 -1.283266,1.049274 -2.615409,2.036942 -3.935534,3.039023 -1.197171,0.920049 -2.356882,1.892125 -3.414432,2.972062 -0.813777,0.897133 -1.575398,1.84744 -2.082464,2.957393 -0.08294,0.193635 -0.176001,0.383241 -0.248814,0.580906 -0.362958,0.985298 -0.450583,2.046195 -0.341683,3.085057 0.08461,0.546751 0.09203,0.726112 0.250536,1.249649 0.248283,0.820047 0.675381,1.569595 1.145979,2.280092 0.373986,0.508992 0.475893,0.677944 0.909982,1.144889 0.651685,0.701005 1.42067,1.276027 2.23792,1.769517 1.387353,0.765598 2.584323,1.307042 4.211055,1.077698 1.23824,-0.249018 2.453765,-0.618778 3.538776,-1.28375 0.168002,-0.121428 0.343659,-0.232913 0.504005,-0.364286 0.795739,-0.651958 1.366604,-1.532792 1.826633,-2.440715 0.233135,-0.501264 0.356581,-0.729057 0.531145,-1.257435 0.266317,-0.806109 0.377397,-1.652069 0.338479,-2.499389 -0.125867,-1.189162 -0.344297,-2.367341 -0.888902,-3.445484 -0.625578,-1.09601 -1.316077,-2.008605 -2.57338,-2.401247 -0.192664,-0.03072 -0.383257,-0.08032 -0.577998,-0.09217 -0.954807,-0.05811 -1.837314,0.363969 -2.612107,0.877186 -0.164571,0.126331 -0.335293,0.245031 -0.493712,0.378995 -0.798656,0.675359 -1.425305,1.527495 -1.887749,2.461876 -0.410729,0.92061 -0.77809,1.860839 -1.097751,2.817088 -0.406374,1.354571 1.509281,1.929267 1.915652,0.574696 z" />
  </g>
</svg>
