<?xml version="1.0" encoding="UTF-8" standalone="no"?>
<!-- Created with Inkscape (http://www.inkscape.org/) -->

<svg
   width="210mm"
   height="210mm"
   viewBox="0 0 210 210"
   version="1.1"
   id="svg1"
   inkscape:version="1.3.2 (091e20ef0f, 2023-11-25, custom)"
   sodipodi:docname="owo.svg"
   xmlns:inkscape="http://www.inkscape.org/namespaces/inkscape"
   xmlns:sodipodi="http://sodipodi.sourceforge.net/DTD/sodipodi-0.dtd"
   xmlns="http://www.w3.org/2000/svg"
   xmlns:svg="http://www.w3.org/2000/svg">
  <sodipodi:namedview
     id="namedview1"
     pagecolor="#505050"
     bordercolor="#eeeeee"
     borderopacity="1"
     inkscape:showpageshadow="0"
     inkscape:pageopacity="0"
     inkscape:pagecheckerboard="0"
     inkscape:deskcolor="#505050"
     inkscape:document-units="mm"
     inkscape:zoom="0.60854165"
     inkscape:cx="235.80966"
     inkscape:cy="272.7833"
     inkscape:window-width="1876"
     inkscape:window-height="998"
     inkscape:window-x="0"
     inkscape:window-y="0"
     inkscape:window-maximized="1"
     inkscape:current-layer="layer1"
     showguides="true" />
  <defs
     id="defs1">
    <inkscape:path-effect
       effect="bspline"
       id="path-effect9"
       is_visible="true"
       lpeversion="1.3"
       weight="33.333333"
       steps="2"
       helper_size="0"
       apply_no_weight="true"
       apply_with_weight="true"
       only_selected="false"
       uniform="false" />
    <inkscape:path-effect
       effect="bspline"
       id="path-effect8"
       is_visible="true"
       lpeversion="1.3"
       weight="33.333333"
       steps="2"
       helper_size="0"
       apply_no_weight="true"
       apply_with_weight="true"
       only_selected="false"
       uniform="false" />
    <inkscape:path-effect
       effect="bspline"
       id="path-effect7"
       is_visible="true"
       lpeversion="1.3"
       weight="33.333333"
       steps="2"
       helper_size="0"
       apply_no_weight="true"
       apply_with_weight="true"
       only_selected="false"
       uniform="false" />
    <rect
       x="286.82034"
       y="182.12508"
       width="338.48032"
       height="61.681965"
       id="rect6" />
  </defs>
  <g
     inkscape:label="Layer 1"
     inkscape:groupmode="layer"
     id="layer1">
    <path
       style="fill:#ffffff;fill-opacity:0.99532;stroke:#ffffff;stroke-width:1.96101"
       id="path4"
       d="m 30.051347,54.27364 c -4.090622,2.458957 -6.622839,6.740094 -8.289205,11.101402 -0.599015,1.567785 -1.01774,3.198638 -1.526611,4.797955 -0.342643,1.719523 -0.795328,3.420734 -1.027929,5.158561 -0.698411,5.218065 -0.571814,10.352551 2.130982,15.046026 2.334826,4.054474 3.950335,4.735388 7.569686,7.543558 1.684101,0.762892 3.297429,1.706762 5.052303,2.288668 5.112903,1.69543 10.786247,1.80077 15.784798,-0.376001 4.474786,-1.948687 5.280213,-3.448154 8.636859,-6.878298 1.040992,-1.65373 2.223813,-3.226253 3.122976,-4.961185 1.607274,-3.101229 3.196156,-7.609214 3.622579,-11.099791 0.242367,-1.983938 0.20897,-4.002151 0.06574,-5.995696 C 64.861649,66.27938 64.166836,65.05848 62.738735,60.837641 62.05354,59.594272 61.497951,58.270101 60.683154,57.107538 59.194171,54.983034 57.47567,53.505469 55.217628,52.268745 53.402152,51.274416 51.36459,50.698521 49.335101,50.366366 48.423815,50.21722 47.496452,50.192753 46.57713,50.105944 c -3.604599,-0.0176 -7.248429,0.209095 -10.775853,0.988717 -1.936726,0.552747 -2.82287,1.007329 -3.701242,2.864698 -0.0733,0.203595 -0.146572,0.407189 -0.219871,0.610785 -0.723171,2.069617 2.203711,3.092332 2.926878,1.022715 v 0 c 0.03925,-0.118544 0.07855,-0.237096 0.117832,-0.355648 0.04028,-0.09864 0.08055,-0.197287 0.120808,-0.295931 0.0049,-0.03626 0.0012,-0.07478 0.01488,-0.108796 0.192427,-0.483568 1.047846,-0.531271 1.417937,-0.712277 3.210438,-0.729542 6.540154,-0.896691 9.821525,-0.926254 0.787662,0.06636 1.581204,0.08231 2.36298,0.199104 1.655839,0.247379 3.33917,0.688 4.837531,1.457197 3.249514,1.668173 4.698597,3.773905 6.3056,6.993613 0.48111,1.380662 1.084797,2.724534 1.443321,4.141974 0.783319,3.096858 1.221683,7.01623 0.860953,10.195878 -0.364094,3.209269 -1.794511,7.313333 -3.23862,10.176214 -0.78303,1.552334 -1.815975,2.965429 -2.723964,4.448143 -2.802032,2.971029 -3.517997,4.317363 -7.273852,6.052286 -4.304435,1.988328 -9.197333,1.919688 -13.655512,0.517682 -1.535716,-0.48295 -2.95408,-1.280664 -4.43112,-1.920996 -3.10698,-2.317907 -4.534382,-2.907556 -6.586256,-6.26851 -2.515583,-4.120507 -2.553202,-8.618422 -1.951768,-13.254597 0.21084,-1.62526 0.628487,-3.21694 0.942731,-4.825411 0.464637,-1.483809 0.849382,-2.995032 1.393905,-4.45142 1.383319,-3.699824 3.438348,-7.434104 6.851925,-9.608378 1.960877,-0.980435 0.574326,-3.753533 -1.386547,-2.773093 z" />
    <path
       style="fill:#ffffff;fill-opacity:0.99532;stroke:#ffffff;stroke-width:1.96101"
       id="path5"
       d="m 77.308806,104.2605 c 0.825376,3.66434 1.498882,7.36772 2.535825,10.98148 0.233566,0.81399 0.506152,1.61627 0.759228,2.4244 1.236836,3.12311 2.27026,6.4312 6.594424,5.17345 2.125029,-0.61809 5.225053,-3.30489 6.846518,-4.56478 2.071713,-1.57276 3.833592,-3.50427 5.838158,-5.15343 0.631411,-0.51946 1.259521,-1.06589 1.988561,-1.43604 0.3002,-0.15244 0.74254,-0.2936 1.00651,-0.0846 0.19793,0.15671 -0.23345,0.48618 -0.18612,0.73417 0.11816,0.61922 0.44277,1.1805 0.66416,1.77076 0.9042,2.53212 1.34342,5.21223 2.27871,7.73396 0.35789,0.96494 1.03025,2.54557 1.88225,3.277 0.42917,0.36843 0.99484,0.53853 1.49225,0.80779 0.65865,-0.0904 1.35991,-0.0213 1.97598,-0.27125 1.03221,-0.41879 2.38369,-1.98708 3.07027,-2.75094 1.51417,-1.68463 2.94479,-3.44765 4.42099,-5.16551 0.50546,-0.58382 1.28515,-1.50198 1.8501,-2.10073 0.40269,-0.42679 0.24708,-0.36632 0.5126,-0.44683 1.81134,-1.23504 0.0646,-3.79667 -1.74662,-2.56163 v 0 c -1.15625,0.85675 -2.02029,2.01611 -2.9676,3.08858 -1.45156,1.68935 -2.86856,3.4102 -4.34381,5.079 -0.3861,0.43675 -0.78415,0.8628 -1.17855,1.29207 -0.19042,0.20724 -0.45322,0.36416 -0.57592,0.61746 -0.0513,0.10595 0.0768,0.22245 0.11514,0.33366 -0.0677,0.0476 -0.13455,0.18876 -0.20307,0.14249 -0.64766,-0.43724 -1.13098,-1.68923 -1.34173,-2.25612 -0.98168,-2.64045 -1.41164,-5.45747 -2.41426,-8.09249 -1.04882,-2.10292 -1.23593,-3.75294 -3.96397,-4.26097 -1.44016,-0.2682 -3.556251,1.54402 -4.406981,2.24296 -1.951365,1.60317 -3.665457,3.48251 -5.676454,5.01793 -4.800245,3.77663 -1.307391,1.17847 -5.414247,3.94402 -0.283913,0.1912 -0.485897,0.57518 -0.826467,0.60941 -1.113209,0.11197 -2.062412,-3.05919 -2.332763,-3.64788 -0.239809,-0.76214 -0.498471,-1.51863 -0.719429,-2.28646 -1.026852,-3.56843 -1.68581,-7.22783 -2.5034,-10.84634 -0.463459,-2.14277 -3.493804,-1.48735 -3.030345,0.65544 z" />
    <path
       style="fill:#ffffff;fill-opacity:0.99532;stroke:#ffffff;stroke-width:1.96101"
       id="path6"
       d="m 150.04966,75.616387 c -2.86429,4.850262 -3.99712,10.468411 -4.34518,16.040854 -0.11998,1.920173 -0.0502,3.847501 -0.075,5.771249 0.30798,5.53375 1.16509,11.09085 3.33287,16.2331 1.08164,2.56579 2.61258,5.26911 4.78746,7.10192 1.05519,0.88923 2.36387,1.42431 3.5458,2.13646 1.42909,0.32224 2.83294,0.79028 4.28722,0.96674 1.4324,0.17381 2.88704,0.15293 4.32804,0.0786 4.06359,-0.20957 8.30266,-1.17352 11.75514,-3.41782 1.28217,-0.83347 2.37323,-1.9293 3.55984,-2.89395 1.03533,-1.25498 2.1946,-2.41727 3.10602,-3.76494 3.10085,-4.58507 4.7975,-10.04993 5.27369,-15.538981 0.43649,-5.031502 -0.0491,-6.478002 -0.75121,-11.367615 -0.50182,-1.614317 -0.87359,-3.274968 -1.50547,-4.842949 -1.03422,-2.566357 -2.67343,-5.363387 -4.67706,-7.322741 -3.2203,-3.149152 -7.281,-4.718885 -11.34141,-6.394266 -3.51973,-1.087139 -7.61213,-2.91913 -11.3981,-2.601413 -1.75564,0.147332 -2.1369,0.481108 -3.66054,1.19308 -1.24769,0.792587 -2.16261,1.846458 -2.92172,3.093964 -0.41425,0.680741 -0.76342,1.380711 -1.21186,2.041013 -0.10749,0.139425 -0.215,0.278846 -0.32251,0.41827 -1.32936,1.743289 1.13602,3.623302 2.46539,1.880016 v 0 c 0.14371,-0.190064 0.28751,-0.380123 0.43126,-0.570187 0.93375,-1.403085 1.54747,-3.041715 2.93491,-4.084471 0.84094,-0.455498 1.22576,-0.762071 2.22751,-0.871805 1.31205,-0.14372 2.76259,0.1289 4.01506,0.424186 2.23829,0.527723 4.0684,1.207172 6.26295,1.945397 3.46718,1.416214 7.32241,2.847955 10.10655,5.473613 3.03763,2.864716 4.44757,6.754894 5.52747,10.668426 0.67098,4.468057 1.1263,5.80892 0.76001,10.410961 -0.39474,4.959392 -1.87075,9.912002 -4.61849,14.087082 -0.78367,1.19074 -1.78544,2.22265 -2.67814,3.33397 -0.99469,0.83899 -1.90556,1.78888 -2.98407,2.51698 -3.82667,2.58336 -9.5256,3.47218 -14.05508,3.06946 -1.13673,-0.10113 -2.24504,-0.41136 -3.36755,-0.61704 -0.92328,-0.50081 -1.9484,-0.84782 -2.76981,-1.50243 -1.92379,-1.53312 -3.2332,-3.84354 -4.1765,-6.04933 -2.05593,-4.8074 -2.86199,-10.01531 -3.16748,-15.197348 0.0185,-1.818016 -0.0527,-3.63914 0.0552,-5.454053 0.3045,-5.128682 1.28816,-10.321405 3.91988,-14.792791 1.13225,-1.877323 -1.5227,-3.478538 -2.65493,-1.601217 z" />
  </g>
</svg>
