<?xml version="1.0" encoding="UTF-8" standalone="no"?>
<!-- Created with Inkscape (http://www.inkscape.org/) -->

<svg
   width="99.709312mm"
   height="111.72602mm"
   viewBox="0 0 99.709312 111.72602"
   version="1.1"
   id="svg1"
   inkscape:version="1.3.2 (091e20ef0f, 2023-11-25)"
   sodipodi:docname="babiano.svg"
   xmlns:inkscape="http://www.inkscape.org/namespaces/inkscape"
   xmlns:sodipodi="http://sodipodi.sourceforge.net/DTD/sodipodi-0.dtd"
   xmlns="http://www.w3.org/2000/svg"
   xmlns:svg="http://www.w3.org/2000/svg">
  <sodipodi:namedview
     id="namedview1"
     pagecolor="#505050"
     bordercolor="#eeeeee"
     borderopacity="1"
     inkscape:showpageshadow="0"
     inkscape:pageopacity="0"
     inkscape:pagecheckerboard="0"
     inkscape:deskcolor="#505050"
     inkscape:document-units="mm"
     inkscape:zoom="1.0280428"
     inkscape:cx="273.33493"
     inkscape:cy="292.78937"
     inkscape:window-width="1920"
     inkscape:window-height="1014"
     inkscape:window-x="0"
     inkscape:window-y="0"
     inkscape:window-maximized="1"
     inkscape:current-layer="layer1" />
  <defs
     id="defs1">
    <rect
       x="248.27592"
       y="323.7113"
       width="228.92598"
       height="79.417442"
       id="rect34" />
  </defs>
  <g
     inkscape:label="Layer 1"
     inkscape:groupmode="layer"
     id="layer1"
     transform="translate(-51.643287,-6.0543515)">
    <path
       style="fill:#ffffff;fill-opacity:0.99532;stroke:#ffffff;stroke-width:0.265;stroke-dasharray:none"
       id="path1"
       d="m 59.511371,21.601277 c 0.341154,-0.07367 0.6795,-0.1618 1.023461,-0.220998 2.898802,-0.498905 4.581986,-0.680452 7.732768,-1.018576 6.053339,-0.649609 12.12278,-1.070726 18.193626,-1.51505 7.262378,-0.448908 14.503534,-1.137393 21.727204,-2.004125 4.91015,-0.589143 9.6296,-1.21042 14.51058,-1.979226 2.05827,-0.3242 4.10822,-0.699186 6.16232,-1.048778 5.13448,-0.988531 10.30301,-1.932672 15.28601,-3.552257 1.69689,-0.5515283 2.07928,-0.7405916 3.63431,-1.3825893 0.3049,-0.1391282 1.39378,-0.6992474 1.89019,-0.755396 0.0451,-0.0051 0.0841,0.1155899 0.041,0.1299289 -0.13824,0.045996 -0.35136,-0.1159727 -0.43705,0.00185 -0.13465,0.1851229 -0.0417,0.4559189 -0.0618,0.6839516 -0.0461,0.5251051 -0.0912,1.0503064 -0.13676,1.5754598 -0.67491,5.462437 -1.469,10.908955 -2.36279,16.339619 -1.10419,6.886808 -2.62349,13.701469 -3.6777,20.59682 -0.26853,1.75644 -0.4838,3.52061 -0.7257,5.280917 -0.21009,1.918137 -0.4374,3.834463 -0.63027,5.75441 -0.36882,3.671488 -0.75972,8.493548 -1.07441,12.159379 -0.54008,6.291477 -1.08425,12.582559 -1.61871,18.874523 -0.5236,6.395479 -1.03883,12.79321 -1.37836,19.20161 -0.0414,0.80253 -0.0598,1.60797 -0.13148,2.40883 -0.0222,0.24834 -0.0283,0.57417 -0.17199,0.79335 -0.0398,-0.0111 0.006,-0.10191 -0.0313,-0.10832 -0.084,-0.0145 -0.17043,0.009 -0.25533,0.0167 -0.31862,0.0304 -0.6361,0.0728 -0.9551,0.0989 -0.64164,0.0525 -1.284,0.0963 -1.92651,0.13705 -1.00218,0.0635 -2.00497,0.11719 -3.00746,0.17578 -7.33069,0.42358 -14.65955,0.88562 -21.99561,1.20932 -5.66493,0.24997 -7.48757,0.28976 -13.139454,0.46796 -8.643667,0.30334 -17.296505,0.24287 -25.939514,0.55412 -3.514156,0.15793 -7.015734,0.49807 -10.513597,0.85907 -0.950166,0.0971 -1.90105,0.18781 -2.853174,0.26365 -0.208746,0.0166 -0.75841,0.0783 -1.00733,0.0284 -0.06184,-0.0124 -0.107429,-0.0662 -0.161142,-0.0992 -0.01373,-0.0557 -0.02088,-0.11339 -0.04116,-0.16703 -0.28149,-0.74422 -0.132204,-0.1343 -0.447662,-1.14725 -0.296264,-0.95131 -0.430336,-1.92441 -0.562189,-2.90822 -0.20719,-3.04759 0.416264,-6.06176 0.95835,-9.04393 0.475337,-2.65216 0.924004,-5.311688 1.231098,-7.989459 0.207405,-1.808493 0.232704,-2.364809 0.371142,-4.176488 0.417671,-4.770175 -0.199702,-9.520933 -0.92174,-14.226841 -0.688369,-3.985376 -1.268658,-7.988088 -1.763596,-12.001817 -0.247851,-2.38677 -0.510947,-4.777751 -0.559744,-7.179138 -0.0254,-1.250051 0.0044,-1.587993 0.05011,-2.8228 0.246298,-2.679486 0.582925,-5.346578 0.770078,-8.031562 0.150016,-2.781689 -0.07479,-5.564119 -0.214461,-8.341487 -0.07045,-1.47669 -0.130919,-2.953994 -0.159758,-4.432131 -0.01281,-0.544242 0.05972,-1.085421 0.08865,-1.628629 0.019,-0.548754 0.08877,-1.094872 0.188748,-1.6344 0.09149,-0.48981 0.132993,-0.986102 0.205568,-1.478555 0.03888,-0.447257 0.108268,-0.88782 0.173591,-1.331487 0.09658,-0.603388 0.235164,-1.198545 0.345054,-1.799496 0.05455,-0.343501 0.03032,-0.175236 0.07332,-0.504701 0.180713,-1.40262 -1.802892,-1.658187 -1.983605,-0.255567 v 0 c -0.03264,0.257675 -0.01386,0.123809 -0.05727,0.401469 -0.113493,0.624311 -0.259223,1.24228 -0.356553,1.869587 -0.06381,0.442569 -0.134919,0.882782 -0.173167,1.328595 -0.06908,0.468783 -0.110183,0.940765 -0.193773,1.407432 -0.11471,0.624594 -0.195207,1.256678 -0.219136,1.891684 -0.03091,0.591243 -0.111376,1.180338 -0.09104,1.773166 0.02936,1.498597 0.09032,2.996364 0.161901,4.49349 0.135681,2.697689 0.356042,5.400225 0.21676,8.102203 -0.08096,1.165654 -0.09811,1.531236 -0.212095,2.695718 -0.176358,1.801691 -0.444548,3.594089 -0.561475,5.40172 -0.04707,1.306978 -0.07769,1.651053 -0.04993,2.973631 0.05158,2.457201 0.318275,4.903906 0.573276,7.346119 0.497731,4.033253 1.079783,8.055655 1.771708,12.060444 0.699725,4.555103 1.308819,9.153305 0.904372,13.771255 -0.134083,1.761453 -0.159583,2.316787 -0.360712,4.074372 -0.302477,2.643211 -0.746035,5.268253 -1.215099,7.886113 -0.579149,3.18844 -1.23168,6.41257 -0.972444,9.67016 0.155374,1.13446 0.312873,2.26119 0.675672,3.35308 0.194376,0.585 0.524997,1.41509 0.943099,1.88803 0.219041,0.24776 0.521475,0.40685 0.782212,0.61028 0.246747,0.067 0.487643,0.16141 0.740246,0.20096 0.321783,0.0504 0.907198,-0.009 1.226883,-0.0346 0.964986,-0.0769 1.928725,-0.16885 2.89174,-0.26726 3.453577,-0.35643 6.910736,-0.69304 10.380366,-0.8498 8.639942,-0.31212 17.289864,-0.24906 25.93046,-0.55381 5.668466,-0.17879 7.491896,-0.21857 13.173806,-0.46934 7.34251,-0.32406 14.67783,-0.78636 22.01497,-1.21036 1.01114,-0.0592 2.02262,-0.11294 3.03343,-0.17747 0.66862,-0.0427 1.33741,-0.0849 2.00476,-0.1442 0.87104,-0.0774 1.86601,-0.1113 2.53954,-0.75936 0.13286,-0.12783 0.21383,-0.30042 0.32074,-0.45063 0.0591,-0.15468 0.13073,-0.30513 0.17724,-0.46404 0.0795,-0.27161 0.12625,-0.70524 0.15061,-0.97797 0.0724,-0.81106 0.0918,-1.62667 0.13335,-2.43945 0.33817,-6.38722 0.85241,-12.763761 1.37397,-19.138113 0.53446,-6.291879 1.07863,-12.582882 1.6187,-18.874279 0.31308,-3.647218 0.70302,-8.456859 1.06972,-12.111273 0.19084,-1.901767 0.41571,-3.799962 0.62356,-5.699943 0.2387,-1.739447 0.45084,-3.482747 0.71609,-5.218345 1.05434,-6.898711 2.57566,-13.71645 3.67936,-20.606734 0.90232,-5.484063 1.70541,-10.984086 2.38263,-16.50075 0.0507,-0.649569 0.3097,-2.5950436 -0.007,-3.3199972 -0.88075,-2.0148205 -2.69641,-0.9544801 -4.04632,-0.3274941 -1.47067,0.6097958 -1.83639,0.7910542 -3.44732,1.3158923 -4.90304,1.5974004 -9.99174,2.519464 -15.04406,3.495402 -2.03875,0.347163 -4.07336,0.719594 -6.11626,1.041488 -4.86521,0.766598 -9.55063,1.383173 -14.44551,1.970793 -7.19752,0.864049 -14.412521,1.549808 -21.648682,1.99682 -6.099715,0.446473 -12.198218,0.869252 -18.280221,1.523284 -3.332896,0.358405 -4.881243,0.526116 -7.92244,1.05009 -0.336296,0.05794 -0.667107,0.144141 -1.000662,0.216211 -1.385718,0.282463 -0.986256,2.242165 0.399462,1.959702 z" />
    <path
       style="fill:#ffffff;fill-opacity:0.99532;stroke:#ffffff;stroke-width:0.264999;stroke-dasharray:none"
       id="path2"
       d="m 62.884658,30.961115 c -0.125286,1.959915 -0.121759,3.923316 -0.102452,5.88603 0.08453,3.199114 0.186938,6.396725 0.464304,9.585496 0.333698,2.918905 0.611992,5.842754 0.774819,8.77628 0.0846,1.663636 0.103084,3.329495 0.107556,4.994947 1.4e-4,1.318564 -0.0034,2.637123 -0.0052,3.955685 -0.0016,1.234723 -0.0019,2.469446 -0.0021,3.704169 -0.0052,1.203264 -0.01341,2.405205 0.05333,3.606884 0.102939,0.917025 0.207584,1.833166 0.268041,2.754173 0.03457,0.840544 0.03798,1.680069 0.09912,2.519394 0.124347,0.765241 0.198462,1.535493 0.278114,2.306113 0.09638,0.407075 0.11312,0.680122 0.46662,1.007015 0.864795,0.799709 2.954088,0.954871 4.053141,1.103096 3.624307,0.467302 7.275102,0.118642 10.899624,-0.145423 4.255754,-0.330047 8.52447,-0.401312 12.790728,-0.455983 3.934791,-0.07443 7.869157,0.0089 11.803097,0.08427 2.70325,0.0554 5.407,0.07365 8.11072,0.08333 1.91973,-0.01101 3.84047,0.03642 5.75968,-0.01746 1.11391,-0.04793 2.22703,-0.109976 3.3416,-0.140718 0.9626,-0.04039 1.91812,-0.156925 2.87529,-0.258448 0.73631,-0.075 1.47587,-0.08282 2.20964,-0.18115 1.4387,-0.256227 1.52077,-1.356238 1.67274,-2.580317 0.33054,-3.201495 0.84877,-6.380205 1.3197,-9.563171 0.48941,-3.84874 0.92814,-7.705159 1.29979,-11.567131 0.311,-3.260762 0.40414,-6.535483 0.45387,-9.808805 0.0253,-2.09129 0.023,-4.182756 0.0193,-6.274149 0.0153,-1.490655 -0.0517,-2.980629 -0.13892,-4.468352 -0.12821,-1.627018 -0.15275,-3.259162 -0.23159,-4.88854 -0.0908,-1.245296 -0.10693,-2.494751 -0.1875,-3.74034 -0.10376,-0.71229 -0.0465,-1.811553 -0.4525,-2.434197 -0.1327,-0.203516 -0.32255,-0.363413 -0.48382,-0.545119 -0.22477,-0.108752 -0.43629,-0.250806 -0.67432,-0.326256 -0.75425,-0.239085 -1.76298,-0.141022 -2.5379,-0.09423 -0.60722,0.03666 -2.83516,0.221744 -3.24936,0.255402 -7.31328,0.547974 -14.65775,0.454571 -21.98562,0.378291 -3.968701,-0.007 -7.937374,-0.199309 -11.906272,-0.12216 -1.910308,0.03713 -2.533579,0.0878 -4.411573,0.191562 -3.604442,0.284133 -7.214677,0.476113 -10.823202,0.695992 -1.788512,0.111653 -3.581418,0.218676 -5.341866,0.566194 -1.388893,0.273278 -2.68125,0.860115 -3.990755,1.374896 -0.505505,0.218864 -1.023943,0.404469 -1.537242,0.603433 -1.318364,0.511775 -0.594604,2.376225 0.723762,1.864447 v 0 c 0.515874,-0.200591 1.037452,-0.386466 1.545627,-0.606708 1.199129,-0.472011 2.380819,-1.016534 3.650684,-1.274876 1.669195,-0.338688 3.375601,-0.41502 5.071483,-0.531093 3.604805,-0.219832 7.211377,-0.411081 10.812086,-0.695344 1.833822,-0.101775 2.451042,-0.151891 4.316024,-0.188559 3.956923,-0.0778 7.913698,0.116323 11.870434,0.122107 7.38887,0.07682 14.79438,0.169394 22.16843,-0.384754 0.29334,-0.02384 2.62975,-0.217179 3.16768,-0.250444 0.35458,-0.02193 1.05728,-0.04518 1.4529,-0.04535 0.0972,-4e-5 0.19474,0.01956 0.29144,0.0097 0.0252,-0.0026 0.0406,-0.03042 0.0608,-0.04563 -0.004,-0.04207 -0.0454,-0.101364 -0.0113,-0.126213 0.0293,-0.02132 0.0546,0.05192 0.0662,0.08625 0.0323,0.09538 0.046,0.196175 0.0628,0.295439 0.0762,0.448906 0.11924,0.904404 0.14956,1.358313 0.0825,1.234048 0.093,2.472624 0.18557,3.706426 0.08,1.636086 0.10324,3.2751 0.23267,4.908836 0.0856,1.449763 0.1506,2.901788 0.13547,4.354433 0.004,2.080096 0.006,4.160261 -0.0191,6.240253 -0.0488,3.219522 -0.13931,6.440467 -0.44491,9.647672 -0.36797,3.828174 -0.80375,7.650699 -1.28744,11.46589 -0.47352,3.200532 -0.99409,6.396829 -1.32679,9.615953 -0.0246,0.210164 -0.0502,0.420204 -0.0736,0.630492 -0.009,0.08008 -0.0345,0.160761 -0.0235,0.24058 0.002,0.01439 0.34429,-0.102545 0.27828,-0.06647 -0.0412,0.02252 -0.0912,0.02252 -0.13682,0.03375 -0.71406,0.09806 -1.43621,0.09183 -2.1524,0.174234 -0.90536,0.09632 -1.80891,0.207449 -2.7193,0.24802 -1.11519,0.03092 -2.22898,0.09181 -3.34348,0.140772 -1.89767,0.0553 -3.79713,0.0036 -5.69535,0.01667 -2.69336,-0.0096 -5.38672,-0.02777 -8.07959,-0.08297 -3.95526,-0.07573 -7.910935,-0.159165 -11.867035,-0.08448 -4.306197,0.05526 -8.614833,0.128019 -12.910418,0.461108 -3.487658,0.254125 -7.001062,0.600295 -10.489271,0.157771 -1.035275,-0.137075 -1.216001,-0.138567 -2.168464,-0.33896 -0.18311,-0.03852 -0.358489,-0.116959 -0.544637,-0.135967 -0.144214,-0.01474 -0.02088,0.159708 -0.03936,0.25368 -0.0078,0.03948 -0.02866,-0.0752 -0.04298,-0.112797 -0.07809,-0.750369 -0.144269,-1.50164 -0.272785,-2.245815 -0.06139,-0.83444 -0.0589,-1.669452 -0.09812,-2.505041 -0.06058,-0.914172 -0.157856,-1.824453 -0.266814,-2.734029 -0.06539,-1.164387 -0.05389,-2.329125 -0.05021,-3.495075 1.88e-4,-1.233913 5.29e-4,-2.467829 0.0021,-3.70174 0.0019,-1.321274 0.0054,-2.642547 0.0052,-3.963821 -0.0046,-1.700675 -0.02389,-3.401761 -0.110633,-5.100563 -0.164504,-2.954428 -0.44215,-5.899425 -0.779301,-8.839073 -0.274513,-3.137403 -0.371573,-6.283836 -0.456837,-9.431435 -0.01939,-1.95629 -0.01902,-3.912674 0.10255,-5.866281 0,-1.414214 -1.999999,-1.414214 -1.999999,0 z" />
    <path
       style="fill:#ffffff;fill-opacity:0.99532;stroke:#ffffff;stroke-width:0.264999;stroke-dasharray:none"
       id="path9"
       d="m 78.879239,49.064952 c 0.01736,0.619924 0.106611,1.235117 0.206406,1.846283 0.109152,0.647132 0.152906,1.302703 0.227542,1.954335 0.07853,0.607636 0.113316,1.219398 0.13534,1.831295 0.01326,0.398116 0.01254,0.796483 0.01246,1.19476 -2.65e-4,0.386996 -0.0011,0.773991 -0.0013,1.160989 0.01058,0.219864 -0.01786,0.44304 0.0088,0.662284 0.0085,0.06986 0.02371,0.138729 0.03556,0.208095 0.199475,0.433729 0.154773,0.488383 0.642742,0.763362 0.279601,0.157562 0.85548,0.138332 1.176845,0.143092 0.781754,0.01326 1.563032,-0.01074 2.344354,-0.03252 0.656098,-0.0069 1.31105,-0.04143 1.966055,-0.07674 0.331613,-0.02252 0.660993,-0.06089 0.982896,-0.144264 0.27047,-0.06648 0.503988,-0.197512 0.718325,-0.373457 0.405442,-0.398044 0.472628,-0.870535 0.486121,-1.409927 -0.01333,-0.483407 -0.02969,-0.966626 -0.03741,-1.450187 0.0013,-0.598466 -0.01471,-1.19621 -0.03913,-1.794097 -0.02122,-0.476501 -0.02828,-0.953418 -0.03228,-1.430319 0.01061,-0.351684 -0.01836,-0.701678 -0.04319,-1.051981 -0.01466,-0.221083 -0.01887,-0.442661 -0.02162,-0.664154 0.0068,-0.196146 -0.02492,-0.390097 -0.04452,-0.584584 -0.02056,-0.21345 -0.05299,-0.425185 -0.06834,-0.639212 -0.03322,-0.267459 -0.04975,-0.536295 -0.06323,-0.805323 -0.07128,-1.412414 -2.06874,-1.311606 -1.997456,0.100809 v 0 c 0.01447,0.284766 0.03031,0.569698 0.06618,0.852742 0.01767,0.232365 0.04936,0.462705 0.07319,0.694248 0.02008,0.19473 0.03886,0.243334 0.03433,0.406434 0.0033,0.260541 0.0088,0.521166 0.02653,0.781193 0.02209,0.308668 0.04989,0.616683 0.03821,0.9267 0.0042,0.498504 0.01177,0.997024 0.03388,1.495113 0.02376,0.581366 0.03915,1.16254 0.03772,1.744485 0.0075,0.465834 0.02101,0.931432 0.03726,1.397032 0.0011,0.0291 0.0019,0.05819 0.0029,0.08728 -0.0016,0.02461 -0.0046,0.04917 -0.0045,0.07382 1.1e-5,0.0036 0.0027,0.01249 0.0047,0.0096 0.06058,-0.08509 0.09614,-0.18575 0.192347,-0.243665 0.078,-0.05112 -0.0063,0.0024 0.149109,-0.08176 0.01085,-0.0059 -0.04601,0.01595 -0.03368,0.01543 0.01881,-7.93e-4 0.07202,-0.02191 0.05405,-0.01632 -0.129299,0.04023 -0.02655,0.0071 -0.117128,0.03657 0.03295,0.0044 0.01468,7.93e-4 -0.05767,0.01445 -0.108707,0.02045 -0.219504,0.03066 -0.329488,0.04179 -0.05187,0.0052 -0.103834,0.0097 -0.155747,0.01447 -0.637718,0.03438 -1.275342,0.06833 -1.914144,0.07461 -0.753375,0.02101 -1.506675,0.04482 -2.260473,0.03195 -0.304184,-0.004 -0.157274,-7.94e-4 -0.409483,-0.0079 -0.024,-7.93e-4 -0.0899,-0.01789 -0.07196,-0.0019 0.03835,0.03406 0.100285,0.03093 0.14047,0.0628 0.37257,0.295532 0.298498,0.230693 0.445429,0.605666 0.0024,0.0263 0.0055,0.05251 0.0068,0.07887 1.8e-4,0.0038 -0.0034,-0.007 -0.0036,-0.01082 -0.0011,-0.03508 1.9e-5,-0.07019 3.2e-5,-0.105294 4.8e-5,-0.132146 1.14e-4,-0.26429 2.33e-4,-0.396436 2.64e-4,-0.387524 0.0011,-0.775046 0.0013,-1.162568 8.2e-5,-0.422553 5.29e-4,-0.845199 -0.01376,-1.267572 -0.02418,-0.663852 -0.06259,-1.327512 -0.14706,-1.986819 -0.07855,-0.683615 -0.124156,-1.371457 -0.240885,-2.050129 -0.08314,-0.504228 -0.157795,-1.011421 -0.18003,-1.522553 0,-1.414214 -2.000002,-1.414214 -2.000002,0 z" />
    <path
       style="fill:#ffffff;fill-opacity:0.99532;stroke:#ffffff;stroke-width:0.264999;stroke-dasharray:none"
       id="path10"
       d="m 87.365783,58.71987 c 0.489768,0 0.979538,0 1.469308,0 0.540147,0 1.080294,0 1.620444,0 0.35769,0 0.715383,0 1.073075,0 0.237377,0 0.474753,0 0.712132,0 0.202943,0.0028 0.405069,0.0016 0.607065,-0.01958 0.325726,-0.03247 0.653177,-0.166759 0.862124,-0.429263 0.06101,-0.07664 0.108344,-0.163229 0.162517,-0.244845 0.189466,-0.39688 0.182587,-0.829339 0.165587,-1.258247 -0.04159,-0.530254 -0.103666,-1.058535 -0.152559,-1.588159 -0.04699,-0.524267 -0.0691,-1.05016 -0.07999,-1.576263 -0.0104,-0.457052 -0.0068,-0.913689 0.0122,-1.370383 0.01196,-0.495176 0.0503,-0.98892 0.08057,-1.483154 0.02328,-0.377126 0.02873,-0.754925 0.03134,-1.132649 -0.0041,-0.269539 0.01913,-0.538483 0.03742,-0.807167 0.09604,-1.410949 -1.899338,-1.546773 -1.995382,-0.135824 v 0 c -0.02106,0.309337 -0.04577,0.619008 -0.04199,0.929312 -0.0024,0.341537 -0.0067,0.683154 -0.02765,1.024162 -0.03101,0.507341 -0.07001,1.014217 -0.08259,1.522508 -0.02053,0.49821 -0.02484,0.996413 -0.01347,1.494988 0.01209,0.573641 0.03655,1.147051 0.08805,1.718667 0.04594,0.495793 0.101443,0.99055 0.145761,1.486456 0.0036,0.08293 0.01045,0.165777 0.01074,0.248783 1.01e-4,0.02882 -0.0027,0.05758 -0.0034,0.08639 -2.02e-4,0.008 -0.007,0.02682 5.29e-4,0.02416 0.04434,-0.01558 -0.05203,-0.182372 0.06121,-0.127016 0.134683,-0.177864 0.189968,-0.241686 0.407421,-0.338003 0.04416,-0.01955 0.09305,-0.02606 0.139954,-0.03757 0.0049,-0.0013 0.01995,-0.0013 0.015,-5.29e-4 -0.01524,0.0027 -0.0307,0.004 -0.04605,0.006 -0.125378,0.01688 -0.256616,0.0021 -0.384548,0.0072 -0.237378,0 -0.474755,0 -0.712131,0 -0.357693,0 -0.715386,0 -1.073076,0 -0.540149,0 -1.080296,0 -1.620443,0 -0.48977,0 -0.97954,0 -1.469308,0 -1.414214,0 -1.414214,1.999998 0,1.999998 z" />
    <path
       style="fill:#ffffff;fill-opacity:0.99532;stroke:#ffffff;stroke-width:0.264999;stroke-dasharray:none"
       id="path11"
       d="m 93.311495,59.635373 c 0.532235,-0.05504 1.066043,-0.09173 1.599665,-0.130304 0.753481,-0.04741 1.505141,-0.119338 2.258822,-0.163653 0.390634,-0.02978 0.781161,-0.06086 1.172411,-0.08145 0.39823,-0.02521 0.781222,-0.15494 1.03278,-0.494223 0.219332,-0.295812 0.219361,-0.483833 0.271553,-0.807008 0.06583,-0.674601 0.01262,-1.352318 -0.04341,-2.025462 -0.06949,-0.64556 -0.146333,-1.290117 -0.21336,-1.935949 -0.06755,-0.636471 -0.08151,-1.276683 -0.09307,-1.916088 -0.0078,-0.525278 -0.0079,-1.050624 -0.0076,-1.575946 2.64e-4,-0.348702 7.93e-4,-0.697405 0.0011,-1.046104 0.0066,-0.266512 -0.01064,-0.534019 0.0048,-0.800238 0.0021,-0.0265 0.0041,-0.053 0.0062,-0.07949 0.102468,-1.410496 -1.892276,-1.555406 -1.994744,-0.14491 v 0 c -0.0031,0.04473 -0.0062,0.08946 -0.0094,0.134197 -0.01162,0.296198 -0.0051,0.592632 -0.0068,0.889016 -2.48e-4,0.348874 -7.93e-4,0.697746 -0.0011,1.04662 -2.43e-4,0.537739 -1.16e-4,1.075502 0.008,1.613194 0.0127,0.69623 0.02959,1.393227 0.103426,2.086213 0.06567,0.632724 0.14007,1.264301 0.209666,1.896589 0.04515,0.534204 0.09156,1.071562 0.05219,1.607685 0.02879,0.132278 -0.01371,-0.02445 0.155972,-0.197967 0.07986,-0.08167 0.176528,-0.147129 0.276363,-0.202647 0.05615,-0.03122 0.122841,-0.03784 0.185039,-0.05394 0.0047,-0.0013 0.01889,0.0013 0.01421,0.0024 -0.01878,0.004 -0.03814,0.0046 -0.05721,0.0069 -0.395372,0.02096 -0.790109,0.05121 -1.184806,0.08215 -0.762429,0.04521 -1.522905,0.11675 -2.285106,0.165378 -0.582054,0.04208 -1.164572,0.08104 -1.744628,0.146113 -1.399355,0.20447 -1.110189,2.183455 0.289166,1.978985 z" />
    <path
       style="fill:#ffffff;fill-opacity:0.99532;stroke:#ffffff;stroke-width:0.264999;stroke-dasharray:none"
       id="path12"
       d="m 98.845681,59.223907 c 0.880536,0.132286 1.768299,0.192299 2.656769,0.237934 0.74268,0.03372 1.48597,0.05199 2.22935,0.0585 0.34142,0.0021 0.68284,7.94e-4 1.02425,-4e-5 0.19875,0.0048 0.39679,-0.0044 0.59459,-0.02347 0.0383,-0.0037 0.0774,-0.0026 0.11471,-0.01183 0.12543,-0.0311 0.24806,-0.07259 0.37209,-0.108879 0.12458,-0.08673 0.26343,-0.155897 0.37372,-0.260175 0.40642,-0.384225 0.48245,-0.96244 0.5319,-1.48585 0.04,-0.686374 0.0335,-1.37447 0.0336,-2.061723 -5.3e-4,-0.645266 -0.002,-1.290532 -0.003,-1.935797 -5.3e-4,-0.67527 -5.3e-4,-1.350537 -5.3e-4,-2.025804 -2e-5,-0.61871 0,-1.237422 1e-5,-1.856131 0,-0.271738 0,-0.543478 0,-0.815216 2e-5,-1.414214 -1.99999,-1.41423 -2,-1.6e-5 v 0 c 0,0.271735 0,0.54347 0,0.815205 -1e-5,0.618757 -3e-5,1.237512 0,1.856269 3e-5,0.675931 2e-5,1.35186 5.2e-4,2.027788 8e-4,0.644443 0.002,1.288883 0.003,1.933326 -1.1e-4,0.628701 0.005,1.258009 -0.0259,1.886125 -0.005,0.05774 -0.008,0.115517 -0.0135,0.173209 -0.003,0.03489 -0.009,0.06953 -0.0107,0.104516 -5.3e-4,0.0086 -0.002,0.0204 0.005,0.02535 0.005,0.0038 0.0126,-0.0052 0.0175,-0.0097 0.0368,-0.03313 0.0664,-0.07499 0.10744,-0.102719 0.0687,-0.04642 0.14613,-0.07857 0.21919,-0.117851 0.0613,-0.01045 0.12348,-0.01669 0.18392,-0.03134 0.0312,-0.0076 -0.0638,0.0067 -0.0957,0.0099 -0.1372,0.01392 -0.2737,0.0195 -0.41184,0.01471 -0.33418,7.94e-4 -0.66838,0.0021 -1.00256,1.08e-4 -0.71513,-0.0062 -1.43015,-0.02376 -2.1446,-0.05597 -0.87345,-0.04448 -1.744846,-0.108826 -2.610838,-0.235056 -1.410332,-0.104722 -1.558433,1.889787 -0.148103,1.994511 z" />
    <path
       style="fill:#ffffff;fill-opacity:0.99532;stroke:#ffffff;stroke-width:0.264999;stroke-dasharray:none"
       id="path13"
       d="m 105.71354,60.343798 c 0.45246,-0.02813 0.90401,-0.06854 1.35601,-0.103082 0.7356,-0.05029 1.47312,-0.06254 2.21017,-0.07141 0.75879,0.0028 1.51633,-0.04139 2.27362,-0.08271 0.4005,-0.02127 0.80122,-0.03901 1.20218,-0.04868 0.50249,-0.025 0.84619,-0.246856 1.10117,-0.682151 0.10512,-0.179459 0.14552,-0.365729 0.2017,-0.562301 0.13601,-0.534074 0.13219,-1.084392 0.12191,-1.630958 -0.0147,-0.548065 -0.0234,-1.096237 -0.0277,-1.644472 -0.004,-0.743498 -0.004,-1.487012 -0.004,-2.230517 0.0152,-0.710981 0.0389,-1.421712 0.0527,-2.132732 0.008,-0.420291 0.0111,-0.840637 0.0122,-1.260991 2.1e-4,-0.169164 1.5e-4,-0.0875 1.9e-4,-0.24501 2.7e-4,-1.414213 -1.99963,-1.414732 -2,-5.29e-4 v 0 c -4e-5,0.154631 2e-5,0.07454 -1.9e-4,0.240284 -10e-4,0.409213 -0.004,0.818423 -0.0118,1.227574 -0.014,0.724035 -0.0389,1.447758 -0.053,2.17178 1.5e-4,0.748625 0,1.497258 0.004,2.245875 0.004,0.555797 0.0131,1.111528 0.028,1.667151 0.007,0.361032 0.0236,0.725506 -0.0557,1.080759 -0.005,0.02524 -0.0144,0.05006 -0.0142,0.07575 5e-5,0.0051 0.0112,1.37e-4 0.0148,-0.0034 0.0422,-0.04115 0.0733,-0.09429 0.12089,-0.128981 0.22359,-0.162872 0.23368,-0.147339 0.46048,-0.186547 -0.42111,0.01027 -0.84198,0.0286 -1.26261,0.05106 -0.72907,0.03977 -1.45835,0.08307 -2.18886,0.07988 -0.77993,0.0095 -1.56035,0.02302 -2.3387,0.0771 -0.47596,0.03651 -0.95161,0.07703 -1.42782,0.109884 -1.40527,0.158761 -1.18075,2.146118 0.22452,1.98736 z" />
    <path
       style="fill:#ffffff;fill-opacity:0.99532;stroke:#ffffff;stroke-width:0.264999;stroke-dasharray:none"
       id="path14"
       d="m 112.34667,59.328901 c 0.41121,0.118907 0.79166,0.310923 1.16604,0.514273 0.36158,0.209913 0.72408,0.41869 1.11437,0.571601 0.30623,0.119981 0.37995,0.130778 0.69957,0.218064 0.72662,0.168871 1.47561,0.182177 2.21782,0.19653 0.47771,0.007 0.95549,0.0039 1.43323,0.0021 0.25359,-0.0011 0.50719,-0.0019 0.76078,-0.0024 0.1487,-2.28e-4 0.29739,-1.86e-4 0.44609,-1.8e-4 0.17793,0.01823 0.3544,0.04897 0.53182,0.07299 0.20168,0.01331 0.40627,0.06082 0.60949,0.04765 0.079,-0.0051 0.15739,-0.01778 0.23608,-0.02668 0.18379,-0.100346 0.39979,-0.156573 0.55138,-0.301035 0.44367,-0.422834 0.43907,-1.335667 0.4799,-1.904495 0.0929,-1.237737 0.15092,-2.47769 0.23346,-3.716118 0.0701,-0.995174 0.15215,-1.989251 0.23944,-2.983015 0.0318,-0.361141 0.0547,-0.72303 0.0634,-1.085472 0.008,-0.261993 -5.3e-4,-0.523206 -0.0199,-0.784476 -0.0117,-0.143706 -0.0199,-0.287642 -0.0276,-0.431605 -0.0761,-1.412163 -2.07323,-1.304504 -1.9971,0.107659 v 0 c 0.009,0.157742 0.0175,0.315468 0.0303,0.472943 0.0148,0.196321 0.022,0.392189 0.0149,0.589201 -0.007,0.319489 -0.0286,0.638431 -0.0562,0.956773 -0.0885,1.007776 -0.17166,2.015876 -0.24269,3.025081 -0.0822,1.23507 -0.14039,2.471635 -0.23276,3.706019 -0.005,0.07086 -0.0362,0.514355 -0.046,0.625017 -0.005,0.05817 -0.0137,0.116026 -0.0186,0.174218 -0.002,0.01738 -0.0129,0.06463 -5.3e-4,0.05232 0.45742,-0.456243 -0.11789,-0.106871 0.66341,-0.469353 0.3714,-0.01995 -0.16465,-0.0055 -0.21468,-0.03694 -0.26522,-0.03497 -0.52892,-0.08462 -0.79723,-0.09069 -0.14996,-5e-6 -0.29991,-4.5e-5 -0.44986,1.86e-4 -0.25496,5.29e-4 -0.50991,0.0013 -0.76487,0.0024 -0.46241,0.0019 -0.92485,0.0048 -1.38724,-0.0016 -0.58224,-0.01098 -1.17021,-0.0146 -1.74322,-0.130034 -0.21571,-0.05445 -0.42867,-0.113067 -0.63141,-0.207042 -0.25661,-0.118946 -0.49501,-0.273622 -0.74315,-0.408273 -0.49301,-0.266179 -0.99734,-0.511429 -1.53708,-0.66919 -1.35319,-0.410935 -1.93434,1.50277 -0.58114,1.913705 z" />
    <path
       style="fill:#ffffff;fill-opacity:0.99532;stroke:#ffffff;stroke-width:0.264999;stroke-dasharray:none"
       id="path15"
       d="m 84.394012,45.336235 c -0.0038,0.636722 -0.0032,1.272876 0.0272,1.908966 0.03547,0.631579 0.101502,1.260726 0.138428,1.892244 0.02484,0.41601 0.08298,0.828709 0.124647,1.24311 0.03374,0.509289 0.164976,0.961121 0.677551,1.222235 0.170622,0.08692 0.375118,0.07717 0.562676,0.115755 0.120142,-0.01577 0.241001,-0.02682 0.360426,-0.04733 0.03663,-0.0063 0.5006,-0.115139 0.53282,-0.122833 0.2705,-0.06457 0.540975,-0.129199 0.811528,-0.193583 0.379306,-0.115964 0.786865,-0.147431 1.157819,-0.292359 0.0901,-0.0352 0.176125,-0.08006 0.264187,-0.120092 0.297333,-0.219516 0.39194,-0.242054 0.57301,-0.620143 0.19262,-0.402209 0.16991,-1.010044 0.177493,-1.451496 0.01312,-0.744715 -0.03319,-1.488189 -0.11299,-2.228178 -0.08998,-0.652698 -0.190923,-1.30388 -0.286337,-1.955848 -0.04224,-0.282744 -0.0748,-0.566748 -0.102201,-0.851265 -0.136438,-1.407618 -2.127107,-1.214668 -1.990672,0.19295 v 0 c 0.03087,0.316847 0.0669,0.633185 0.113977,0.948092 0.09194,0.627491 0.187963,1.254392 0.27695,1.882262 0.07214,0.657198 0.112636,1.31768 0.101545,1.979181 -0.0045,0.291587 -0.0021,0.252841 -0.01278,0.52529 -0.0019,0.04734 -0.03597,0.10477 -0.0066,0.141976 0.02019,0.02558 0.03358,-0.05621 0.05464,-0.08108 0.178424,-0.210757 0.118028,-0.15979 0.304157,-0.262805 0.05871,-0.0062 0.07979,-0.01117 -0.0589,0.02856 -0.220742,0.06325 -0.447837,0.106617 -0.671058,0.160039 -0.08179,0.01958 -0.163507,0.0395 -0.245263,0.05926 -0.26806,0.0638 -0.536056,0.127823 -0.804066,0.191823 -0.0879,0.02098 -0.176022,0.0411 -0.264007,0.06177 -0.05904,0.01386 -0.120311,0.0205 -0.177077,0.04186 -0.0099,0.0037 0.01892,0.0094 0.02839,0.0141 0.373028,0.123438 0.409332,0.07724 0.667861,0.448161 0.123987,0.177888 0.09235,0.372346 0.07061,0.166225 -0.0054,-0.05099 -0.0092,-0.102145 -0.01376,-0.153218 -0.0391,-0.386662 -0.09292,-0.771739 -0.117996,-1.159748 -0.03688,-0.624848 -0.100164,-1.2475 -0.137356,-1.872273 -0.0301,-0.603602 -0.02717,-1.207384 -0.02484,-1.811613 0,-1.414214 -1.999998,-1.414214 -1.999998,0 z" />
    <path
       style="fill:#ffffff;fill-opacity:0.99532;stroke:#ffffff;stroke-width:0.264999;stroke-dasharray:none"
       id="path16"
       d="m 91.191952,43.788004 c -0.0598,0.923264 -0.01048,1.848752 0.02106,2.772114 0.03555,0.753168 0.03349,1.507664 0.06582,2.260846 0.03586,0.325485 0.0055,0.713229 0.148447,1.017682 0.05786,0.123193 0.141227,0.232699 0.211841,0.349049 0.152326,0.107559 0.288917,0.24188 0.456975,0.322673 0.441275,0.212143 1.158783,0.06857 1.629085,7.94e-4 0.395396,-0.04461 0.784728,-0.117187 1.166069,-0.230519 0.225999,-0.06528 0.443862,-0.154408 0.661569,-0.242615 0.332468,-0.155194 0.615212,-0.394234 0.779198,-0.72822 0.03757,-0.07651 0.05992,-0.159597 0.08988,-0.239398 0.107262,-0.497906 0.08571,-1.014547 0.07393,-1.520896 -0.03216,-0.808019 -0.152024,-1.608945 -0.260363,-2.40932 -0.07797,-0.53471 -0.180245,-1.064665 -0.224996,-1.603573 -0.0077,-0.218655 -0.0021,-0.437433 0.0021,-0.656077 0.02712,-1.413954 -1.972509,-1.452314 -1.999634,-0.03836 v 0 c -0.0054,0.288052 -0.01228,0.576376 0.0047,0.864251 0.04968,0.571656 0.14765,1.135391 0.235847,1.70203 0.09852,0.727832 0.209176,1.455918 0.242898,2.190396 0.0064,0.242551 0.0079,0.484092 0.0028,0.72668 -0.0011,0.04501 -0.0027,0.09001 -0.004,0.135009 -5.3e-4,0.02003 -0.01307,0.04367 -0.0016,0.0601 0.008,0.01146 0.01114,-0.02561 0.01672,-0.03843 0.06502,-0.131443 0.142957,-0.25499 0.290263,-0.297347 -0.161409,0.06561 -0.322286,0.133744 -0.490042,0.181925 -0.283451,0.08971 -0.577038,0.126865 -0.871207,0.164896 -0.151524,0.02188 -0.302689,0.04645 -0.454586,0.06559 -0.05373,0.0068 -0.107918,0.0096 -0.161599,0.01675 -0.01625,0.0021 -0.06075,0.0011 -0.04785,0.01111 0.04004,0.03128 0.0932,0.04048 0.139806,0.06072 0.09241,0.08066 0.184814,0.161325 0.27722,0.241985 0.142237,0.283499 0.09655,0.136732 0.132876,0.331076 0.0047,0.02521 -0.0088,-0.05058 -0.01265,-0.07595 -0.02267,-0.149085 -0.02418,-0.299926 -0.03568,-0.450085 -0.03404,-0.746424 -0.02767,-1.494541 -0.06504,-2.240968 -0.0291,-0.851606 -0.07674,-1.705155 -0.02529,-2.556814 0.103949,-1.410388 -1.890642,-1.557396 -1.994591,-0.147008 z" />
    <path
       style="fill:#ffffff;fill-opacity:0.99532;stroke:#ffffff;stroke-width:0.264999;stroke-dasharray:none"
       id="path17"
       d="m 103.02792,42.993405 c 0.0356,0.634711 0.0846,1.268793 0.12509,1.903306 0.0356,0.719992 0.0707,1.439701 0.13163,2.158066 0.0383,0.390634 0.0512,0.7829 0.0917,1.173269 0.042,0.408543 0.18851,0.782293 0.50661,1.058418 0.0767,0.06656 0.16933,0.112085 0.254,0.168129 0.44295,0.209188 0.93151,0.236128 1.41264,0.256723 0.34745,0.0098 0.6951,0.0084 1.04266,0.0075 0.2346,-0.0054 0.47882,0.0065 0.70834,-0.05335 0.0944,-0.02461 0.18575,-0.05963 0.27862,-0.08945 0.11122,-0.07081 0.23552,-0.124375 0.33365,-0.212426 0.47657,-0.42762 0.56243,-1.077555 0.63298,-1.674736 0.0676,-0.832392 0.0648,-1.668589 0.0681,-2.503143 0.002,-0.686266 -2.6e-4,-1.372534 -0.001,-2.0588 -5.3e-4,-0.415216 -7.9e-4,-0.830432 -10e-4,-1.24565 -1e-5,-0.03583 -2e-5,-0.07166 -3e-5,-0.107493 -5.3e-4,-1.414213 -2.00039,-1.413652 -2,5.3e-4 v 0 c 1e-5,0.03592 2e-5,0.07184 3e-5,0.107756 1.8e-4,0.415849 5.3e-4,0.8317 10e-4,1.247548 0.001,0.682731 0.003,1.365464 0.001,2.048195 -0.003,0.762982 -5.2e-4,1.52726 -0.0557,2.288651 -0.008,0.07701 -0.014,0.154226 -0.0236,0.231048 -0.007,0.05399 -0.0171,0.107468 -0.0253,0.161255 -0.004,0.02529 -0.0133,0.05051 -0.0109,0.07599 0.003,0.03173 0.32589,-0.312468 0.33892,-0.216096 0.0362,-0.0072 0.0722,-0.01535 0.10856,-0.02151 0.009,-0.0016 -0.0168,0.0061 -0.0256,0.0074 -0.0259,0.004 -0.0521,0.0052 -0.0781,0.0085 -0.0846,0.01064 -0.16987,0.0026 -0.25506,0.0057 -0.31831,7.93e-4 -0.63669,0.0021 -0.95493,-0.0058 -0.13926,-0.0055 -0.27805,-0.01244 -0.41683,-0.02577 -0.0357,-0.0034 -0.0713,-0.0083 -0.10705,-0.01185 -0.0165,-0.0016 -0.0549,-0.0195 -0.0494,-0.0039 0.008,0.02389 0.042,0.02831 0.063,0.04246 0.10527,0.09094 0.26604,0.250103 0.26372,0.40228 -5.3e-4,0.03283 -0.0538,-0.257386 -0.0202,-0.09643 -0.0399,-0.3772 -0.0486,-0.756798 -0.088,-1.134176 -0.0599,-0.704509 -0.0929,-1.41043 -0.12853,-2.116505 -0.0379,-0.592077 -0.0792,-1.183942 -0.12102,-1.775709 0,-1.414214 -2,-1.414214 -2,0 z" />
    <path
       style="fill:#ffffff;fill-opacity:0.99532;stroke:#ffffff;stroke-width:0.264999;stroke-dasharray:none"
       id="path18"
       d="m 110.21582,42.221517 c 0,0.75043 0,1.50086 0,2.25129 -0.006,0.983326 -0.009,1.965872 0.0575,2.947307 0.0532,0.562266 0.11812,1.123958 0.23318,1.677215 0.0896,0.341879 0.22675,0.698614 0.52265,0.919448 0.31275,0.23341 0.40377,0.22062 0.7512,0.300305 0.52972,0.05673 1.06388,0.04849 1.59592,0.047 0.42337,0.0096 0.84327,-0.05108 1.26313,-0.09584 0.51429,-0.03858 0.81609,-0.15603 1.14541,-0.619974 0.15772,-0.222184 0.18176,-0.522346 0.22285,-0.780015 0.0605,-0.772166 0.0372,-1.547818 0.0498,-2.321634 0.0258,-0.89807 0.0789,-1.794722 0.1329,-2.69139 0.036,-0.57835 0.0375,-1.157896 0.0718,-1.736259 0.0158,-0.254958 0.008,-0.129992 0.0226,-0.374896 0.0828,-1.41179 -1.9138,-1.528831 -1.99657,-0.117044 v 0 c -0.0141,0.240208 -0.007,0.115433 -0.0226,0.374325 -0.0339,0.577503 -0.0376,1.155996 -0.0716,1.733531 -0.0558,0.9261 -0.11039,1.852219 -0.13627,2.779789 -0.011,0.696106 0.003,1.392963 -0.0324,2.088428 -8e-4,0.02704 -0.0262,0.09348 -0.002,0.08111 0.0438,-0.02249 0.0459,-0.08947 0.0825,-0.122426 0.37623,-0.339352 0.21479,-0.210301 0.56326,-0.308927 0.078,-0.02207 -0.43461,0.07841 -0.24166,0.02666 -0.35128,0.0375 -0.70246,0.09223 -1.05666,0.08457 -0.41798,0.0013 -0.83626,0.0028 -1.25384,-0.01852 0.16722,0.120372 0.30486,0.19249 0.3742,0.396295 0.001,0.0042 -0.006,-0.0061 -0.009,-0.0092 -0.006,-0.01654 -0.0122,-0.03305 -0.0184,-0.04957 -0.10032,-0.460933 -0.14383,-0.931764 -0.19453,-1.400069 -0.0653,-0.93568 -0.0563,-1.872731 -0.0528,-2.81024 0,-0.75043 0,-1.50086 0,-2.251289 0,-1.414214 -2,-1.414214 -2,0 z" />
    <path
       style="fill:#ffffff;fill-opacity:0.99532;stroke:#ffffff;stroke-width:0.264999;stroke-dasharray:none"
       id="path19"
       d="m 119.24354,41.96508 c 0.0251,0.935046 0.0838,1.868649 0.13142,2.802734 0.0469,0.913149 0.0733,1.826858 0.0579,2.741092 -0.004,0.561702 -0.053,1.123738 -0.01,1.684599 0.10564,0.636151 0.34552,0.957053 0.98545,1.175472 0.1804,0.06158 0.46987,0.04954 0.66503,0.04945 0.37438,-0.0019 0.74408,-0.06023 1.11525,-0.100365 0.30222,-0.0267 0.60394,-0.0579 0.90665,-0.07934 0.50044,-0.04373 0.79614,-0.1846 1.11466,-0.634577 0.14224,-0.200959 0.17336,-0.513951 0.21308,-0.750176 0.0753,-0.656558 0.0476,-1.317792 0.0282,-1.976501 -0.0221,-0.792641 -0.0615,-1.584748 -0.10303,-2.376585 -0.036,-0.669229 -0.0533,-1.33922 -0.062,-2.009294 -0.003,-0.244289 -0.004,-0.488595 -0.004,-0.732898 -0.005,-1.414206 -2.00457,-1.407734 -1.99999,0.0065 v 0 c 7.9e-4,0.250836 0.002,0.501671 0.005,0.752496 0.009,0.696307 0.0272,1.392529 0.0646,2.08796 0.0407,0.776486 0.0795,1.553228 0.10114,2.330503 0.016,0.543321 0.0418,1.088157 -0.008,1.630595 -0.002,0.02979 -0.0344,0.0964 -0.005,0.08936 0.0413,-0.01003 0.04,-0.07697 0.0715,-0.10541 0.1114,-0.100486 0.22739,-0.197384 0.35377,-0.278217 0.0421,-0.02692 0.0958,-0.0287 0.14437,-0.04038 0.004,-0.0011 0.0163,0.0019 0.0123,0.0027 -0.022,0.0047 -0.0446,0.006 -0.0669,0.009 -0.32767,0.02339 -0.65432,0.05683 -0.98147,0.08607 -0.30722,0.0337 -0.61296,0.08367 -0.92265,0.08874 -0.0395,0.0016 -0.0814,-0.0092 -0.11843,0.0047 -0.0141,0.0053 0.0249,0.01707 0.0373,0.02569 0.0893,0.06206 0.19059,0.109675 0.26766,0.186341 0.0305,0.03032 0.21679,0.27714 0.17897,0.378325 -0.021,-0.160705 -0.0105,-0.322085 -0.007,-0.483762 0.008,-0.32925 0.0168,-0.658479 0.0242,-0.987745 0.0157,-0.95926 -0.0106,-1.918004 -0.0602,-2.876116 -0.0486,-0.953116 -0.10628,-1.905786 -0.13514,-2.859733 -0.11232,-1.409747 -2.106,-1.250897 -1.99368,0.158848 z" />
    <path
       style="fill:#ffffff;fill-opacity:0.99532;stroke:#ffffff;stroke-width:0.264999;stroke-dasharray:none"
       id="path20"
       d="m 121.19319,60.750902 c 0.39027,0 0.78055,0 1.17082,0 0.80314,-0.01445 1.60353,0.05923 2.40319,0.122287 0.65092,0.0562 1.30386,0.07426 1.95684,0.08307 0.38054,-0.02244 0.78014,0.04391 1.159,-0.01254 0.0792,-0.0118 0.15697,-0.03165 0.23545,-0.04747 0.64309,-0.410125 0.60527,-0.230997 0.76889,-1.136261 0.0178,-0.09818 -0.0322,-0.197099 -0.0553,-0.294158 -0.0597,-0.250958 -0.15684,-0.496885 -0.23358,-0.743011 -0.24923,-0.741259 -0.36965,-1.512578 -0.47675,-2.284317 -0.14635,-1.049872 -0.25206,-2.104274 -0.31309,-3.162406 -0.0344,-0.946375 0.0219,-1.892626 0.0516,-2.838365 0.0291,-0.97281 0.0377,-1.946051 0.0427,-2.91923 -0.009,-0.717468 -0.0303,-1.434648 -0.0704,-2.151028 -0.0238,-0.495359 -0.0756,-0.988648 -0.1007,-1.483929 -0.0367,-0.548823 -0.075,-1.097574 -0.1059,-1.646767 -0.0259,-0.479086 -0.0389,-0.958712 -0.0451,-1.438418 -0.008,-0.165036 0.009,-0.329544 0.0233,-0.493731 0.11805,-1.409279 -1.87497,-1.576226 -1.99302,-0.166947 v 0 c -0.019,0.228354 -0.0385,0.457335 -0.0301,0.68674 0.007,0.508619 0.0205,1.017153 0.0481,1.525108 0.0309,0.545799 0.0684,1.091211 0.10535,1.636618 0.0259,0.498305 0.0758,0.994738 0.10119,1.493041 0.0378,0.675761 0.0582,1.352253 0.0673,2.029036 -0.005,0.95567 -0.0133,1.911403 -0.0418,2.866713 -0.0316,1.005255 -0.0909,2.011146 -0.0492,3.017023 0.0649,1.111644 0.1747,2.219557 0.32887,3.322539 0.12308,0.880179 0.26641,1.759019 0.54865,2.604865 0.12827,0.409652 0.0471,0.156816 0.15959,0.495909 0.0126,0.03809 0.0172,0.07977 0.0375,0.114403 0.007,0.0122 -1.8e-4,-0.02889 0.005,-0.0421 0.30944,-0.817528 0.0688,-0.555525 0.71345,-0.924253 0.0337,-0.0039 0.0673,-0.0084 0.10097,-0.01175 0.0136,-0.0013 -0.027,0.005 -0.0407,0.0057 -0.0437,0.0024 -0.0875,0.0031 -0.1313,0.0034 -0.261,0.0021 -0.52207,-0.004 -0.78306,-0.0043 -0.60944,-0.0081 -1.21887,-0.02426 -1.82638,-0.07706 -0.85197,-0.06718 -1.70478,-0.143208 -2.56041,-0.128476 -0.39027,0 -0.78055,0 -1.17082,0 -1.41422,0 -1.41422,2.000001 0,2.000001 z" />
    <path
       style="fill:#ffffff;fill-opacity:0.99532;stroke:#ffffff;stroke-width:0.264999;stroke-dasharray:none"
       id="path21"
       d="m 80.804426,48.925104 c -0.07194,-0.60416 -0.105523,-1.212504 -0.160512,-1.818556 -0.05837,-0.699061 -0.141573,-1.395708 -0.195664,-2.09514 -0.02729,-0.369445 -0.02809,-0.740058 -0.02955,-1.110289 -5.3e-4,-0.260565 2.64e-4,-0.521126 0.0011,-0.781688 5.29e-4,-0.192109 5.29e-4,-0.384217 5.29e-4,-0.576326 -0.0066,-0.26625 -0.03455,-0.5315 -0.04789,-0.797631 -0.01397,-0.269248 -0.0097,-0.538819 -0.02695,-0.807829 -0.108066,-1.410078 -2.102217,-1.257247 -1.994151,0.152831 v 0 c 0.03145,0.249278 -0.0055,0.506101 0.02365,0.756185 0.01188,0.232222 0.03352,0.464423 0.04533,0.69582 -6.1e-5,0.190664 -1.33e-4,0.381328 -5.3e-4,0.571992 -5.29e-4,0.26489 -0.0016,0.529783 -0.0011,0.794676 0.0016,0.419203 0.0039,0.838795 0.03554,1.257048 0.05515,0.708137 0.137935,1.4136 0.197868,2.121313 0.05645,0.620408 0.09112,1.243121 0.164897,1.861627 0.158414,1.405313 2.145826,1.18128 1.987412,-0.224033 z" />
    <path
       style="fill:#ffffff;fill-opacity:0.99532;stroke:#ffffff;stroke-width:0.264999;stroke-dasharray:none"
       id="path22"
       d="m 79.391215,41.534638 c 0.881769,-0.0979 1.768287,-0.141248 2.653414,-0.197117 1.829091,-0.113917 3.655359,-0.267301 5.48399,-0.387726 0.2663,-0.0149 0.532526,-0.0312 0.798901,-0.0447 0.106728,-0.0054 1.338419,-0.05942 1.453062,-0.06585 0.753386,-0.04227 1.504622,-0.111048 2.256036,-0.178503 1.327182,-0.120113 2.654382,-0.2383 3.985057,-0.311838 1.356532,-0.06513 2.714894,-0.07172 4.072695,-0.07754 0.91968,-0.0033 1.83957,0.007 2.75877,-0.03028 0.28416,-0.01154 0.94863,-0.05007 1.23883,-0.06642 1.09534,-0.07287 2.19055,-0.147561 3.28462,-0.237697 1.01693,-0.104457 2.03452,-0.194506 3.0547,-0.259821 1.49839,-0.08754 2.99914,-0.08685 4.49854,-0.03379 0.84996,0.03978 1.69874,0.107837 2.5422,0.22074 0.57321,0.105113 1.15048,0.170434 1.73169,0.208957 0.66429,0.04069 1.32803,0.08709 1.99101,0.145415 0.54295,0.05284 1.08812,0.07127 1.63326,0.0814 0.46878,0.0094 0.93713,0.0088 1.40544,-0.01426 0.37691,-0.02204 0.75422,-0.03497 1.13169,-0.04167 0.2633,-0.0039 0.52664,-0.0045 0.78997,-0.0046 0.0382,1.3e-5 0.0764,2.7e-5 0.11453,4e-5 1.41421,5.29e-4 1.4149,-1.999512 7.9e-4,-2.000001 v 0 c -0.0386,-1.4e-5 -0.0772,-2.7e-5 -0.11581,-4e-5 -0.27507,8.5e-5 -0.55016,7.94e-4 -0.8252,0.0049 -0.39866,0.0072 -0.79715,0.02061 -1.19523,0.04382 -0.42292,0.02125 -0.84586,0.02024 -1.26924,0.01214 -0.49894,-0.0091 -0.99794,-0.02524 -1.49486,-0.07404 -0.67789,-0.05962 -1.35656,-0.107212 -2.03579,-0.148847 -0.53695,-0.03453 -1.06895,-0.09947 -1.59853,-0.19577 -0.9078,-0.120018 -1.82081,-0.195916 -2.73559,-0.236956 -1.56544,-0.05462 -3.1323,-0.05558 -4.69663,0.03665 -1.03231,0.06617 -2.06213,0.156358 -3.09112,0.26249 -1.07685,0.08879 -2.15484,0.162129 -3.23293,0.234111 -0.24449,0.01379 -0.94298,0.05412 -1.1877,0.06419 -0.90157,0.03711 -1.80385,0.02556 -2.7059,0.02936 -1.391845,0.006 -2.784268,0.01315 -4.174788,0.08058 -1.35342,0.07523 -2.703425,0.194154 -4.053284,0.316791 -0.722188,0.0649 -1.444292,0.131932 -2.16838,0.172569 -0.0728,0.0041 -1.423305,0.06434 -1.473655,0.0669 -0.272923,0.01386 -0.545692,0.0306 -0.818539,0.0459 -1.826791,0.120415 -3.651252,0.27332 -5.478496,0.387371 -0.898758,0.05673 -1.798958,0.100957 -2.694332,0.200123 -1.409279,0.118025 -1.242367,2.111047 0.166912,1.993022 z" />
    <path
       style="fill:#ffffff;fill-opacity:0.99532;stroke:#ffffff;stroke-width:0.264999;stroke-dasharray:none"
       id="path23"
       d="m 86.414765,45.320082 c 0.06479,-0.701834 -0.04627,-1.404509 -0.128598,-2.100175 -0.08608,-0.713391 -0.155205,-1.428155 -0.193479,-2.145702 -0.0182,-0.392848 -0.0263,-0.786088 -0.02821,-1.17933 -0.007,-1.414196 -2.00696,-1.404319 -1.999978,0.0099 v 0 c 0.0021,0.425743 0.01101,0.851484 0.03107,1.276786 0.04114,0.760193 0.11293,1.517637 0.204457,2.273435 0.06289,0.531363 0.149352,1.065636 0.132099,1.602174 -0.185926,1.40194 1.796716,1.664875 1.982639,0.262935 z" />
    <path
       style="fill:#ffffff;fill-opacity:0.99532;stroke:#ffffff;stroke-width:0.264999;stroke-dasharray:none"
       id="path24"
       d="m 88.82818,43.787763 c -5.29e-4,-0.596416 0.04736,-1.19127 0.09346,-1.785469 0.03157,-0.393591 0.07646,-0.78554 0.129691,-1.1767 0.190217,-1.401363 -1.79161,-1.67037 -1.981827,-0.269007 v 0 c -0.05812,0.429175 -0.107387,0.859237 -0.141875,1.29105 -0.05007,0.645658 -0.100325,1.292066 -0.09945,1.940126 0,1.414214 1.999998,1.414214 1.999998,0 z" />
    <path
       style="fill:#ffffff;fill-opacity:0.99532;stroke:#ffffff;stroke-width:0.264999;stroke-dasharray:none"
       id="path25"
       d="m 92.960885,44.050288 c 0.120827,-0.52937 0.220662,-1.062659 0.298712,-1.599927 0.06508,-0.447985 0.08406,-0.900348 0.09237,-1.352355 0.003,-0.211161 0.0024,-0.422349 0.0013,-0.633521 -0.006,-1.4142 -2.005978,-1.40572 -1.999983,0.0085 v 0 c 7.94e-4,0.196347 0.0016,0.392708 -0.0011,0.589045 -0.0065,0.368398 -0.0195,0.737253 -0.07216,1.102481 -0.07364,0.513456 -0.173993,1.021808 -0.286988,1.528027 -0.252982,1.391402 1.714756,1.749174 1.96774,0.35777 z" />
    <path
       style="fill:#ffffff;fill-opacity:0.99532;stroke:#ffffff;stroke-width:0.264999;stroke-dasharray:none"
       id="path26"
       d="m 96.013822,42.769988 c -0.0052,-0.448432 -0.03187,-0.896453 -0.04722,-1.344689 0.0019,-0.303245 -0.02784,-0.60411 -0.06154,-0.904941 -0.15753,-1.405412 -2.145085,-1.18263 -1.987553,0.222781 v 0 c 0.02801,0.249719 0.05503,0.498666 0.05027,0.750695 0.01461,0.425405 0.03956,0.850638 0.04604,1.276154 0,1.414214 1.999999,1.414214 1.999999,0 z" />
    <path
       style="fill:#ffffff;fill-opacity:0.99532;stroke:#ffffff;stroke-width:0.264999;stroke-dasharray:none"
       id="path27"
       d="m 105.06375,43.1317 c 0.0878,-0.561089 0.1015,-1.130792 0.11816,-1.697519 0.0112,-0.454208 0.0552,-0.906058 0.10189,-1.357649 0.0178,-0.15603 0.0282,-0.31269 0.036,-0.469476 0.0689,-1.412531 -1.92868,-1.510033 -1.99762,-0.0975 v 0 c -0.006,0.120687 -0.0139,0.241241 -0.0278,0.361299 -0.0517,0.500538 -0.0988,1.001556 -0.11165,1.504939 -0.0132,0.453853 -0.0252,0.908913 -0.0795,1.360107 -0.27987,1.386242 1.68057,1.782042 1.96045,0.395798 z" />
    <path
       style="fill:#ffffff;fill-opacity:0.99532;stroke:#ffffff;stroke-width:0.264999;stroke-dasharray:none"
       id="path28"
       d="m 108.48816,41.789529 c -0.0388,-0.596508 -0.0271,-1.193106 0.004,-1.789443 0.0215,-0.359524 0.008,-0.19227 0.038,-0.50197 0.13262,-1.40798 -1.85857,-1.595535 -1.99119,-0.187555 v 0 c -0.0353,0.382979 -0.0203,0.187851 -0.0441,0.585438 -0.035,0.676079 -0.0466,1.352696 -0.002,2.028844 0.0957,1.410972 2.0911,1.275659 1.99542,-0.135314 z" />
    <path
       style="fill:#ffffff;fill-opacity:0.99532;stroke:#ffffff;stroke-width:0.264999;stroke-dasharray:none"
       id="path29"
       d="m 111.85247,42.48459 c 0.0855,-0.634717 0.14989,-1.272395 0.21239,-1.909786 0.008,-0.08495 0.0152,-0.169897 0.0228,-0.254845 0.12571,-1.408615 -1.86637,-1.586401 -1.99208,-0.177786 v 0 c -0.007,0.07924 -0.0141,0.158485 -0.0212,0.237728 -0.0589,0.602742 -0.12008,1.205695 -0.19948,1.806062 -0.21116,1.398359 1.76642,1.696987 1.97758,0.298627 z" />
    <path
       style="fill:#ffffff;fill-opacity:0.99532;stroke:#ffffff;stroke-width:0.264999;stroke-dasharray:none"
       id="path30"
       d="m 115.91002,42.448411 c 0.27284,-0.489527 0.37313,-1.046541 0.44834,-1.595321 0.043,-0.556393 0.11269,-1.109906 0.17615,-1.664171 0.16079,-1.405044 -1.82624,-1.632432 -1.98703,-0.227389 v 0 c -0.062,0.541952 -0.13215,1.083075 -0.17159,1.627344 -0.0235,0.184018 -0.0504,0.365302 -0.0943,0.545783 -0.0124,0.05088 -0.0268,0.101271 -0.041,0.151672 -0.009,0.03057 -0.0279,0.05946 -0.0276,0.09122 1.4e-4,0.01405 0.0188,-0.02093 0.0282,-0.03138 -0.77941,1.180057 0.88945,2.282296 1.66885,1.102241 z" />
    <path
       style="fill:#ffffff;fill-opacity:0.99532;stroke:#ffffff;stroke-width:0.264999;stroke-dasharray:none"
       id="path31"
       d="m 121.19881,41.883882 c -0.0479,-0.448558 -0.0728,-0.899178 -0.0907,-1.349803 -0.008,-0.236834 -0.004,-0.123251 -0.01,-0.340746 -0.0354,-1.41377 -2.03475,-1.363732 -1.99937,0.05004 v 0 c 0.006,0.236551 0.002,0.113073 0.0107,0.370427 0.0206,0.513102 0.0492,1.026293 0.10695,1.53673 0.18855,1.401587 2.17069,1.13494 1.98215,-0.266648 z" />
    <path
       style="fill:#ffffff;fill-opacity:0.99532;stroke:#ffffff;stroke-width:0.264999;stroke-dasharray:none"
       id="path32"
       d="m 124.53859,41.355634 c -0.0594,-0.449003 -0.14418,-0.89372 -0.22027,-1.340025 -0.0233,-0.135421 -0.0409,-0.271647 -0.0569,-0.408088 -0.16661,-1.404363 -2.15268,-1.168738 -1.98607,0.235628 v 0 c 0.0204,0.170217 0.0423,0.340259 0.0715,0.509248 0.0758,0.442783 0.15964,0.884021 0.21851,1.329555 0.23074,1.395262 2.20394,1.068946 1.9732,-0.326318 z" />
    <path
       style="fill:#ffffff;fill-opacity:0.99532;stroke:#ffffff;stroke-width:0.264999;stroke-dasharray:none"
       id="path33"
       d="m 99.460213,48.178349 c 0.110768,-0.675881 0.142708,-1.361247 0.170132,-2.04457 0.02487,-0.770488 0.02712,-1.54145 0.0287,-2.312263 5.29e-4,-0.609835 -2.28e-4,-1.219671 -5.29e-4,-1.829506 -0.0035,-0.477282 0.02762,-0.953955 0.04545,-1.430756 0.02796,-0.369557 -0.02074,-0.736309 -0.06381,-1.102286 -0.0045,-0.04449 -0.009,-0.08898 -0.01355,-0.133474 -0.144116,-1.406853 -2.133703,-1.203042 -1.98959,0.203808 v 0 c 0.0056,0.05455 0.01125,0.109096 0.01688,0.163643 0.03109,0.263667 0.07469,0.527116 0.05147,0.793649 -0.01873,0.502129 -0.05111,1.004123 -0.04685,1.506784 5.29e-4,0.608015 0.0013,1.21603 5.29e-4,1.824045 -0.0016,0.745622 -0.0036,1.491385 -0.02712,2.236705 -0.02328,0.588585 -0.04868,1.178907 -0.138615,1.761842 -0.256241,1.390806 1.710656,1.753185 1.966897,0.362379 z" />
    <text
       xml:space="preserve"
       transform="scale(0.26458333)"
       id="text34"
       style="white-space:pre;shape-inside:url(#rect34);fill:#ffffff;fill-opacity:0.99532;stroke:#ffffff;stroke-width:1.00157;stroke-dasharray:none" />
    <path
       style="fill:#ffffff;fill-opacity:0.99532;stroke:#ffffff;stroke-width:0;stroke-dasharray:none"
       id="path39"
       d="m 65.65738,85.678811 c -0.09017,0.945943 -0.04422,1.896305 0.01373,2.842432 0.05052,0.850056 0.152122,1.695738 0.211381,2.545204 0.02775,0.414546 0.0419,0.829802 0.04622,1.245203 -0.03158,0.217464 -0.06526,0.434266 -0.08619,0.653111 -0.02373,0.166341 -0.07748,0.314867 -0.146791,0.465267 -0.0222,0.06037 -0.06007,0.139443 -0.08764,0.198676 -0.340259,0.620662 0.537491,1.101862 0.87775,0.481197 v 0 c 0.04416,-0.0852 0.08508,-0.171182 0.119068,-0.261077 0.116464,-0.252953 0.198003,-0.512871 0.23419,-0.790078 0.02349,-0.253579 0.07544,-0.503232 0.09056,-0.75761 -0.0046,-0.435177 -0.01945,-0.870204 -0.0486,-1.304478 -0.05928,-0.84663 -0.159578,-1.689566 -0.210826,-2.536717 -0.05483,-0.892106 -0.100703,-1.788184 -0.01696,-2.680279 0.07131,-0.704213 -0.924595,-0.805064 -0.995908,-0.100851 z" />
    <path
       style="fill:#ffffff;fill-opacity:0.99532;stroke:#ffffff;stroke-width:0;stroke-dasharray:none"
       id="path40"
       d="m 66.568922,85.779278 c 0.301049,-0.250491 0.609722,-0.55544 0.996046,-0.663985 0.396856,0.01543 0.710292,0.394938 0.96062,0.661816 0.397914,0.468902 0.75489,1.032779 0.817578,1.658038 -0.01146,0.17418 -0.131818,0.180773 -0.231804,0.281402 -0.05087,0.0512 -0.09549,0.108263 -0.14323,0.162394 -0.02992,0.142912 -0.11513,0.284948 -0.08976,0.428738 0.02614,0.148117 0.139875,0.268399 0.23355,0.38607 0.01752,0.02199 0.352851,0.266046 0.378291,0.285274 0.237453,0.179448 0.179581,0.135921 0.403482,0.332673 0.442325,0.435118 0.677717,1.043419 0.823502,1.636163 0.07366,0.586769 -0.05047,0.868772 -0.420468,1.298852 -0.300865,0.317249 -0.673528,0.562642 -1.050351,0.781289 -0.313449,0.171812 -0.645493,0.301386 -0.98821,0.401068 -0.247492,0.06145 -0.503577,0.07095 -0.756997,0.0847 -0.706726,0.03922 -0.651254,1.038688 0.05547,0.999463 v 0 c 0.330364,-0.01868 0.663337,-0.03638 0.984346,-0.123947 0.419346,-0.124716 0.827045,-0.283011 1.20986,-0.496697 0.475149,-0.278508 0.940967,-0.592415 1.312815,-1.00259 0.604512,-0.733293 0.755644,-1.235335 0.623083,-2.191081 -0.208727,-0.788167 -0.527526,-1.573541 -1.134888,-2.141421 -0.211063,-0.183147 -0.424553,-0.356032 -0.651243,-0.519462 -0.03071,-0.02215 -0.08713,-0.101804 -0.09349,-0.06448 -0.0131,0.07693 0.04415,0.149704 0.06623,0.224557 -0.03526,0.09441 -0.07052,0.18882 -0.105781,0.283231 -0.149981,0.08841 0.177094,-0.138112 0.276315,-0.261628 0.133012,-0.165579 0.223422,-0.351237 0.263986,-0.560927 0.02297,-0.118727 0.01781,-0.2412 0.0267,-0.361797 -0.01876,-0.117263 -0.02853,-0.236328 -0.0563,-0.35179 -0.167743,-0.697402 -0.564697,-1.325602 -1.02952,-1.860198 -0.565957,-0.582549 -1.143407,-1.098153 -2.013529,-0.914839 -0.528484,0.199668 -0.964176,0.514194 -1.374127,0.901306 -0.500499,0.500502 0.207314,1.208315 0.707813,0.707813 z" />
    <path
       style="fill:#ffffff;fill-opacity:0.99532;stroke:#ffffff;stroke-width:0;stroke-dasharray:none"
       id="path41"
       d="m 73.380435,92.311983 c 0.264282,-0.785386 0.419089,-1.601816 0.598871,-2.40925 0.197313,-0.785122 0.255122,-1.591787 0.353579,-2.391894 0.03064,-0.196229 0.04613,-0.394849 0.08821,-0.589233 0.0055,-0.02548 0.03804,-0.09465 0.02024,-0.07558 -0.404492,0.433581 -0.04584,0.325144 -0.673087,0.319206 0.528561,0.949878 0.983629,1.937978 1.448978,2.919656 0.558406,1.176237 1.061542,2.377663 1.561957,3.579397 0.239588,0.567296 0.08001,0.204952 0.322837,0.723615 0.03661,0.07821 0.07687,0.154924 0.108301,0.235362 0.0074,0.01886 0.0099,0.08035 0.0072,0.06029 -0.04002,-0.299461 -0.05112,-0.124058 0.233912,-0.493734 0.06064,-0.01378 0.130051,-0.0071 0.181925,-0.04139 0.02088,-0.01381 -0.04404,-0.02379 -0.06641,-0.03501 -0.05059,-0.0254 -0.102301,-0.04857 -0.152452,-0.07482 -0.23848,-0.124844 -0.446678,-0.273606 -0.659001,-0.438354 -0.308909,-0.284507 -0.161499,-0.138229 -0.442896,-0.438153 -0.486619,-0.514006 -1.213533,0.174178 -0.726914,0.688184 v 0 c 0.354319,0.371563 0.167881,0.189749 0.56053,0.544187 0.326075,0.247915 0.656778,0.479743 1.034976,0.642641 0.07294,0.03142 0.143844,0.07362 0.222356,0.08559 0.128625,0.0196 0.260168,0.0052 0.39025,0.0078 0.125217,-0.124844 0.288734,-0.220546 0.375647,-0.374528 0.198065,-0.350904 -0.376451,-1.146437 -0.466203,-1.476436 -0.506582,-1.216546 -1.016186,-2.432659 -1.581523,-3.623371 -0.325888,-0.68748 -0.648785,-1.374986 -0.993093,-2.053426 -0.100433,-0.197897 -0.317812,-0.640757 -0.443867,-0.843923 -0.0675,-0.10878 -0.147606,-0.209208 -0.221409,-0.313811 -0.211513,-0.06976 -0.414494,-0.243679 -0.63454,-0.209275 -0.468315,0.07322 -0.429339,0.842206 -0.489566,1.153755 -0.09324,0.768025 -0.148408,1.54215 -0.337045,2.295761 -0.170159,0.764331 -0.316127,1.537176 -0.561552,2.282031 -0.243779,0.664509 0.695979,1.009263 0.939758,0.344754 z" />
    <path
       style="fill:#ffffff;fill-opacity:0.99532;stroke:#ffffff;stroke-width:0;stroke-dasharray:none"
       id="path42"
       d="m 80.425691,93.018045 c 0.0608,-0.751943 0.09905,-1.507609 0.0862,-2.262084 0.0011,-0.448567 -0.06746,-0.887264 -0.143962,-1.326885 -0.04639,-0.269328 -0.06185,-0.541894 -0.06876,-0.814605 -0.0051,-0.286239 -0.0046,-0.57254 -0.0042,-0.858811 -0.009,-0.23454 0.04732,-0.46306 0.07426,-0.695849 0.02172,-0.228311 0.01204,-0.116498 0.02933,-0.335423 0.05548,-0.705635 -0.942443,-0.78409 -0.997921,-0.07845 v 0 c -0.01535,0.19648 -0.0068,0.09655 -0.02588,0.299786 -0.03059,0.269375 -0.09323,0.53602 -0.08078,0.808456 -5.29e-4,0.295439 -0.0011,0.59091 0.0045,0.886312 0.0086,0.321968 0.02826,0.64372 0.08348,0.961583 0.06864,0.388548 0.131464,0.775493 0.129074,1.172525 0.01455,0.712456 -0.02622,1.426231 -0.08064,2.136441 -0.07567,0.703757 0.919599,0.810766 0.995264,0.107008 z" />
    <path
       style="fill:#ffffff;fill-opacity:0.99532;stroke:#ffffff;stroke-width:0;stroke-dasharray:none"
       id="path43"
       d="m 80.542838,89.913594 c 0.312492,0.01738 0.588645,0.127677 0.817187,0.339193 0.319116,0.35083 0.442515,0.820142 0.544404,1.271423 0.06246,0.403141 0.139922,0.819672 0.10314,1.229233 -0.03234,0.128752 -0.119603,0.150368 -0.231804,0.189516 -0.270148,0.112213 -0.560573,0.147347 -0.849612,0.170511 -0.705384,0.0586 -0.622506,1.056166 0.08288,0.997561 v 0 c 0.396965,-0.0339 0.793763,-0.09128 1.163222,-0.248944 0.475327,-0.218773 0.754751,-0.509915 0.834091,-1.041929 0.02777,-0.509352 -0.03065,-1.020564 -0.126492,-1.52078 -0.155231,-0.662633 -0.368183,-1.324835 -0.872066,-1.809747 -0.448025,-0.364776 -0.882232,-0.55377 -1.464948,-0.577038 -0.707816,0 -0.707816,1.001001 0,1.001001 z" />
    <path
       style="fill:#ffffff;fill-opacity:0.99532;stroke:#ffffff;stroke-width:0;stroke-dasharray:none"
       id="path44"
       d="m 85.590974,94.083091 c 0.06166,-0.941205 0.08326,-1.884402 0.100227,-2.827277 0.0083,-0.378253 0.01151,-0.756208 0.0043,-1.134443 -0.01405,-0.707676 -1.014843,-0.687819 -1.000805,0.01984 v 0 c 0.0076,0.365612 0.0031,0.730951 -0.0043,1.096592 -0.01659,0.923094 -0.03758,1.846501 -0.0974,2.767989 -0.05465,0.705702 0.943367,0.782981 0.998011,0.07728 z" />
    <circle
       id="path45"
       style="fill:#ffffff;stroke:#ffffff;stroke-width:0.264583"
       cx="85.149971"
       cy="87.733177"
       r="0" />
    <path
       style="fill:#ffffff;fill-opacity:0.99532;stroke:#ffffff;stroke-width:0;stroke-dasharray:none"
       id="path46"
       d="m 84.729449,87.404227 c 0.01093,0.136221 0.02878,0.271738 0.04269,0.40767 0.0048,0.04588 0.0079,0.09188 0.01072,0.137912 0.04409,0.706437 1.043146,0.644088 0.999056,-0.06235 v 0 c -0.0038,-0.05933 -0.0078,-0.118647 -0.01402,-0.177789 -0.01482,-0.143987 -0.03319,-0.287558 -0.04547,-0.431787 -0.08934,-0.702151 -1.082334,-0.575808 -0.992995,0.126346 z" />
    <path
       style="fill:#ffffff;fill-opacity:0.99532;stroke:#ffffff;stroke-width:0;stroke-dasharray:none"
       id="path47"
       d="m 91.671221,91.654695 c 0.0095,-0.339701 -0.06591,-0.671518 -0.148259,-0.998593 -0.08192,-0.297289 -0.1835,-0.589423 -0.331402,-0.86092 -0.09985,-0.183303 -0.13326,-0.220996 -0.251198,-0.388826 -0.22217,-0.289129 -0.505714,-0.525524 -0.835982,-0.681749 -0.05668,-0.02681 -0.115864,-0.04798 -0.173795,-0.07197 -0.298455,-0.105976 -0.609399,-0.141703 -0.918818,-0.06045 -0.06319,0.01659 -0.123894,0.04151 -0.185841,0.06226 -0.338918,0.14642 -0.617789,0.384799 -0.827143,0.688298 -0.04834,0.07008 -0.08947,0.144867 -0.134207,0.217302 -0.247841,0.433091 -0.370097,0.916032 -0.451422,1.403966 -0.03723,0.321154 -0.04677,0.646253 -0.01733,0.968547 0.01844,0.201801 0.03848,0.298149 0.07192,0.496129 0.07603,0.42097 0.175458,0.836705 0.315004,1.241112 0.1127,0.306851 0.278787,0.595167 0.532054,0.807683 0.05524,0.04635 0.116178,0.08544 0.174268,0.128159 0.32857,0.190238 0.703897,0.295193 1.084114,0.302363 0.07292,0.0013 0.145783,-0.0049 0.218673,-0.0074 0.408003,-0.03753 0.795583,-0.175935 1.133414,-0.408395 0.06553,-0.0451 0.12632,-0.09674 0.189479,-0.145103 0.233867,-0.209817 0.429429,-0.457295 0.575056,-0.735899 0.07654,-0.146439 0.09806,-0.212359 0.156612,-0.361801 0.01643,-0.04991 0.03414,-0.09943 0.04932,-0.149733 0.0048,-0.01598 0.0433,-0.15838 0.05107,-0.196432 0.0028,-0.01376 0.0029,0.04115 -0.01117,0.04061 -0.966195,-0.03713 -0.981858,-0.398643 -0.954611,-0.04178 0.02966,0.218803 0.06785,0.441812 0.150759,0.647878 0.02175,0.05404 0.04842,0.105949 0.07263,0.158924 0.119005,0.244777 0.298292,0.439143 0.511215,0.604105 0.154527,0.1104 0.324771,0.193757 0.500449,0.264128 0.126137,0.05013 0.254614,0.09459 0.383611,0.136829 0.0696,0.02037 0.03864,0.01156 0.09282,0.02672 0.681681,0.190553 0.951164,-0.773491 0.269481,-0.964044 v 0 c -0.03617,-0.01011 -0.01855,-0.0052 -0.05285,-0.01463 -0.111496,-0.03583 -0.222139,-0.07489 -0.330973,-0.118076 -0.0909,-0.03222 -0.175792,-0.07891 -0.258053,-0.128783 -0.09041,-0.06468 -0.163243,-0.138568 -0.213593,-0.240046 -0.07991,-0.14378 -0.105841,-0.311875 -0.129487,-0.472752 -0.04458,-0.40793 0.01143,-0.177671 -0.97518,-0.219105 -0.0031,-1.29e-4 -0.08168,0.285597 -0.08941,0.306039 -0.09415,0.250211 -0.2175,0.48297 -0.414334,0.669329 -0.225841,0.182965 -0.457208,0.310671 -0.751571,0.342048 -0.08114,0.0054 -0.148791,0.01347 -0.229925,0.0052 -0.154437,-0.01572 -0.308465,-0.05605 -0.450503,-0.11811 -0.185712,-0.117703 -0.261255,-0.238485 -0.337775,-0.44631 -0.123164,-0.351795 -0.205947,-0.715034 -0.273905,-1.08132 -0.06539,-0.377333 -0.101949,-0.752018 -0.05339,-1.134571 0.05776,-0.362466 0.14264,-0.723418 0.32041,-1.048004 0.112631,-0.193667 0.235054,-0.374729 0.440087,-0.479999 0.164838,-0.06783 0.216884,-0.06981 0.396907,-0.01561 0.223427,0.0835 0.41938,0.214844 0.56665,0.405273 0.205899,0.283125 0.342215,0.573685 0.427524,0.914778 0.06291,0.246494 0.126098,0.496165 0.117605,0.752753 0,0.707813 1.000998,0.707813 1.000998,0 z" />
    <path
       style="fill:#ffffff;fill-opacity:0.99532;stroke:#ffffff;stroke-width:0;stroke-dasharray:none"
       id="path48"
       d="m 96.193913,93.665954 c -0.02861,-0.503515 -0.02832,-1.008314 -0.03253,-1.512488 -0.01929,-0.672571 0.02394,-1.344461 0.113006,-2.010889 0.01024,-0.0564 0.02048,-0.112802 0.0307,-0.169206 0.0079,-0.01418 0.02878,-0.05797 0.02379,-0.04252 -0.07315,0.225811 -0.126416,0.159515 -0.465823,0.270952 -0.02273,0.0075 -0.07539,-0.02894 -0.07153,-0.0053 0.0074,0.04527 0.05865,0.07055 0.08798,0.105828 0.457229,0.582967 0.851366,1.210985 1.230427,1.846445 0.292266,0.481785 0.532728,0.992796 0.821639,1.476251 0.159666,0.246869 0.392497,0.610439 0.762088,0.519777 0.406003,-0.0996 0.436851,-0.310986 0.56339,-0.605703 0.174051,-0.56147 0.254508,-1.144979 0.324022,-1.726848 0.04741,-0.483526 0.08102,-0.968113 0.103129,-1.453409 2.65e-4,-0.212675 0.02297,-0.423741 0.03999,-0.635392 0.0123,-0.161896 0.01627,-0.324234 0.01834,-0.486532 7.94e-4,-0.09519 7.94e-4,-0.190391 7.94e-4,-0.285588 -5.3e-4,-0.707814 -1.001644,-0.706901 -1.000999,7.93e-4 v 0 c 8.3e-5,0.0907 2.31e-4,0.181399 -5.29e-4,0.272095 -0.0019,0.139827 -0.0049,0.279699 -0.01524,0.419198 -0.01778,0.2231 -0.04112,0.44572 -0.04215,0.669833 -0.02093,0.460962 -0.05287,0.921215 -0.09715,1.380558 -0.05962,0.502788 -0.127767,1.006489 -0.267565,1.494404 -0.03301,0.20978 -0.01582,-0.03989 0.289591,-0.04095 0.104299,-2.65e-4 0.197803,0.06786 0.291592,0.11349 0.01386,0.0067 0.03396,0.05118 0.02352,0.03983 -0.03597,-0.03912 -0.110652,-0.155387 -0.134821,-0.191535 -0.291333,-0.480557 -0.523881,-0.995262 -0.819962,-1.473446 -0.411449,-0.688848 -0.839338,-1.370144 -1.341192,-1.997744 -0.0982,-0.10709 -0.318915,-0.379391 -0.473329,-0.393636 -0.204396,-0.01887 -0.418139,0.02797 -0.605594,0.111598 -0.16342,0.0729 -0.243618,0.49806 -0.26725,0.655122 -0.09384,0.712941 -0.14214,1.43139 -0.121653,2.150819 0.0044,0.531283 0.0038,1.063318 0.03652,1.593784 0.0634,0.704969 1.060379,0.615301 0.996974,-0.08967 z" />
    <path
       style="fill:#ffffff;fill-opacity:0.99532;stroke:#ffffff;stroke-width:0;stroke-dasharray:none"
       id="path49"
       d="m 103.69468,88.768755 c -0.31944,-0.04051 -0.63566,0.02141 -0.92526,0.160502 -0.0814,0.03907 -0.15735,0.0884 -0.23603,0.132603 -0.4535,0.312685 -0.80905,0.744416 -1.08931,1.215372 -0.0588,0.0989 -0.11074,0.201771 -0.16611,0.302657 -0.23406,0.483621 -0.43459,1.009941 -0.44308,1.555355 -0.002,0.131726 0.0144,0.263089 0.0216,0.394632 0.0913,0.620265 0.34398,1.207264 0.76031,1.679892 0.0706,0.08016 0.1505,0.15163 0.22575,0.227447 0.3112,0.264715 0.68244,0.442653 1.08721,0.507574 0.23482,0.03766 0.39297,0.03269 0.62725,0.03687 0.38408,-0.0181 0.77445,-0.05054 1.14312,-0.168185 0.24131,-0.07701 0.29583,-0.115927 0.51731,-0.229037 0.29328,-0.177874 0.57148,-0.401817 0.74248,-0.706189 0.13575,-0.241638 0.15422,-0.355486 0.23405,-0.619606 0.12598,-0.542041 0.21586,-1.097209 0.1959,-1.655514 -0.004,-0.103523 -0.015,-0.20664 -0.0224,-0.309959 -0.0418,-0.360934 -0.12328,-0.718968 -0.27157,-1.051973 -0.0853,-0.191482 -0.11865,-0.232778 -0.22737,-0.409366 -0.18622,-0.267639 -0.41681,-0.497843 -0.68054,-0.688877 -0.14813,-0.107307 -0.24099,-0.158822 -0.39669,-0.252585 -0.33411,-0.192772 -0.69445,-0.328856 -1.06889,-0.417364 -0.68947,-0.160115 -0.91591,0.814938 -0.22644,0.97505 v 0 c 0.27378,0.06189 0.53603,0.163108 0.78096,0.301046 0.27989,0.166524 0.55228,0.34386 0.74362,0.614635 0.066,0.102055 0.0944,0.13848 0.14614,0.249701 0.11082,0.238416 0.16989,0.496609 0.20272,0.756377 0.019,0.229756 0.027,0.255143 0.0213,0.490874 -0.009,0.37733 -0.0779,0.750686 -0.15787,1.118531 -0.017,0.06216 -0.0663,0.261924 -0.10226,0.338608 -0.078,0.16627 -0.22756,0.282882 -0.3774,0.37982 -0.11905,0.06487 -0.17891,0.104043 -0.3085,0.14799 -0.28049,0.09512 -0.5804,0.11585 -0.8735,0.135123 -0.0976,-7.94e-4 -0.31712,5.29e-4 -0.42224,-0.0127 -0.21998,-0.02794 -0.42818,-0.10821 -0.60368,-0.243809 -0.0487,-0.04633 -0.10053,-0.08958 -0.14609,-0.138999 -0.28903,-0.313515 -0.46984,-0.708371 -0.5441,-1.126042 -0.008,-0.07849 -0.022,-0.156602 -0.023,-0.235456 -0.005,-0.408083 0.15528,-0.803187 0.32511,-1.165156 0.23115,-0.428662 0.48514,-0.831736 0.8787,-1.130935 0.172,-0.10573 0.33968,-0.199543 0.54784,-0.164092 0.70344,0.07854 0.81451,-0.916284 0.11106,-0.994817 z" />
    <path
       style="fill:#ffffff;fill-opacity:0.99532;stroke:#ffffff;stroke-width:0;stroke-dasharray:none"
       id="path50"
       d="m 90.763168,92.080365 c 0.01193,0.202419 0.02647,0.404622 0.05504,0.605417 0.0037,0.02463 0.0074,0.04929 0.01111,0.07393 0.10533,0.699934 1.095187,0.550971 0.989856,-0.148961 v 0 c -0.0034,-0.02244 -0.0068,-0.04486 -0.01013,-0.06729 -0.02236,-0.153731 -0.03118,-0.308417 -0.04487,-0.463105 0,-0.707814 -1.001001,-0.707814 -1.001001,0 z" />
    <path
       style="fill:#ffffff;fill-opacity:0.99532;stroke:#ffffff;stroke-width:0;stroke-dasharray:none"
       id="path54"
       d="m 66.140215,98.127837 c 0.04676,0.268002 0.122484,0.529217 0.182769,0.794237 0.09666,0.623197 0.153514,1.251446 0.234487,1.876686 0.03681,0.29765 0.07414,0.59662 0.163375,0.88367 0.154041,0.47039 0.81928,0.25254 0.665239,-0.21785 v 0 c -0.088,-0.24046 -0.08917,-0.50653 -0.134424,-0.75582 -0.08399,-0.64717 -0.140443,-1.297953 -0.246173,-1.942216 -0.05638,-0.24697 -0.125979,-0.490527 -0.172588,-0.739632 -0.07136,-0.489805 -0.764051,-0.388877 -0.692685,0.100925 z" />
    <path
       style="fill:#ffffff;fill-opacity:0.99532;stroke:#ffffff;stroke-width:0;stroke-dasharray:none"
       id="path55"
       d="m 66.629655,98.019639 c 0.182409,-0.01725 0.379497,-0.0456 0.557805,0.01529 0.03263,0.01114 0.06145,0.03131 0.09218,0.04696 0.232447,0.193742 0.294174,0.394497 0.270891,0.687176 -0.07341,0.291124 -0.226727,0.388406 -0.01363,0.729766 0.05095,0.08162 0.149378,0.121309 0.22407,0.181965 0.20302,0.121327 0.420462,0.216762 0.624697,0.335804 0.08676,0.0506 0.179208,0.10622 0.24529,0.1847 0.01839,0.0219 0.02805,0.0497 0.04208,0.0746 0.03058,0.0973 0.0059,0.15609 -0.06588,0.22036 -0.130596,0.11694 -0.03997,0.0441 -0.202841,0.16349 -0.205845,0.13576 -0.434501,0.23257 -0.676171,0.2804 -0.146167,0.0201 -0.0718,0.0115 -0.223123,0.0253 -0.49276,0.0468 -0.426596,0.74365 0.06616,0.69687 v 0 c 0.200128,-0.0196 0.09953,-0.007 0.301762,-0.0373 0.344297,-0.0757 0.671121,-0.20773 0.960631,-0.41233 0.150569,-0.1208 0.264171,-0.19377 0.374819,-0.35794 0.213186,-0.31629 0.20782,-0.65689 0.0334,-0.986897 -0.05022,-0.06468 -0.09406,-0.134868 -0.150664,-0.194042 -0.255392,-0.266997 -0.622744,-0.387938 -0.934524,-0.57049 -0.108127,-0.0021 -0.03231,-0.01487 -0.04525,0.188545 -2.01e-4,0.0032 -0.01069,0.0037 -0.0096,7.94e-4 0.01609,-0.04225 0.04005,-0.0812 0.05628,-0.123394 0.06738,-0.175109 0.05776,-0.179009 0.09192,-0.373174 0.0013,-0.07995 0.01032,-0.160123 0.0043,-0.239855 -0.02828,-0.371449 -0.199218,-0.725935 -0.482886,-0.971008 -0.06713,-0.058 -0.147153,-0.09912 -0.220731,-0.148687 -0.07731,-0.02971 -0.152353,-0.0662 -0.231942,-0.08914 -0.255828,-0.07372 -0.52973,-0.04927 -0.789802,-0.02043 -0.489818,0.07125 -0.389062,0.763958 0.100758,0.692711 z" />
    <path
       style="fill:#ffffff;fill-opacity:0.99532;stroke:#ffffff;stroke-width:0;stroke-dasharray:none"
       id="path56"
       d="m 70.555177,98.870848 c -0.228428,0.241107 -0.400066,0.548389 -0.468259,0.87602 -0.01688,0.08105 -0.02199,0.164121 -0.03296,0.246181 -0.0019,0.433821 0.114416,0.866481 0.368099,1.222591 0.04581,0.0643 0.100335,0.12194 0.1505,0.18291 0.371856,0.37269 0.687761,0.49506 1.204685,0.53855 0.07164,-0.006 0.144486,-0.003 0.214929,-0.0168 0.469744,-0.0948 0.620636,-0.42381 0.737216,-0.84049 0.05798,-0.27445 0.100071,-0.56104 -0.0087,-0.82916 -0.01984,-0.0489 -0.04934,-0.0933 -0.07401,-0.14002 -0.115578,-0.178726 -0.256358,-0.33428 -0.429149,-0.458158 -0.02924,-0.01609 -0.05849,-0.03218 -0.08774,-0.04827 -0.440457,-0.225822 -0.759819,0.397078 -0.31936,0.622908 v 0 c 0.0034,5.3e-4 0.0067,0.001 0.01005,0.002 0.09265,0.0543 0.15128,0.1483 0.218405,0.22893 0.01278,0.0166 0.03272,0.029 0.03952,0.0489 0.04304,0.12542 -0.01352,0.26893 -0.02564,0.39353 -0.0046,0.0189 -0.06784,0.27511 -0.0838,0.29316 -0.03629,0.041 -0.09373,0.0377 -0.14178,0.0454 -0.290687,-0.0147 -0.507344,-0.0829 -0.719783,-0.29191 -0.07607,-0.0864 -0.123796,-0.13154 -0.180658,-0.23355 -0.108929,-0.19542 -0.164605,-0.41934 -0.177297,-0.64129 0.01887,-0.249011 0.103873,-0.474079 0.261184,-0.669752 0.375859,-0.322074 -0.07962,-0.853617 -0.455481,-0.531542 z" />
    <path
       style="fill:#ffffff;fill-opacity:0.99532;stroke:#ffffff;stroke-width:0;stroke-dasharray:none"
       id="path57"
       d="m 72.130903,100.12334 c 0.0848,0.32418 0.28158,0.58447 0.508188,0.82294 0.226079,0.24514 0.492874,0.38107 0.810427,0.46666 0.0524,0.008 0.104799,0.015 0.157197,0.0225 0.49114,0.0615 0.578088,-0.63309 0.08695,-0.69458 v 0 c -0.0232,-0.002 -0.0464,-0.004 -0.0696,-0.006 -0.187171,-0.0441 -0.349475,-0.12695 -0.479494,-0.27303 -0.150902,-0.1558 -0.287866,-0.31817 -0.341553,-0.534317 -0.138335,-0.47525 -0.81044,-0.279617 -0.672108,0.195637 z" />
    <path
       style="fill:#ffffff;fill-opacity:0.99532;stroke:#ffffff;stroke-width:0;stroke-dasharray:none"
       id="path58"
       d="m 70.917098,99.393964 c 0.217705,0.01453 0.423005,0.07856 0.621898,0.164266 0.18034,0.0755 0.312563,0.207846 0.428072,0.360601 0.0657,0.108319 0.09442,0.233099 0.127844,0.354079 0.13276,0.47684 0.807111,0.28908 0.674349,-0.18775 v 0 c -0.05808,-0.207316 -0.118414,-0.415897 -0.246997,-0.592657 -0.191312,-0.24656 -0.417859,-0.455168 -0.709263,-0.578417 -0.258463,-0.108884 -0.525595,-0.192767 -0.807048,-0.21446 -0.490969,-0.06283 -0.579826,0.631507 -0.08886,0.694338 z" />
    <path
       style="fill:#ffffff;fill-opacity:0.99532;stroke:#ffffff;stroke-width:0;stroke-dasharray:none"
       id="path59"
       d="m 75.514464,100.91818 c 0.0016,-0.45368 -0.03699,-0.90579 -0.105924,-1.353872 -0.03907,-0.189513 -0.08029,-0.379156 -0.131863,-0.565764 -0.0042,-0.01513 -0.0604,-0.2124 -0.08124,-0.23455 -0.07483,-0.07954 -0.168291,-0.139224 -0.252436,-0.208836 -0.146238,0.07469 -0.31673,0.114138 -0.438717,0.224062 -0.05721,0.05155 -0.04361,0.147979 -0.05809,0.223618 -0.05108,0.266764 -0.0444,0.551741 -0.05277,0.822158 -0.01265,0.331314 -0.01251,0.663464 0.04955,0.990024 0.1045,0.39178 0.284845,0.35597 0.686565,0.17191 0.05695,-0.0261 0.118125,-0.3571 0.130669,-0.42109 0.01207,-0.0438 0.03805,-0.39339 0.06529,-0.40242 0.0154,-0.005 0.0035,0.0185 -0.01394,0.0594 -0.0073,0.009 -0.02743,0.0168 -0.02193,0.0271 0.006,0.0111 0.02529,0.002 0.0379,0.003 0.02482,0.002 0.0496,0.004 0.07438,0.007 0.09772,0.01 0.184256,0.0213 0.276482,0.0548 0.183223,0.10783 0.276584,0.31282 0.356192,0.50097 0.06551,0.20738 0.14968,0.43288 0.09342,0.65163 -0.04324,0.0505 0.0164,-0.0405 0.01294,-0.0473 -0.0092,-0.018 -0.04039,-2.6e-4 -0.06047,0.001 -0.107797,0.0138 -0.20565,-0.0288 -0.303961,-0.0662 -0.03437,-0.0179 -0.101196,-0.0442 -0.103915,-0.0873 -0.03007,-0.0633 -0.06836,-0.12192 -0.106212,-0.18071 -0.270836,-0.4143 -0.85675,-0.0313 -0.585912,0.38302 v 0 c 0.03037,0.0452 0.05881,0.0913 0.08196,0.14076 0.112286,0.18293 0.262456,0.32108 0.465873,0.39877 0.206264,0.078 0.417208,0.13582 0.64022,0.10617 0.34585,-0.0491 0.544481,-0.16769 0.647515,-0.51967 0.0084,-0.0517 0.02064,-0.10302 0.02532,-0.15525 0.0278,-0.31091 -0.06285,-0.61798 -0.166032,-0.90717 -0.169248,-0.37517 -0.385746,-0.727052 -0.785738,-0.886456 -0.241702,-0.07153 -0.556429,-0.137218 -0.805476,-0.06596 -0.06474,0.01852 -0.124336,0.05174 -0.186505,0.07761 -0.04829,0.04305 -0.103677,0.07926 -0.144862,0.129145 -0.151604,0.183637 -0.147931,0.425001 -0.180121,0.647181 -0.0058,0.0315 -0.01093,0.063 -0.01728,0.0944 -0.0045,0.0222 -0.01574,0.0435 -0.01532,0.0661 1.19e-4,0.006 0.01,-0.009 0.01635,-0.01 0.156181,-0.0208 0.315103,-0.0858 0.469508,-0.0544 0.0571,0.0116 0.14192,0.25671 0.104016,0.14969 -0.05643,-0.27418 -0.04264,-0.55567 -0.03681,-0.833826 0.0058,-0.191426 0.01138,-0.382815 0.02701,-0.573765 0.0038,-0.04702 0.01336,-0.09367 0.01408,-0.140843 1.4e-4,-0.0091 -0.0027,-0.02677 -0.01151,-0.02469 -0.129808,0.03073 -0.254945,0.07862 -0.382416,0.117923 -0.06339,-0.06333 -0.123055,-0.130623 -0.190167,-0.189992 -0.01032,-0.0091 0.01302,0.02437 0.01762,0.03735 0.01146,0.03229 0.02132,0.06514 0.03045,0.09815 0.04575,0.165375 0.0826,0.333356 0.118655,0.501025 0.06468,0.412378 0.09851,0.828858 0.09764,1.246488 0,0.49498 0.7,0.49498 0.7,0 z" />
    <path
       style="fill:#ffffff;fill-opacity:0.99532;stroke:#ffffff;stroke-width:0;stroke-dasharray:none"
       id="path60"
       d="m 79.183586,99.434006 c -0.147426,-0.183841 -0.301585,-0.382402 -0.50419,-0.510096 -0.04748,-0.02993 -0.09923,-0.05249 -0.148846,-0.07874 -0.06608,-0.01355 -0.130787,-0.03988 -0.198237,-0.04066 -0.464547,-0.0054 -0.623202,0.465706 -0.749496,0.82465 -0.138342,0.39854 -0.242937,0.80541 -0.305255,1.22246 -0.04267,0.39019 0.03793,0.72625 0.307708,1.0213 0.04762,0.0521 0.10341,0.0961 0.155115,0.14408 0.285453,0.20418 0.630264,0.34442 0.988142,0.30626 0.07211,-0.008 0.14193,-0.0298 0.212897,-0.0448 0.0698,-0.0336 0.14574,-0.0566 0.209401,-0.10073 0.398775,-0.27638 0.469067,-0.77129 0.535485,-1.21395 0.0083,-0.0797 0.01752,-0.15931 0.0249,-0.23909 0.0059,-0.0641 0.0086,-0.12848 0.01505,-0.19252 0.0031,-0.0305 0.03116,-0.11593 0.01355,-0.0909 -0.03179,0.0452 -0.0082,0.13244 -0.05867,0.15503 -0.473654,0.2122 -0.406829,-0.0819 -0.44147,0.0823 0.164189,0.23067 0.338507,0.45071 0.541498,0.64832 0.160468,0.17083 0.355212,0.29179 0.565555,0.39055 0.07154,0.0293 0.143751,0.0567 0.216432,0.0829 0.465823,0.16735 0.702501,-0.49143 0.236675,-0.65878 v 0 c -0.05343,-0.0191 -0.106151,-0.0399 -0.159361,-0.0595 -0.141621,-0.0638 -0.266626,-0.14131 -0.372274,-0.25797 -0.175355,-0.16874 -0.320956,-0.3607 -0.462973,-0.55801 -0.182724,-0.22129 -0.185629,-0.299648 -0.639416,-0.14354 -0.157028,0.054 -0.151942,0.61117 -0.172024,0.73917 -0.02588,0.17968 -0.05833,0.55114 -0.176943,0.70079 -0.01164,0.0147 -0.02861,0.0242 -0.04291,0.0363 -0.196255,0.0701 -0.393753,0.002 -0.56597,-0.10276 -0.201538,-0.16942 -0.26411,-0.26661 -0.237913,-0.54212 0.05452,-0.37393 0.150762,-0.73768 0.273968,-1.094965 0.0036,-0.01061 0.121205,-0.341378 0.117819,-0.345286 -0.01807,-0.02088 -0.121484,0.01818 -0.130879,-0.03588 0.123296,0.01826 0.312684,0.281554 0.391766,0.375034 0.296169,0.396587 0.857033,-0.02225 0.560866,-0.418847 z" />
    <path
       style="fill:#ffffff;fill-opacity:0.99532;stroke:#ffffff;stroke-width:0;stroke-dasharray:none"
       id="path61"
       d="m 82.392453,101.7238 c 0.320773,-0.24124 0.506195,-0.53477 0.683686,-0.8888 0.185004,-0.36997 0.297399,-0.76772 0.336394,-1.178498 0.01333,-0.240657 -0.01217,-0.493535 -0.158166,-0.694801 -0.02721,-0.03751 -0.06105,-0.06972 -0.09158,-0.104582 -0.03874,-0.02741 -0.07285,-0.06296 -0.116211,-0.08223 -0.127968,-0.05687 -0.329694,-0.09382 -0.443473,0.03506 -0.08507,0.09636 -0.119862,0.23449 -0.131474,0.362498 -0.0088,0.09728 0.111707,0.229849 0.1685,0.301726 0.174918,0.185517 0.353957,0.36717 0.5325,0.549177 0.187582,0.19095 0.350832,0.40296 0.508325,0.61882 0.172855,0.24234 0.364948,0.47184 0.523336,0.72416 0.01617,-0.0867 0.115887,0.3454 0.07061,0.2669 0.0032,-0.0835 0.09383,-0.0923 -0.02289,-0.0813 -0.100367,0.0136 -0.19648,0.002 -0.294741,-0.0174 -0.0062,-0.002 -0.02479,-0.007 -0.0186,-0.005 0.257887,0.0773 0.02596,-0.0267 -0.143549,0.68003 -0.0013,0.006 0.01116,0.005 0.01699,0.007 0.06857,0.0212 0.08371,0.0229 0.160583,0.0406 0.181203,0.0454 0.366131,0.0718 0.547741,0.11503 0.08992,0.0208 0.04499,0.0109 0.134778,0.0295 0.48486,0.0996 0.62565,-0.58614 0.140791,-0.68569 v 0 c -0.0717,-0.0146 -0.03369,-0.006 -0.113967,-0.0249 -0.184658,-0.0437 -0.372248,-0.0719 -0.55662,-0.11707 -0.01879,-0.004 -0.195437,-0.0514 -0.195585,-0.0511 -0.293772,0.5833 -0.441354,0.61716 -0.104455,0.69976 0.169447,0.0318 0.339863,0.0469 0.511818,0.0248 0.287938,-0.0388 0.490844,-0.13322 0.609391,-0.41642 0.01095,-0.0475 0.02666,-0.0942 0.03287,-0.14263 0.03167,-0.24672 -0.06893,-0.48638 -0.184631,-0.69722 -0.16927,-0.26333 -0.364051,-0.50881 -0.548743,-0.76138 -0.177914,-0.243002 -0.362577,-0.481455 -0.574239,-0.69644 -0.165515,-0.167981 -0.329374,-0.337637 -0.493937,-0.506582 -0.0094,-0.0094 -0.02553,-0.04122 -0.02826,-0.0282 -0.04638,0.221036 0.332046,-0.05567 -0.125077,0.370986 -0.101788,0.095 -0.277915,0.07098 -0.361873,-0.02193 5.29e-4,-0.03127 0.02808,0.02066 0.03011,0.02537 0.03039,0.07019 0.02349,0.150254 0.0223,0.224211 -0.02331,0.323874 -0.124807,0.636035 -0.266015,0.927345 -0.116604,0.23814 -0.2467,0.46525 -0.461915,0.6292 -0.403579,0.28657 0.0016,0.85732 0.405276,0.57075 z" />
    <path
       style="fill:#ffffff;fill-opacity:0.99532;stroke:#ffffff;stroke-width:0;stroke-dasharray:none"
       id="path62"
       d="m 81.35871,97.585021 c -0.09206,0.260498 -0.157059,0.528648 -0.227211,0.795448 -0.125741,0.478737 0.551296,0.656561 0.677037,0.177824 v 0 c 0.06347,-0.241892 0.121872,-0.485002 0.20343,-0.721759 0.177845,-0.46192 -0.475409,-0.713433 -0.653256,-0.251513 z" />
    <path
       style="fill:#ffffff;fill-opacity:0.99532;stroke:#ffffff;stroke-width:0;stroke-dasharray:none"
       id="path63"
       d="m 88.332499,101.61133 c -0.0011,-0.40841 -0.03087,-0.8162 -0.06627,-1.22287 -0.02667,-0.30992 -0.04668,-0.620405 -0.05839,-0.931242 0.0029,-0.146056 -0.01037,-0.289433 -0.03509,-0.433121 -0.02053,-0.131738 -0.0208,-0.265641 -0.02305,-0.398642 0.01363,-0.24257 -0.06607,-0.477073 -0.06507,-0.718405 0.0042,-0.0058 0.0062,-0.02048 0.01252,-0.01728 0.01405,0.0071 -0.0021,0.0523 -0.0019,0.05685 7.94e-4,0.01497 0.06812,0.0021 0.0829,0.0033 0.02358,2.64e-4 0.04753,-0.003 0.07074,0.0011 0.149178,0.02672 0.269775,0.270169 0.333481,0.377063 0.0937,0.182602 0.167701,0.374372 0.228066,0.570333 0.01302,0.04223 0.08652,0.224552 0.04345,0.274908 -0.0052,-0.0027 -0.0098,-0.0081 -0.01574,-0.0081 -0.01617,-1.46e-4 -0.05274,0.02752 -0.05966,0.03097 -0.04835,0.02408 -0.103838,0.03619 -0.155768,0.04916 -0.0199,0.0036 -0.03979,0.0072 -0.05968,0.01085 -0.485399,0.09689 -0.348374,0.783346 0.137025,0.686459 v 0 c 0.0373,-0.0078 0.0746,-0.01558 0.111903,-0.02339 0.266965,-0.07888 0.527881,-0.205303 0.663925,-0.465476 0.0339,-0.06484 0.04939,-0.137755 0.07408,-0.206631 0.003,-0.0717 0.01328,-0.143468 0.0089,-0.215096 -0.0056,-0.09192 -0.05817,-0.271277 -0.08467,-0.355828 -0.07774,-0.248052 -0.173752,-0.490262 -0.298149,-0.718944 -0.0531,-0.08254 -0.09977,-0.169593 -0.159313,-0.24761 -0.22501,-0.294817 -0.538835,-0.483577 -0.916448,-0.45547 -0.05495,0.0083 -0.110821,0.01193 -0.164857,0.02495 -0.245157,0.05898 -0.446286,0.221475 -0.523237,0.466135 -0.01746,0.05552 -0.01834,0.114949 -0.02748,0.172421 0.0063,0.242499 0.06412,0.477407 0.06509,0.719775 0.003,0.168739 0.0052,0.338384 0.03309,0.505267 0.01953,0.11343 0.02922,0.224917 0.02545,0.340847 0.01222,0.322273 0.0328,0.644197 0.06053,0.965507 0.03367,0.38648 0.06253,0.77402 0.06363,1.16215 0,0.49497 0.699997,0.49497 0.699997,0 z" />
    <path
       style="fill:#ffffff;fill-opacity:0.99532;stroke:#ffffff;stroke-width:0;stroke-dasharray:none"
       id="path64"
       d="m 90.924448,101.57867 c 0.02938,-0.3811 0.04144,-0.76329 0.05078,-1.14532 0.0058,-0.28859 0.0068,-0.577252 0.0076,-0.865896 0.0013,-0.494972 -0.698675,-0.496845 -0.699998,-0.0019 v 0 c -7.93e-4,0.283575 -0.0019,0.567166 -0.0074,0.850696 -0.0089,0.36631 -0.0204,0.73277 -0.04804,1.09822 -0.04537,0.49289 0.651682,0.55706 0.697053,0.0642 z" />
    <circle
       id="path65"
       style="fill:#ffffff;stroke:#ffffff;stroke-width:0.264583"
       cx="90.848969"
       cy="98.331184"
       r="0" />
    <path
       style="fill:#ffffff;fill-opacity:0.99532;stroke:#ffffff;stroke-width:0;stroke-dasharray:none"
       id="path66"
       d="m 90.166919,97.985878 c 0.0132,0.112728 0.0052,0.053 0.02477,0.179088 0.07712,0.488929 0.768572,0.379863 0.691452,-0.109066 v 0 c -0.01627,-0.100637 -0.0088,-0.04806 -0.02172,-0.157822 -0.06208,-0.491066 -0.756555,-0.403267 -0.694473,0.0878 z" />
    <path
       style="fill:#ffffff;fill-opacity:0.99532;stroke:#ffffff;stroke-width:0;stroke-dasharray:none"
       id="path67"
       d="m 93.497163,99.5561 c -0.01315,-0.24412 0.02606,-0.494045 -0.0173,-0.736335 -0.0113,-0.0631 -0.03213,-0.124121 -0.04819,-0.186185 -0.104021,-0.259535 -0.273317,-0.4958 -0.533374,-0.616418 -0.04676,-0.0217 -0.09704,-0.03481 -0.145557,-0.05222 -0.07839,-0.004 -0.157068,-0.0199 -0.235178,-0.01212 -0.411356,0.04088 -0.771274,0.383209 -1.038251,0.668658 -0.343189,0.416269 -0.424683,0.933958 -0.451821,1.45566 -0.0052,0.38196 0.0058,0.78161 0.184467,1.12965 0.03436,0.0669 0.07937,0.12784 0.11906,0.19176 0.218207,0.25834 0.517223,0.45516 0.843285,0.55232 0.06386,0.019 0.130159,0.0286 0.195239,0.043 0.07183,-7.9e-4 0.144571,0.009 0.2155,-0.002 0.384591,-0.0617 0.602062,-0.36594 0.7698,-0.6851 0.06988,-0.14922 0.113091,-0.30816 0.159745,-0.46551 0.0096,-0.0323 0.01736,-0.0653 0.02886,-0.097 7.93e-4,-0.002 0.0081,-0.003 0.0066,-10e-4 -0.04027,0.0476 -0.08276,0.0933 -0.124148,0.13997 -0.117853,-0.007 -0.235707,-0.014 -0.35356,-0.021 -0.0031,0.004 -0.01148,0.008 -0.0094,0.0122 0.01804,0.0409 0.04402,0.0778 0.06625,0.11657 0.0974,0.16984 0.205439,0.32749 0.321117,0.48537 0.15503,0.1876 0.07802,0.0988 0.230196,0.26703 0.332822,0.36637 0.850952,-0.10431 0.51813,-0.47068 v 0 c -0.122975,-0.1347 -0.0614,-0.0645 -0.184319,-0.21095 -0.10033,-0.13598 -0.192537,-0.27022 -0.276661,-0.41685 -0.02831,-0.0493 -0.153133,-0.27799 -0.187929,-0.29468 -0.133241,-0.0639 -0.288684,-0.0634 -0.433025,-0.0951 -0.06397,0.0578 -0.136334,0.10745 -0.19192,0.17334 -0.09219,0.10928 -0.113904,0.42702 -0.193395,0.5599 -0.04455,0.0917 -0.08868,0.16529 -0.149064,0.24637 -0.01384,0.0186 -0.01812,0.0462 -0.03793,0.0583 -0.01326,0.008 -0.02978,0.009 -0.04467,0.0131 -0.214341,-0.0226 -0.424132,-0.15294 -0.583657,-0.2918 -0.194109,-0.26112 -0.194495,-0.59048 -0.189392,-0.90394 0.01474,-0.354525 0.04877,-0.721766 0.26801,-1.015163 0.12205,-0.136234 0.242811,-0.249269 0.394843,-0.352171 0.03234,-0.02188 0.0658,-0.04213 0.09951,-0.06185 0.01799,-0.01053 0.04082,-0.01402 0.0555,-0.02883 0.0051,-0.0052 -0.0041,-0.01397 -0.0061,-0.02098 0.108572,0.01804 0.171593,0.10075 0.220599,0.196051 0.08502,0.230261 0.01805,0.488804 0.03814,0.728718 0,0.494985 0.7,0.494985 0.7,0 z" />
    <path
       style="fill:#ffffff;fill-opacity:0.99532;stroke:#ffffff;stroke-width:0;stroke-dasharray:none"
       id="path68"
       d="m 95.848896,101.37483 c -0.0068,-0.5353 0.009,-1.0702 0.03638,-1.60474 0.01804,-0.259876 0.03389,-0.517834 0.09063,-0.772012 0.0069,-0.03099 0.0047,0.07644 -0.0227,0.09251 -0.34776,0.204158 -0.370644,-0.008 -0.333854,0.178562 0.278445,0.423614 0.539142,0.85826 0.793996,1.29632 0.156869,0.27218 0.310457,0.55005 0.52873,0.77841 0.113721,0.0315 0.225153,0.11603 0.341165,0.0945 0.387085,-0.072 0.423373,-0.59537 0.460229,-0.88995 0.03625,-0.39721 0.03767,-0.796537 0.04016,-1.195076 0.0031,-0.494964 -0.696904,-0.499322 -0.699987,-0.0044 v 0 c -0.0024,0.371695 -0.0034,0.744056 -0.03502,1.114666 -0.01381,0.11699 -0.01529,0.15048 -0.03693,0.26112 -0.0053,0.0274 -0.01323,0.0542 -0.01894,0.0815 -0.0021,0.0101 -0.01453,0.0338 -0.0046,0.0307 0.342278,-0.10551 0.07304,-0.15135 0.450818,0.0139 -0.189071,-0.16993 -0.279318,-0.43205 -0.420531,-0.63733 -0.271068,-0.465917 -0.547442,-0.929121 -0.848437,-1.376534 -0.24757,-0.26729 -0.251701,-0.38849 -0.739936,-0.211386 -0.08184,0.02969 -0.104516,0.141438 -0.137724,0.221914 -0.02952,0.07153 -0.03635,0.150648 -0.0476,0.227206 -0.01836,0.124946 -0.04998,0.552447 -0.05853,0.659815 -0.02773,0.546405 -0.04423,1.093185 -0.03729,1.640355 0,0.49498 0.7,0.49498 0.7,0 z" />
    <path
       style="fill:#ffffff;fill-opacity:0.99532;stroke:#ffffff;stroke-width:0;stroke-dasharray:none"
       id="path69"
       d="m 99.41793,98.846962 c -0.235728,0.308946 -0.331073,0.685985 -0.400648,1.06095 -0.06777,0.425098 0.02689,0.840848 0.291605,1.182628 0.04093,0.0528 0.0894,0.0994 0.134099,0.14905 0.215611,0.19079 0.475078,0.34893 0.773104,0.34392 0.0584,-0.001 0.1157,-0.0157 0.17356,-0.0236 0.32753,-0.0876 0.53915,-0.2466 0.76003,-0.49627 0.13007,-0.18603 0.27418,-0.37886 0.33405,-0.6022 0.014,-0.052 0.0202,-0.10577 0.0303,-0.15866 0.0237,-0.339435 -0.0961,-0.651091 -0.25273,-0.944813 -0.14026,-0.268239 -0.3212,-0.504571 -0.54578,-0.706601 -0.17008,-0.157258 -0.37245,-0.243927 -0.59724,-0.286255 -0.487475,-0.08584 -0.608866,0.603557 -0.12139,0.689393 v 0 c 0.10023,0.01476 0.18097,0.04866 0.25575,0.12197 0.16812,0.142764 0.28938,0.322805 0.39378,0.516041 0.0877,0.156204 0.15995,0.322725 0.17584,0.503265 0.001,0.1524 -0.12974,0.28135 -0.19924,0.4067 -0.10445,0.12108 -0.2013,0.21508 -0.35787,0.26858 -0.0148,0.007 -0.0265,0.0244 -0.0427,0.0237 -0.0983,-0.004 -0.18884,-0.0785 -0.26539,-0.13034 -0.222663,-0.22979 -0.294338,-0.40428 -0.251031,-0.73149 0.04541,-0.257243 0.100647,-0.521239 0.251584,-0.740198 0.315237,-0.381605 -0.224433,-0.827423 -0.539673,-0.445817 z" />
    <path
       style="fill:#ffffff;fill-opacity:0.99532;stroke:#ffffff;stroke-width:0;stroke-dasharray:none"
       id="path70"
       d="m 103.32668,100.71937 c -0.0145,0.009 0.013,0.0119 0.008,0.0156 -0.0531,0.0426 -0.1587,-0.008 -0.1655,0.005 0.0153,0.0403 0.0315,0.0812 0.0391,0.12387 0.001,0.007 0.002,0.0275 -8e-5,0.0208 -0.0173,-0.0757 -0.008,-0.062 0.0156,-0.14788 0.0614,-0.0851 -0.0387,-0.002 -0.0352,-0.0322 0.003,-0.0302 0.0605,-0.0101 0.0909,-0.009 0.044,0.0162 0.0499,0.0246 0.0613,-0.0116 -0.0859,-0.48746 -0.77528,-0.36597 -0.68938,0.12149 v 0 c 0.0481,0.22167 0.13328,0.40427 0.3368,0.52661 0.0609,0.0198 0.11952,0.0489 0.18267,0.0595 0.15682,0.0264 0.36257,-0.0349 0.49024,-0.12646 0.0455,-0.0327 0.0836,-0.0746 0.1254,-0.11196 0.0329,-0.0628 0.0777,-0.12068 0.0987,-0.18839 0.0661,-0.21291 -0.0438,-0.44069 -0.14021,-0.62279 -0.0314,-0.0407 -0.0573,-0.0863 -0.0942,-0.12209 -0.23624,-0.229165 -0.55156,-0.20236 -0.79991,-0.0146 -0.36328,0.3362 0.11218,0.84995 0.47546,0.51375 z" />
    <path
       style="fill:#ffffff;fill-opacity:0.99532;stroke:#ffffff;stroke-width:0;stroke-dasharray:none"
       id="path71"
       d="m 103.66463,98.928054 c 0.008,-0.457393 -0.01,-0.91413 -0.0295,-1.370965 -0.0148,-0.236802 -0.0418,-0.472541 -0.0686,-0.708195 -0.056,-0.491791 -0.75153,-0.412554 -0.6955,0.07924 v 0 c 0.025,0.219456 0.0504,0.438967 0.0648,0.659442 0.0195,0.446685 0.0373,0.893239 0.0288,1.34048 0,0.494974 0.7,0.494974 0.7,0 z" />
    <path
       style="fill:#ffffff;fill-opacity:0.99532;stroke:#ffffff;stroke-width:0;stroke-dasharray:none"
       id="path72"
       d="m 105.17964,98.105078 c 0.11673,0.01177 0.23337,0.02011 0.35065,0.0218 0.49497,0.0029 0.49907,-0.697087 0.004,-0.699989 v 0 c -0.0973,0.0011 -0.194,-0.0114 -0.29096,-0.01889 -0.49291,-0.04511 -0.55671,0.651975 -0.0638,0.697087 z" />
    <path
       style="fill:#ffffff;fill-opacity:0.99532;stroke:#ffffff;stroke-width:0;stroke-dasharray:none"
       id="path73"
       d="m 105.35532,101.31969 c 0.15782,0 0.31565,0 0.47347,0 0.49498,0 0.49498,-0.7 0,-0.7 v 0 c -0.15782,0 -0.31565,0 -0.47347,0 -0.49498,0 -0.49498,0.7 0,0.7 z" />
    <path
       style="fill:#ffffff;fill-opacity:0.99532;stroke:#ffffff;stroke-width:0;stroke-dasharray:none"
       id="path74"
       d="m 107.35597,97.728671 c 0.0284,-0.08348 0.0827,-0.275161 0.1983,-0.270296 0.13368,0.02231 0.17387,0.06835 0.26212,0.16859 0.18215,0.236469 0.29813,0.494485 0.29408,0.795875 -0.029,0.184938 -0.10417,0.309189 -0.2678,0.396615 -0.19225,0.09086 -0.35688,0.204547 -0.32532,0.471046 0.023,0.19467 0.1433,0.242962 0.2721,0.321583 0.18846,0.08616 0.18856,0.155117 0.25083,0.346307 0.10016,0.306349 0.0749,0.616889 0.0202,0.928369 -0.0735,0.23442 -0.13708,0.4848 -0.2986,0.67544 -0.0939,0.0539 -0.21816,0.069 -0.32606,0.0661 -0.0128,-0.0436 -0.0368,-0.0945 -0.0592,-0.13885 -0.0197,-0.0597 -0.0103,-0.0283 -0.0278,-0.0944 -0.13761,-0.47546 -0.81002,-0.28086 -0.67241,0.1946 v 0 c 0.0442,0.14658 0.0184,0.0729 0.0781,0.22076 0.15469,0.29592 0.34619,0.48464 0.69584,0.5177 0.32002,-0.0126 0.63182,-0.0857 0.85866,-0.32932 0.23337,-0.30117 0.34812,-0.62736 0.44154,-0.9946 0.0712,-0.42869 0.0919,-0.85767 -0.0493,-1.276356 -0.12078,-0.3331 -0.24628,-0.580242 -0.5825,-0.733518 0.0289,0.06931 0.0936,0.130278 0.0927,0.205388 -0.006,0.474991 -0.0516,0.137507 -0.17138,0.303409 -0.0377,0.05218 0.27378,-0.190794 0.17144,-0.08876 0.0475,-0.03106 0.0979,-0.05814 0.14254,-0.09318 0.28767,-0.225652 0.42949,-0.559871 0.45613,-0.918586 -0.004,-0.07964 -0.002,-0.159861 -0.012,-0.238926 -0.05,-0.381598 -0.2414,-0.734039 -0.4823,-1.02715 -0.0521,-0.05055 -0.0996,-0.106286 -0.15625,-0.15164 -0.26298,-0.210508 -0.58592,-0.259692 -0.90379,-0.159753 -0.057,0.03087 -0.1177,0.05566 -0.17094,0.09261 -0.21767,0.151042 -0.34258,0.404159 -0.41071,0.652153 -0.11225,0.482081 0.56952,0.640818 0.68176,0.158739 z" />
    <path
       style="fill:#ffffff;fill-opacity:0.99532;stroke:#ffffff;stroke-width:0;stroke-dasharray:none"
       id="path75"
       d="m 65.304002,96.016682 c 0.392176,0 0.280472,0.0048 0.83116,-0.03465 1.485902,-0.106516 1.309296,-0.122883 3.107579,-0.218459 3.211851,-0.170701 4.582445,-0.19318 8.005013,-0.302752 11.660833,-0.235037 23.314676,0.490569 34.930906,1.439053 2.09479,0.171045 4.1877,0.364445 6.28155,0.546669 6.36666,0.598408 3.38402,0.308925 8.94855,0.862033 0.49255,0.04896 0.56179,-0.64761 0.0692,-0.696568 v 0 c -5.56987,-0.553625 -2.58438,-0.263872 -8.9571,-0.86283 -2.09618,-0.182414 -4.19141,-0.376023 -6.28852,-0.54724 -11.64155,-0.950447 -23.320806,-1.67693 -35.007031,-1.44076 -3.437199,0.110091 -4.802809,0.132345 -8.028519,0.303903 -1.687869,0.08977 -1.689587,0.115348 -3.103753,0.218218 -0.527799,0.03839 -0.406045,0.03338 -0.789075,0.03338 -0.494974,0 -0.494974,0.7 0,0.7 z" />
    <path
       style="fill:#ffffff;fill-opacity:0.99532;stroke:#ffffff;stroke-width:0;stroke-dasharray:none"
       id="path76"
       d="m 92.8304,99.818371 c 0.05185,0.213569 0.09235,0.429609 0.117226,0.647949 0.0024,0.0259 0.0046,0.0518 0.0069,0.0777 0.04451,0.49297 0.741677,0.43002 0.697164,-0.063 v 0 c -0.0029,-0.0317 -0.0058,-0.0634 -0.0087,-0.0951 -0.02898,-0.24816 -0.07382,-0.49399 -0.133329,-0.736711 -0.119557,-0.480316 -0.79883,-0.311234 -0.679272,0.169082 z" />
    <path
       style="fill:#ffffff;fill-opacity:0.99532;stroke:#ffffff;stroke-width:0;stroke-dasharray:none"
       id="path78"
       d="m 121.59236,103.99324 c -0.2516,0.67789 -0.51855,1.35007 -0.76983,2.0282 -0.35208,1.06191 -0.72292,2.11744 -1.08268,3.17674 -0.14332,0.42749 -0.29123,0.85404 -0.46713,1.26941 -0.0654,0.11632 -0.10961,0.23324 -0.1381,0.36289 -0.0492,0.49252 0.64735,0.56207 0.69654,0.0696 v 0 c -0.0693,0.23363 0.0636,-0.16472 0.0865,-0.16022 0.18153,-0.43124 0.33724,-0.87275 0.48505,-1.31655 0.35764,-1.05325 0.72672,-2.10262 1.07626,-3.15863 0.25916,-0.69961 0.53845,-1.39178 0.79053,-2.0938 0.12557,-0.47878 -0.55153,-0.65636 -0.6771,-0.17759 z" />
    <path
       style="fill:#ffffff;fill-opacity:0.99532;stroke:#ffffff;stroke-width:0;stroke-dasharray:none"
       id="path78-5"
       d="m 119.84349,103.78861 c -0.2516,0.67789 -0.51855,1.35007 -0.76983,2.0282 -0.35208,1.06191 -0.72292,2.11744 -1.08268,3.17674 -0.14332,0.42749 -0.29123,0.85404 -0.46713,1.26941 -0.0654,0.11632 -0.10961,0.23324 -0.1381,0.36289 -0.0492,0.49252 0.64735,0.56207 0.69654,0.0696 v 0 c -0.0693,0.23363 0.0636,-0.16472 0.0865,-0.16022 0.18153,-0.43124 0.33724,-0.87275 0.48505,-1.31655 0.35764,-1.05325 0.72672,-2.10262 1.07626,-3.15863 0.25916,-0.69961 0.53845,-1.39178 0.79053,-2.0938 0.12557,-0.47878 -0.55153,-0.65636 -0.6771,-0.17759 z" />
    <path
       style="fill:#ffffff;fill-opacity:0.99532;stroke:#ffffff;stroke-width:0;stroke-dasharray:none"
       id="path79"
       d="m 123.85171,109.86316 c 0.1035,-0.76045 0.2233,-1.51831 0.3199,-2.27979 0.0815,-0.60411 0.14677,-1.21007 0.19218,-1.81792 0.0368,-0.49361 -0.66126,-0.54565 -0.69807,-0.0521 v 0 c -0.0443,0.59585 -0.10868,1.18977 -0.18855,1.78193 -0.0976,0.77012 -0.22023,1.53635 -0.32269,2.30572 -0.0439,0.49302 0.65332,0.55513 0.69723,0.0621 z" />
    <path
       style="fill:#ffffff;fill-opacity:0.99532;stroke:#ffffff;stroke-width:0;stroke-dasharray:none"
       id="path80"
       d="m 123.10959,105.15115 c 0.48002,0.23281 0.93872,0.50353 1.38965,0.78783 0.33041,0.21744 0.17506,0.11175 0.46698,0.31572 0.40588,0.2833 0.80652,-0.29071 0.40064,-0.57401 v 0 c -0.31168,-0.21731 -0.14713,-0.10559 -0.49446,-0.33395 -0.4714,-0.29685 -0.95094,-0.57948 -1.45244,-0.82302 -0.44366,-0.21947 -0.75403,0.40796 -0.31037,0.62743 z" />
    <path
       style="fill:#ffffff;fill-opacity:0.99532;stroke:#ffffff;stroke-width:0;stroke-dasharray:none"
       id="path81"
       d="m 128.216,105.34718 c -0.5382,0.34644 -0.9302,0.86223 -1.30223,1.37241 -0.29798,0.48398 -0.67918,1.05614 -0.70811,1.64467 -0.005,0.0926 0.0117,0.18499 0.0176,0.27749 0.0344,0.0912 0.0539,0.18959 0.10327,0.27364 0.23594,0.40137 0.7372,0.54613 1.16746,0.60782 0.11621,0.0167 0.23405,0.0188 0.35107,0.0282 0.57405,-0.002 1.09683,-0.22288 1.50319,-0.62806 0.0745,-0.0743 0.13906,-0.15808 0.20859,-0.23712 0.27048,-0.36263 0.43976,-0.77136 0.44821,-1.22807 0.005,-0.27612 -0.0336,-0.40253 -0.0854,-0.67002 -0.12989,-0.47974 -0.32987,-0.93508 -0.59299,-1.35569 -0.26445,-0.41841 -0.85617,-0.0444 -0.59172,0.37399 v 0 c 0.22165,0.34598 0.38232,0.72595 0.49849,1.1199 0.11309,0.53271 0.1147,0.8378 -0.20616,1.30207 -0.2455,0.29084 -0.49609,0.52902 -0.88747,0.60249 -0.0803,0.0151 -0.16264,0.0149 -0.24396,0.0224 -0.26379,-0.0166 -0.4892,-0.0426 -0.74043,-0.13022 -0.0426,-0.0148 -0.14758,-0.057 -0.19055,-0.0948 -0.018,-0.0159 -0.0301,-0.0375 -0.0451,-0.0562 -0.007,-0.0363 -0.0212,-0.0719 -0.0211,-0.10885 5.3e-4,-0.44205 0.36363,-0.96936 0.58128,-1.33186 0.31653,-0.43664 0.64638,-0.88459 1.10157,-1.18707 0.42215,-0.25844 0.0567,-0.85545 -0.36549,-0.59701 z" />
    <path
       style="fill:#ffffff;fill-opacity:0.99532;stroke:#ffffff;stroke-width:0;stroke-dasharray:none"
       id="path82"
       d="m 131.12382,108.31641 c 0.0135,-0.081 0.0235,-0.16275 0.0405,-0.24313 0.11973,-0.5661 0.27696,-1.12481 0.41036,-1.68773 0.0965,-0.4074 0.18163,-0.79905 0.2719,-1.20731 0.0979,-0.41118 0.15016,-0.83419 0.26255,-1.2422 0.0172,-0.0627 0.0361,-0.12557 0.0645,-0.18401 0.004,-0.007 0.0313,-0.003 0.0244,10e-4 -0.0853,0.0533 -0.17531,0.0986 -0.26296,0.14786 -0.0251,0.0136 -0.0796,0.0125 -0.0754,0.0407 0.0148,0.0985 0.0842,0.18064 0.12244,0.27264 0.0542,0.13046 0.10714,0.26155 0.1547,0.39457 0.15037,0.42062 0.2572,0.8501 0.35767,1.28457 0.092,0.44527 0.19774,0.93416 -0.0179,1.36295 -0.0278,0.0552 -0.0661,0.10446 -0.0992,0.15669 -0.21824,0.25196 -0.52001,0.38873 -0.83219,0.48487 -0.17256,0.0493 -0.089,0.027 -0.25062,0.0677 -0.47982,0.12156 -0.30791,0.80012 0.1719,0.67857 v 0 c 0.18862,-0.048 0.0922,-0.022 0.28906,-0.0786 0.47818,-0.15316 0.92028,-0.38313 1.225,-0.79727 0.14171,-0.25132 0.19143,-0.30075 0.2623,-0.58903 0.11815,-0.48063 0.0371,-0.96988 -0.0665,-1.44404 -0.10888,-0.46795 -0.22491,-0.93025 -0.38828,-1.38297 -0.0444,-0.12302 -0.26258,-0.68498 -0.35241,-0.80839 -0.0895,-0.12297 -0.21653,-0.21366 -0.3248,-0.3205 -0.15414,0.032 -0.32186,0.0252 -0.46242,0.0961 -0.1064,0.0537 -0.19732,0.37091 -0.2215,0.45884 -0.1128,0.41012 -0.16634,0.83505 -0.26398,1.2485 -0.0878,0.39728 -0.1745,0.79605 -0.26832,1.19195 -0.13745,0.58003 -0.29845,1.15569 -0.42093,1.73921 -0.0178,0.0845 -0.0283,0.17042 -0.0425,0.25563 -0.0725,0.48964 0.61998,0.59213 0.69245,0.10249 z" />
    <path
       style="fill:#ffffff;fill-opacity:0.99532;stroke:#ffffff;stroke-width:0;stroke-dasharray:none"
       id="path83"
       d="m 133.8947,104.78108 c -0.16015,0.77881 -0.35022,1.55083 -0.51133,2.32949 -0.1116,0.63507 -0.27631,1.31773 -0.0877,1.95678 0.0248,0.0839 0.0647,0.16249 0.097,0.24374 0.13029,0.22806 0.31936,0.49388 0.6004,0.54786 0.24315,0.0467 0.30522,0.003 0.52567,-0.06 0.41582,-0.18873 0.71672,-0.53427 0.91993,-0.9376 0.0475,-0.0944 0.0851,-0.1934 0.12768,-0.29011 0.26079,-0.64681 0.33519,-1.33713 0.34188,-2.02831 -0.0183,-0.38918 -0.0718,-0.77951 -0.20444,-1.1475 -0.0472,-0.13103 -0.10288,-0.24423 -0.16118,-0.36937 -0.10323,-0.18066 -0.21017,-0.41651 -0.40842,-0.51646 -0.0554,-0.0279 -0.11626,-0.0432 -0.1744,-0.0647 -0.16804,-0.0253 -0.30504,0.0229 -0.45635,0.0848 -0.45229,0.20107 -0.16793,0.84071 0.28436,0.63964 v 0 c 0.0291,-0.0177 0.0848,-0.0282 0.0121,-0.043 -0.11789,-0.0752 -0.0509,-0.0413 -0.0334,-0.0234 0.0615,0.0629 0.10203,0.14246 0.142,0.21968 0.0393,0.0837 0.0968,0.20189 0.12899,0.28752 0.1114,0.29622 0.15168,0.61323 0.1707,0.92735 -0.003,0.59735 -0.0634,1.19505 -0.28434,1.75572 -0.13847,0.3273 -0.30241,0.6591 -0.62453,0.84094 -0.22023,0.10301 -0.0272,-0.0165 -0.0694,0.0661 -0.0356,0.0697 -0.23809,-0.21742 -0.19297,-0.16263 -0.0193,-0.0405 -0.0437,-0.079 -0.058,-0.12153 -0.17584,-0.52672 0.01,-1.13988 0.0897,-1.6638 0.15879,-0.76849 0.3472,-1.53021 0.5043,-2.29901 0.12179,-0.47976 -0.55669,-0.65199 -0.67848,-0.17223 z" />
  </g>
</svg>
